<svg xmlns="http://www.w3.org/2000/svg" width="1022.505" height="783.827" viewBox="0 0 1022.505 783.827"><defs><style>.a{fill:#00b8e5;}.b{fill:#fff;}.c{fill:#ebf5f7;}.d{fill:#dae4e5;}.ac,.ad,.ae,.ag,.ai,.ap,.e,.g,.h,.p,.r,.w,.x{fill:none;}.e{stroke:#023d5f;stroke-width:2px;}.ad,.ae,.ag,.ai,.ap,.e,.p,.w{stroke-miterlimit:10;}.f{fill:#2b99ff;}.g{stroke:#767f82;}.ac,.g,.h,.r,.x{stroke-linecap:round;stroke-linejoin:round;}.g,.h{stroke-dasharray:3 2.5;}.h{stroke:#63bace;}.i{fill:#fdd247;}.j{fill:#fcded6;}.k{fill:#71606e;}.k,.s{opacity:0.2;}.l{fill:#fc9549;}.m{fill:#fc5e49;}.n{fill:#2085b7;}.o{fill:#167f7f;}.ac,.ag,.p,.w{stroke:#fff;}.p{stroke-width:3px;}.q{fill:#007fdd;}.r,.x{stroke:#00ebff;}.s{fill:#ffb839;}.t{fill:#ffad00;}.u{fill:#00ebff;}.v,.y{fill:#dbe2e8;}.ac,.ad,.x{stroke-width:0.5px;}.ab,.au,.y{opacity:0.55;}.z{fill:#ffe1b0;}.aa,.ab{fill:#767f82;}.ac{stroke-dasharray:2 2.5;}.ad,.ae{stroke:#dbe2e8;}.ae,.ag{stroke-width:0.25px;}.af{fill:#f39f86;}.ah{fill:#023d5f;}.ai{stroke:#062f44;}.aj{fill:#062f44;}.ak{fill:#16405a;}.al{fill:#103649;}.am{opacity:0.5;}.an{fill:#3a3a3a;}.ao{fill:#ffe7c5;}.ap{stroke:#ffe7c5;stroke-width:0.588px;}.aq{fill:#ffc25b;}.ar{fill:#ffa92c;}.as{fill:#0b0b3a;}.at{fill:#ff703d;}.av{fill:#afd4dd;}.aw{fill:#c5e6ef;}.ax{fill:#ffb27e;}.ay{fill:#db856e;}.az{fill:#ed9c80;}</style></defs><g transform="translate(809.807 402.913)"><rect class="a" width="56.556" height="56.556" rx="3.896" transform="translate(0 43.948) rotate(-50.994)"/><g transform="translate(15.705 16.395)"><path class="b" d="M607.883,266.893c4.042,2.553,7.974,5.149,11,8.854a8.724,8.724,0,0,1,.785,10.392,9.415,9.415,0,0,1-10.147,4.523,15.668,15.668,0,0,1-6.816-3.6c-.481-.408-.981-.8-1.575-1.278-2.21,2.731-4.389,5.418-6.6,8.155-1.765-1.431-3.432-2.78-5.161-4.183C595.5,282.173,601.637,274.6,607.883,266.893Zm-3.34,14.762a9.495,9.495,0,0,0,4.468,2.994,4.5,4.5,0,0,0,5.023-2.182,3.879,3.879,0,0,0-.579-4.953,36.088,36.088,0,0,0-3.334-2.746C608.235,277.1,606.43,279.323,604.542,281.655Z" transform="translate(-589.366 -266.893)"/><path class="b" d="M619.644,281.639q-1.889,1.4-3.635,2.691c-.886-1.149-1.685-2.28-2.589-3.319a3.4,3.4,0,0,0-1.551-1.07,2.117,2.117,0,0,0-1.722.248,1.951,1.951,0,0,0-.365,1.679,17.411,17.411,0,0,0,1.263,2.562,21.167,21.167,0,0,1,1.453,3.138,6.267,6.267,0,0,1-6.816,8.088,11.792,11.792,0,0,1-7.055-3.776c-1.3-1.315-2.372-2.859-3.644-4.422l3.877-2.961c1.382,1.655,2.669,3.252,4.027,4.787a2.3,2.3,0,0,0,1.336.732,2.117,2.117,0,0,0,1.6-.362,2.186,2.186,0,0,0,.423-1.7,9.171,9.171,0,0,0-.981-2.032,27.682,27.682,0,0,1-1.7-3.552,6.036,6.036,0,0,1,6.243-8.054C613.481,274.486,618.045,277.839,619.644,281.639Z" transform="translate(-577.769 -251.574)"/></g></g><path class="c" d="M782.545,308.254H555.454c-34.245,0-34.67-42.479-4.278-51.02,31.272-8.789,53.463,11.312,53.463,11.312s8.247-104.4,86.42-92.142c61.627,9.663,58.048,76.776,58.048,76.776s12.685-27.619,45.927-17.168C829.722,246.915,825.962,308.254,782.545,308.254Z" transform="translate(111.603 -36.481)"/><ellipse class="d" cx="293.404" cy="37.739" rx="293.404" ry="37.739" transform="translate(196.106 557.109)"/><ellipse class="d" cx="215.306" cy="46.941" rx="215.306" ry="46.941" transform="translate(567.326 569.295)"/><path class="c" d="M542.1,344.277H343.138c-30,0-30.377-34.113-3.748-40.974a55.5,55.5,0,0,1,46.84,9.087s7.223-83.849,75.712-74c53.993,7.76,50.855,61.661,50.855,61.661s11.115-22.182,40.242-13.791C583.428,295.016,580.133,344.277,542.1,344.277Z" transform="translate(-320 91.902)"/><path class="c" d="M424.147,215.956H584.294c24.149,0,24.45-27.459,3.016-32.985a44.675,44.675,0,0,0-37.7,7.315s-5.817-67.49-60.944-59.568c-43.46,6.249-40.934,49.632-40.934,49.632s-8.946-17.855-32.39-11.1C390.881,176.3,393.532,215.956,424.147,215.956Z" transform="translate(-157.168 -130.072)"/><g transform="translate(104.06 260.857)"><g transform="translate(0 307.044)"><path class="d" d="M545.493,328.854c0,7.438-42.878,13.472-95.773,13.472s-95.764-6.034-95.764-13.472,42.878-13.475,95.764-13.475S545.493,321.413,545.493,328.854Z" transform="translate(-353.955 -315.379)"/></g><g transform="translate(36.251 5.938)"><line class="e" y1="315.57" x2="30.162"/><line class="e" x1="30.162" y1="315.57" transform="translate(90.084)"/><line class="e" x2="64.731" transform="translate(27.757 25.16)"/><line class="e" x2="71.971" transform="translate(24.137 63.034)"/><line class="e" x2="79.211" transform="translate(20.517 100.909)"/><line class="e" x2="86.451" transform="translate(16.897 138.784)"/><line class="e" x2="93.56" transform="translate(13.277 176.658)"/><line class="e" x2="100.822" transform="translate(9.657 214.533)"/><line class="e" x2="108.142" transform="translate(6.037 252.408)"/><line class="e" x2="114.202" transform="translate(2.417 290.282)"/></g><path class="f" d="M444.745,223.023H376.986a3.916,3.916,0,0,1-3.917-3.917h0a3.918,3.918,0,0,1,3.917-3.917h67.759a3.92,3.92,0,0,1,3.917,3.917h0A3.918,3.918,0,0,1,444.745,223.023Z" transform="translate(-314.491 -215.19)"/></g><g transform="translate(245.2 433.772)"><g transform="translate(11.516 117.439)"><path class="g" d="M548.757,318.841v19.335a34.734,34.734,0,0,1-34.735,34.732H454.7a20.741,20.741,0,0,1-20.742-20.742v-29.8" transform="translate(-341.427 -291.541)"/><path class="g" d="M403.767,344.6v38.74a40.475,40.475,0,0,0,40.475,40.475H572.5A60.12,60.12,0,0,0,632.623,363.7V309.933" transform="translate(-403.767 -309.933)"/><path class="h" d="M433.242,347.094" transform="translate(-342.911 -233.209)"/><path class="g" d="M414.016,321.246v38.74a40.475,40.475,0,0,0,40.475,40.475h52.283" transform="translate(-382.606 -286.576)"/><path class="g" d="M423.9,321.246v38.74a40.475,40.475,0,0,0,40.475,40.475h56.3" transform="translate(-362.204 -286.576)"/></g><g transform="translate(0 0.011)"><path class="i" d="M422.589,281.36V418.8l-22.11.034-.469-137.439Z" transform="translate(-400.009 -251.5)"/><g transform="translate(0.018)"><path class="j" d="M411.018,271.616l2.253,3.2,9.306,26.661-22.562.034,8.845-26.8Z" transform="translate(-400.015 -271.616)"/><path class="i" d="M405.059,271.616l2.253,3.2-1.186.741-1.062-.847-1.143,1.151-1.02-1.148Z" transform="translate(-394.056 -271.616)"/></g><g transform="translate(0.018 29.86)"><path class="j" d="M400.015,281.377l3.234,2.43,2.29-2.438Z" transform="translate(-400.015 -281.343)"/><path class="j" d="M401.818,281.373l3.234,2.43,2.29-2.438Z" transform="translate(-396.293 -281.348)"/><path class="j" d="M403.62,281.371l3.234,2.43,2.29-2.438Z" transform="translate(-392.572 -281.354)"/><path class="j" d="M405.422,281.368l3.234,2.43,2.756-2.438Z" transform="translate(-388.85 -281.36)"/></g></g><path class="k" d="M405.765,271.613l2.253,3.2,9.306,26.672,0,137.429-7.167.011-.469-137.44-7.131-23.591,1.047-3.183Z" transform="translate(-394.744 -271.613)"/><rect class="i" width="22.119" height="4.064" transform="translate(0.464 165.832)"/><g transform="translate(30.994)"><g transform="translate(0 0.011)"><path class="l" d="M432.7,281.36V418.8l-22.111.034-.469-137.439Z" transform="translate(-410.123 -251.5)"/><g transform="translate(0.018)"><path class="j" d="M421.132,271.616l2.252,3.2,9.306,26.661-22.562.034,8.845-26.8Z" transform="translate(-410.129 -271.616)"/><path class="l" d="M415.173,271.616l2.252,3.2-1.186.741-1.062-.847-1.144,1.151-1.02-1.148Z" transform="translate(-404.17 -271.616)"/></g><g transform="translate(0.018 29.86)"><path class="j" d="M410.129,281.377l3.234,2.43,2.29-2.438Z" transform="translate(-410.129 -281.343)"/><path class="j" d="M411.931,281.373l3.234,2.43,2.29-2.438Z" transform="translate(-406.407 -281.348)"/><path class="j" d="M413.734,281.371l3.234,2.43,2.29-2.438Z" transform="translate(-402.686 -281.354)"/><path class="j" d="M415.536,281.368l3.234,2.43,2.756-2.438Z" transform="translate(-398.964 -281.36)"/></g></g><path class="k" d="M415.879,271.613l2.252,3.2,9.306,26.672,0,137.429-7.167.011-.469-137.44-7.131-23.591,1.047-3.183Z" transform="translate(-404.857 -271.613)"/><rect class="l" width="22.119" height="4.064" transform="translate(0.465 165.832)"/></g><g transform="translate(61.989)"><g transform="translate(0 0.011)"><path class="m" d="M442.816,281.36V418.8l-22.111.034-.469-137.439Z" transform="translate(-420.236 -251.5)"/><g transform="translate(0.018)"><path class="j" d="M431.245,271.616l2.253,3.2,9.306,26.661-22.562.034,8.845-26.8Z" transform="translate(-420.242 -271.616)"/><path class="m" d="M425.286,271.616l2.253,3.2-1.186.741-1.061-.847-1.144,1.151-1.019-1.148Z" transform="translate(-414.283 -271.616)"/></g><g transform="translate(0.018 29.86)"><path class="j" d="M420.242,281.377l3.234,2.43,2.29-2.438Z" transform="translate(-420.242 -281.343)"/><path class="j" d="M422.045,281.373l3.234,2.43,2.29-2.438Z" transform="translate(-416.521 -281.348)"/><path class="j" d="M423.847,281.371l3.234,2.43,2.29-2.438Z" transform="translate(-412.799 -281.354)"/><path class="j" d="M425.65,281.368l3.234,2.43,2.756-2.438Z" transform="translate(-409.077 -281.36)"/></g></g><path class="k" d="M425.992,271.613l2.253,3.2,9.306,26.672,0,137.429-7.167.011-.469-137.44-7.131-23.591,1.047-3.183Z" transform="translate(-414.971 -271.613)"/><rect class="m" width="22.119" height="4.064" transform="translate(0.464 165.832)"/></g><g transform="translate(92.983)"><g transform="translate(0 0.011)"><path class="f" d="M452.929,281.36V418.8l-22.111.034-.469-137.439Z" transform="translate(-430.35 -251.5)"/><g transform="translate(0.018)"><path class="j" d="M441.359,271.616l2.252,3.2,9.306,26.661-22.562.034,8.845-26.8Z" transform="translate(-430.356 -271.616)"/><path class="n" d="M435.4,271.616l2.252,3.2-1.186.741-1.062-.847-1.143,1.151-1.02-1.148Z" transform="translate(-424.397 -271.616)"/></g><g transform="translate(0.018 29.86)"><path class="j" d="M430.356,281.377l3.234,2.43,2.29-2.438Z" transform="translate(-430.356 -281.343)"/><path class="j" d="M432.158,281.373l3.234,2.43,2.29-2.438Z" transform="translate(-426.634 -281.348)"/><path class="j" d="M433.961,281.371l3.234,2.43,2.29-2.438Z" transform="translate(-422.912 -281.354)"/><path class="j" d="M435.763,281.368,439,283.8l2.756-2.438Z" transform="translate(-419.191 -281.36)"/></g></g><path class="k" d="M436.105,271.613l2.252,3.2,9.306,26.672,0,137.429-7.167.011-.469-137.44L432.9,277.893l1.047-3.183Z" transform="translate(-425.084 -271.613)"/><rect class="o" width="22.118" height="4.064" transform="translate(0.465 165.832)"/></g></g><path class="g" d="M834.267,385.776h139.84a12.746,12.746,0,0,1,12.746,12.746h0a12.746,12.746,0,0,1-12.746,12.746H533.888a41.874,41.874,0,0,1-41.872-41.875V319.776" transform="translate(35.153 261.6)"/><path class="g" d="M521.841,321.829V406.34A42.344,42.344,0,0,1,479.5,448.684H464.609" transform="translate(-21.433 265.839)"/><path class="g" d="M501.254,313.775v34.971a25.387,25.387,0,0,0,25.385,25.384h153.11" transform="translate(54.226 249.21)"/><g transform="translate(304.528 39.125)"><path class="i" d="M784.576,220.765c-36.319-44.958-90.309-76.846-149.23-77.876-34.082-.595-69.99,3.923-100.422,20.162-26.555,14.171-50.033,34.336-68.915,57.714-32.537,40.276-51.281,92.81-45.648,144.274,4.7,42.973,25.942,82.384,54,114.646,27.367,31.462,67.26,57.428,74.1,101.869,1.949,12.688-2.728,30.233,6.954,40.38,11.52,12.081,30.23,7.873,44.971,7.757q26.309-.207,52.62-.328c12.574-.071,32.675,3.42,42.167-7.429,9.678-10.147,5-27.692,6.954-40.38,5.149-33.478,31.253-60.6,55.283-82.415,27.579-25.032,49.436-53.812,61.753-89.35C841.959,344,828.021,274.55,784.576,220.765Z" transform="translate(-419.368 -142.839)"/><path class="p" d="M530.7,521.686s-4.376-117.3-9.755-174.792c-1.434-15.351-2.639-31.1-10.123-54.63-12.369-38.869-32.157-44.523-44.174-35.691-15.17,11.155-5.418,34.634,16.61,44.26,13.276,5.8,37.845,3.169,50.533-4.327,22.289-13.166,32.1-44.391,28.976-67.848-1.572-11.787-24.382-25.09-32.51-3.181-5.688,15.329,6.917,71.308,36.463,72.942,15.6.864,30.984-5.277,42.871-15.244,9.985-8.367,27.033-28.645,20.527-42.8-3.132-6.819-12.081-9.421-19.307-7.4s-12.927,7.554-17.591,13.432c-18.4,23.175-25.467,52.47-26.938,81.446-3.506,69.151-4.392,123.512-6.595,192.714" transform="translate(-336.881 3.529)"/><rect class="q" width="118.88" height="11.731" transform="translate(145.303 486.195)"/><path class="a" d="M598.428,348.411a6.917,6.917,0,0,1,.211-8.82l.739-.788a6.928,6.928,0,0,0,.3-8.713l-1.2-1.511a6.892,6.892,0,0,1,.542-8.958,6.889,6.889,0,0,0,.644-8.829l-3.181-4.245a6.151,6.151,0,0,0-4.919-2.458H473.43a6.141,6.141,0,0,0-4.916,2.458l-3.184,4.245a6.893,6.893,0,0,0,.644,8.829,6.889,6.889,0,0,1,.542,8.958l-1.2,1.511a6.925,6.925,0,0,0,.3,8.713l.735.788a6.917,6.917,0,0,1,.215,8.82l-.941,1.125a6.9,6.9,0,0,0,.337,8.949l.49.493a12.717,12.717,0,0,0,8.992,3.9h114.1a12.712,12.712,0,0,0,8.992-3.9l.49-.493a6.9,6.9,0,0,0,.337-8.949Z" transform="translate(-327.381 190.089)"/><line class="r" x2="55.055" transform="translate(210.027 510.088)"/><line class="r" x2="30.519" transform="translate(154.972 510.088)"/><line class="r" x2="79.79" transform="translate(146.993 523.575)"/><line class="r" x2="23.538" transform="translate(241.743 523.575)"/><line class="r" x2="42.687" transform="translate(154.972 537.062)"/><line class="r" x2="17.155" transform="translate(225.585 537.062)"/><line class="r" x2="6.184" transform="translate(193.138 510.088)"/><path class="s" d="M694.564,220.763c-36.319-44.958-90.309-76.846-149.23-77.876-6.715-.116-13.5-.025-20.306.306,94.336,5.771,176.049,87.759,172.96,186.41-2.6,82.932-43.1,142.071-126.837,178.329-17.524,7.588-30.095,19.169-32.884,39.243-2.577,18.556,3.279,37.352-.57,55.853-.582,2.8-1.465,5.66-3.429,7.735-1.82,1.925-4.37,2.96-6.868,3.849-20.628,7.343-42.853,8.121-64.434,4.082a18.684,18.684,0,0,0,2.437,3.236c11.52,12.081,30.23,7.873,44.971,7.757q26.309-.207,52.62-.328c12.574-.071,32.675,3.42,42.167-7.429,9.678-10.147,5-27.692,6.954-40.38,5.149-33.478,31.253-60.6,55.283-82.415,27.579-25.032,49.436-53.812,61.753-89.35C751.946,344,738.008,274.548,694.564,220.763Z" transform="translate(-329.355 -142.837)"/></g><g transform="translate(622.219 555.885)"><path class="t" d="M898.76,355.529s-18.308-12.988-33.108-15.1c-29.09-4.146-45.715,7.364-61.428-1.456-6.512-3.653,9.641-6.138,11.345-10.224a54.538,54.538,0,0,0,.1-6.23,10.1,10.1,0,0,1-7.674.276c-29.463-10.628-54.477-9.6-97.244-9.6-95.666,0-174.615,17.214-186.239,39.47h-1.477v5.933h.015c.558,24.827,84.376,44.909,187.7,44.909,99.742,0,187-19.151,188-42.393Zm-123.518,2.718c-13.534,0-24.505-3.95-24.505-8.82s10.972-8.82,24.505-8.82,24.508,3.947,24.508,8.82S788.779,358.247,775.243,358.247Z" transform="translate(-523.031 -307.936)"/><path class="i" d="M898.463,356.639c-2.485-9.911-18.011-15.8-32.81-17.913-29.09-4.149-45.715,7.361-61.428-1.456-9.16-5.139,26.525-7.971,3.766-16.181-29.463-10.628-54.477-9.6-97.244-9.6-103.671,0-187.716,20.217-187.716,45.154S607.076,401.8,710.747,401.8,904.6,381.108,898.463,356.639Zm-123.22-.1c-13.534,0-24.505-3.947-24.505-8.82s10.972-8.82,24.505-8.82,24.508,3.95,24.508,8.82S788.779,356.542,775.243,356.542Z" transform="translate(-523.031 -311.458)"/><path class="l" d="M599.353,337.1a10.984,10.984,0,0,0-3.111-3.393A33.436,33.436,0,0,0,586.8,328.5a1.721,1.721,0,0,0,.619-2.311,3.742,3.742,0,0,0-2-1.606c-3.632-1.557-7.683-1.361-11.588-1.143-7.842.441-15.712.883-23.438,2.381-3.6.7-7.634,2-9.2,5.556a7.116,7.116,0,0,0-.392,4.5,10.538,10.538,0,0,1-2.878.846c-.962.3-1.934,1.263-1.646,2.289a2.4,2.4,0,0,0,.671,1c7.227,7.325,17.787,9.029,27.346,9.068a100.473,100.473,0,0,0,31.026-4.465c1.667-.539,3.478-1.269,4.3-2.918A5.164,5.164,0,0,0,599.353,337.1Z" transform="translate(-495.777 -287.028)"/><path class="m" d="M622.9,329.021a11.046,11.046,0,0,0-3.108-3.393,33.527,33.527,0,0,0-9.445-5.213,1.718,1.718,0,0,0,.619-2.311,3.734,3.734,0,0,0-1.992-1.606c-3.635-1.557-7.683-1.361-11.59-1.143-7.842.441-15.709.883-23.438,2.381-3.6.7-7.634,2-9.2,5.556a7.123,7.123,0,0,0-.392,4.5,10.608,10.608,0,0,1-2.878.843c-.959.3-1.934,1.263-1.646,2.289a2.394,2.394,0,0,0,.671,1c7.23,7.325,17.787,9.029,27.346,9.068a100.55,100.55,0,0,0,31.027-4.462c1.667-.542,3.478-1.272,4.3-2.921A5.154,5.154,0,0,0,622.9,329.021Z" transform="translate(-447.159 -303.714)"/><path class="u" d="M659.378,339.642a9.512,9.512,0,0,0-2.663-2.905,28.683,28.683,0,0,0-8.088-4.459,1.472,1.472,0,0,0,.53-1.98,3.2,3.2,0,0,0-1.707-1.376c-3.111-1.333-6.577-1.165-9.923-.978a148.813,148.813,0,0,0-20.068,2.038c-3.086.6-6.537,1.716-7.879,4.756a6.085,6.085,0,0,0-.334,3.852,9.2,9.2,0,0,1-2.467.723c-.821.26-1.652,1.079-1.407,1.958a2.078,2.078,0,0,0,.573.855c6.19,6.27,15.231,7.729,23.417,7.766a86.137,86.137,0,0,0,26.564-3.825c1.428-.463,2.979-1.088,3.681-2.5A4.435,4.435,0,0,0,659.378,339.642Z" transform="translate(-353.115 -277.681)"/><path class="b" d="M632.769,342.025a11.031,11.031,0,0,0-3.111-3.4,33.425,33.425,0,0,0-9.442-5.21,1.721,1.721,0,0,0,.619-2.311,3.742,3.742,0,0,0-2-1.606c-3.632-1.557-7.683-1.361-11.588-1.143-7.845.441-15.713.883-23.441,2.381-3.6.7-7.631,2-9.2,5.556a7.136,7.136,0,0,0-.392,4.5,10.615,10.615,0,0,1-2.878.846c-.959.3-1.931,1.26-1.646,2.289a2.432,2.432,0,0,0,.674,1c7.227,7.325,17.784,9.029,27.346,9.068a100.438,100.438,0,0,0,31.023-4.465c1.67-.539,3.481-1.269,4.3-2.918A5.164,5.164,0,0,0,632.769,342.025Z" transform="translate(-426.79 -276.865)"/></g><g transform="translate(90.933 609.672)"><g transform="translate(12.689 108.905)"><path class="d" d="M506.557,373.515c0,4.953-34.192,8.97-76.377,8.97s-76.368-4.018-76.368-8.97,34.192-8.97,76.368-8.97S506.557,368.56,506.557,373.515Z" transform="translate(-353.812 -364.545)"/></g><g transform="translate(0 0)"><path class="v" d="M356.62,414.963c-7.554-14.86-9.583-32.832-2.908-48.464,3.862-9.044,9.283-17.965,17.147-24.061A65.416,65.416,0,0,1,394.175,331.1c14.438-3.818,30.478-2.559,43.362,4.989,10.76,6.3,18.63,16.543,23.815,27.732,5.054,10.913,7.187,24.477,18.081,31.517,3.108,2.007,8.278,2.847,9.81,6.589,1.82,4.459-1.493,8.887-3.261,12.755q-3.158,6.9-6.289,13.812c-1.5,3.3-2.954,9-6.926,10.224-3.812,1.351-7.879-1.946-11.453-2.93-9.418-2.59-19.635,1.085-28.21,4.839-9.841,4.309-19.994,6.669-30.8,5.722C382.3,444.6,365.655,432.741,356.62,414.963Z" transform="translate(-349.672 -329.009)"/><path class="w" d="M450.493,391.335s-30.365-14.98-44.863-23.175a65.83,65.83,0,0,1-13.123-9.047c-3.4-3.031-10.291-10.184-5.875-14.906,5.219-5.575,11.361,3.527,11.315,8.6-.037,4.18-3.625,10.337-7.095,12.792-6.093,4.315-15.467,3.218-21.275-.368-4.444-2.746-1.943-9.261,2.991-8.936,4.707.313,17.959,10.23,14.9,18.2a18.02,18.02,0,0,1-9.041,9.476c-7.263,3.543-16.684-5.667-6.479-8.94,7.251-2.329,16.522.178,23.322,2.816,18.615,7.23,33.031,13.4,51.508,20.984" transform="translate(-313.343 -301.238)"/><rect class="q" width="34.29" height="3.384" transform="translate(143.436 77.578) rotate(114.124)"/><path class="a" d="M402.542,393.307a1.99,1.99,0,0,0-2.344-.984l-.3.1a1.991,1.991,0,0,1-2.326-.95l-.258-.493a1.987,1.987,0,0,0-2.421-.913,1.989,1.989,0,0,1-2.4-.87l-.742-1.339a1.781,1.781,0,0,1-.067-1.584l13.926-31.1a1.777,1.777,0,0,1,1.229-1.005l1.493-.337a1.989,1.989,0,0,1,2.25,1.211,1.986,1.986,0,0,0,2.292,1.2l.539-.138a2,2,0,0,1,2.259,1.106l.12.288a2,2,0,0,0,2.3,1.094l.408-.113a1.986,1.986,0,0,1,2.314,1.143l.074.187a3.673,3.673,0,0,1-.034,2.829L407.4,392.676a3.686,3.686,0,0,1-2.087,1.906l-.19.07a1.99,1.99,0,0,1-2.393-.965Z" transform="translate(-263.249 -277.844)"/><line class="x" x1="6.49" y2="14.493" transform="translate(132.517 96.05)"/><line class="x" x1="3.598" y2="8.034" transform="translate(141.9 81.557)"/><line class="x" x1="9.406" y2="21.004" transform="translate(140.583 81.047)"/><line class="x" x1="2.775" y2="6.196" transform="translate(136.044 105.989)"/><line class="x" x1="5.032" y2="11.237" transform="translate(147.567 84.737)"/><line class="x" x1="2.022" y2="4.516" transform="translate(142.252 103.326)"/><line class="x" x1="0.729" y2="1.628" transform="translate(140.27 91.604)"/><path class="y" d="M356.62,393.284c-7.554-14.86-9.583-32.832-2.908-48.464q1.14-2.675,2.473-5.311c-9.6,25.513,2.347,56.69,28.682,67.508,22.139,9.093,42.479,5.4,61.9-12.366,4.061-3.721,8.593-5.664,14.2-4.03,5.188,1.508,9.448,5.265,14.772,6.433a4.488,4.488,0,0,0,2.439.009,4.836,4.836,0,0,0,1.823-1.355,35.7,35.7,0,0,0,8.67-16.482,5.605,5.605,0,0,1,.567,1.024c1.82,4.459-1.493,8.887-3.261,12.755q-3.158,6.9-6.289,13.812c-1.5,3.3-2.954,9-6.926,10.224-3.812,1.351-7.879-1.946-11.453-2.93-9.418-2.59-19.635,1.085-28.21,4.839-9.841,4.309-19.994,6.669-30.8,5.722C382.3,422.92,365.655,411.062,356.62,393.284Z" transform="translate(-349.672 -307.33)"/></g></g><g transform="translate(701.468 624.277)"><g transform="translate(0 78.383)"><path class="d" d="M668.831,366.4c0,3.889-26.849,7.043-59.972,7.043s-59.969-3.153-59.969-7.043,26.849-7.046,59.969-7.046S668.831,362.508,668.831,366.4Z" transform="translate(-548.89 -359.351)"/></g><path class="v" d="M654.87,398.348c5.829-10.907,7.606-24.2,2.9-35.9-2.728-6.764-6.614-13.463-12.351-18.1a48.57,48.57,0,0,0-17.122-8.765c-10.65-3.052-22.562-2.363-32.234,3.04-8.075,4.511-14.067,11.986-18.082,20.205-3.917,8.017-5.706,18.042-13.892,23.1-2.338,1.443-6.184,1.983-7.377,4.738-1.419,3.276.972,6.614,2.225,9.507q2.234,5.167,4.453,10.34c1.063,2.473,2.053,6.724,4.983,7.689,2.8,1.06,5.872-1.324,8.535-2,7.027-1.777,14.548,1.1,20.849,4.018,7.233,3.344,14.729,5.25,22.758,4.714C635.375,419.935,647.9,411.394,654.87,398.348Z" transform="translate(-533.647 -333.775)"/><path class="w" d="M556.916,378.983s22.746-10.65,33.625-16.506a48.831,48.831,0,0,0,9.917-6.552c6.629-5.679,6.089-10.049,3.347-11.679-3.463-2.059-7.276,1.82-7.334,6.966-.037,3.1,2.535,7.72,5.069,9.6,4.453,3.291,11.425,2.62,15.786.049,2.191-1.293,2.908-6.9-2.087-6.672-3.494.159-13.472,7.312-11.33,13.27a13.364,13.364,0,0,0,6.58,7.174c2.332,1.192,6.43,1.9,8.992,1.125,5.1-1.542-.352-6.65-3.114-7.417-6.1-1.695-12.461-.641-18.293,1.486-13.917,5.078-24.7,9.439-38.52,14.778" transform="translate(-532.319 -313.319)"/><rect class="q" width="25.436" height="2.51" transform="translate(22.436 55.303) rotate(67.052)"/><path class="a" d="M565.238,381.135a1.481,1.481,0,0,1,1.756-.693l.218.08a1.484,1.484,0,0,0,1.741-.668l.2-.362a1.474,1.474,0,0,1,1.811-.641,1.477,1.477,0,0,0,1.793-.61l.57-.981a1.321,1.321,0,0,0,.077-1.174l-9.856-23.276a1.321,1.321,0,0,0-.895-.766l-1.1-.273a1.477,1.477,0,0,0-1.686.864,1.472,1.472,0,0,1-1.719.855l-.4-.11a1.486,1.486,0,0,0-1.692.785l-.092.211a1.481,1.481,0,0,1-1.719.778l-.3-.092a1.474,1.474,0,0,0-1.735.812l-.058.138a2.74,2.74,0,0,0-.019,2.1l9.519,22.479a2.706,2.706,0,0,0,1.52,1.446l.138.055a1.475,1.475,0,0,0,1.79-.68Z" transform="translate(-542.618 -296.694)"/><line class="x" x2="4.593" y2="10.848" transform="translate(23.128 70.049)"/><line class="x" x2="2.546" y2="6.013" transform="translate(18.535 59.202)"/><line class="x" x2="6.656" y2="15.721" transform="translate(15.212 58.755)"/><line class="x" x2="1.964" y2="4.638" transform="translate(23.116 77.423)"/><line class="x" x2="3.561" y2="8.411" transform="translate(13.221 61.452)"/><line class="x" x2="1.431" y2="3.38" transform="translate(19.111 75.365)"/><line class="x" x2="0.516" y2="1.218" transform="translate(21.719 66.722)"/><path class="y" d="M654.87,381.708c5.829-10.907,7.606-24.2,2.9-35.9-.54-1.333-1.122-2.663-1.756-3.975,6.733,19.068-2.605,42.007-22.3,49.629-16.558,6.405-31.587,3.359-45.719-10.113-2.957-2.819-6.285-4.333-10.475-3.206-3.871,1.039-7.085,3.76-11.051,4.545a3.332,3.332,0,0,1-1.811-.031,3.649,3.649,0,0,1-1.333-1.03,26.521,26.521,0,0,1-6.178-12.357,4.207,4.207,0,0,0-.435.751c-1.419,3.276.972,6.614,2.225,9.507q2.234,5.167,4.453,10.34c1.063,2.473,2.053,6.724,4.983,7.689,2.8,1.06,5.872-1.324,8.535-2,7.027-1.777,14.548,1.1,20.849,4.018,7.233,3.344,14.729,5.25,22.758,4.714C635.375,403.3,647.9,394.754,654.87,381.708Z" transform="translate(-533.647 -317.135)"/></g><path class="z" d="M439.221,305.252a11.92,11.92,0,0,1-11.915-11.83c-.429-55.964,16.859-86.917,35.605-112.031a11.919,11.919,0,0,1,19.1,14.26c-15.142,20.288-31.266,46.23-30.87,97.588a11.92,11.92,0,0,1-11.823,12.013Z" transform="translate(-98.469 -34.009)"/><path class="z" d="M462.64,192.661a11.922,11.922,0,0,1-9.313-19.353,47.238,47.238,0,0,1,11.983-10.944,11.921,11.921,0,0,1,12.243,20.457,26.042,26.042,0,0,0-5.587,5.357A11.91,11.91,0,0,1,462.64,192.661Z" transform="translate(-50.098 -66.815)"/><g transform="translate(301.797 566.372)"><g transform="translate(0 188.491)"><path class="d" d="M577.566,390.868c0,7.993-35.611,14.481-79.546,14.481s-79.543-6.488-79.543-14.481,35.614-14.483,79.543-14.483S577.566,382.87,577.566,390.868Z" transform="translate(-418.477 -376.385)"/></g><g transform="translate(62.568 117.177)"><path class="aa" d="M508.366,377.834H438.893l34.664-11.306H544l-.26.745-33.494,10.264A6.068,6.068,0,0,1,508.366,377.834Z" transform="translate(-438.893 -325.42)"/><path class="v" d="M507,376.648H439.105l34.015-10.12h68.86l-33.1,9.822A5.993,5.993,0,0,1,507,376.648Z" transform="translate(-438.455 -325.42)"/><path class="ab" d="M489.81,373.8H444.75l22.574-6.715h45.7L491.057,373.6A4.083,4.083,0,0,1,489.81,373.8Z" transform="translate(-426.8 -324.272)"/><path class="aa" d="M520.645,394.224H450.2l8.878-38.948a3.326,3.326,0,0,1,3.212-2.161h63.5a3.057,3.057,0,0,1,3.178,3.831Z" transform="translate(-415.54 -353.115)"/><path class="aa" d="M519.064,394.224H450.2l8.878-38.948a3.326,3.326,0,0,1,3.212-2.161h61.924a3.057,3.057,0,0,1,3.178,3.831Z" transform="translate(-415.54 -353.115)"/><path class="v" d="M513.54,390.167H451.407l7.993-36.243a.031.031,0,0,1,.028-.018h62.108Z" transform="translate(-413.056 -351.482)"/><path class="ac" d="M500.278,382.229H454.4l5.9-26.761.021-.014h45.861Z" transform="translate(-406.876 -348.287)"/><line class="ad" x2="56.515" transform="translate(17.951 47.686)"/><line class="ae" x2="56.515" transform="translate(28.371 44.795)"/><path class="af" d="M442.841,369.6c2.363-1.955,6.516-2.418,9.556-2.838a49.741,49.741,0,0,1,9.191-.135c1.765.083,1.315,2.136-.205,2.39a17.8,17.8,0,0,1-5.259.083,8.4,8.4,0,0,1-4.631,3.071,18.8,18.8,0,0,1-5.618.536c-.53-.012-1.2-.144-1.309-.662" transform="translate(-430.742 -325.513)"/><g transform="translate(62.115 7.168)"><line class="ag" x1="12.921" y1="12.921" transform="translate(11.269 0.627)"/><path class="b" d="M467.137,359.958a.628.628,0,1,1,0,.889A.629.629,0,0,1,467.137,359.958Z" transform="translate(-443.074 -346.535)"/><path class="b" d="M465.553,361.4a.628.628,0,1,1,0,.889A.629.629,0,0,1,465.553,361.4Z" transform="translate(-446.344 -343.564)"/><path class="b" d="M461.176,357.02a.627.627,0,1,1,0,.886A.629.629,0,0,1,461.176,357.02Z" transform="translate(-455.381 -352.601)"/><path class="b" d="M462.817,355.638a.628.628,0,1,1,0,.889A.629.629,0,0,1,462.817,355.638Z" transform="translate(-451.993 -355.454)"/><path class="ag" d="M461.2,357.62s6.31-2.951,11.339,2.078,2.075,11.339,2.075,11.339" transform="translate(-454.958 -352.759)"/><g transform="translate(2.774 6.911)"><path class="b" d="M466.507,359.005l8.342-1.3-6.424,6.935a1.887,1.887,0,1,0,.015.015l-.012-.012,6.739-6.617s-.981,5.762-1.315,8.624a105.488,105.488,0,0,0-10.11,6.175c-.331.245-3.819-3.38-3.672-3.561C462.256,366.5,466.507,359.005,466.507,359.005Z" transform="translate(-460.066 -357.709)"/></g><g transform="translate(0 16.551)"><path class="b" d="M459.357,362.453l1.4-1.4a.67.67,0,0,1,.95,0l5.627,5.627a.669.669,0,0,1,.034.913l-.034.037-1.4,1.4a.671.671,0,0,1-.947,0l-5.63-5.63A.671.671,0,0,1,459.357,362.453Z" transform="translate(-459.161 -360.855)"/></g></g></g><path class="ah" d="M427.989,369.105c-1.4,4.882-1.091,8.8-2.013,13.8-1.376,7.438-1.928,16.007,3.086,21.673,3.625,4.1,6.807,5.645,12.28,5.722,4.615.064,9.194-.754,13.806-.876,3.1-.083,12.574.757,15.67.88,13.809.548,21.618-2.5,35.28-4.189a325.766,325.766,0,0,0,35.9-7.208c35.357-9.681,22.553-23.941,14.738-26.215-1.7-.5-9.4-3.062-9.4-3.062L537,372.516H500.833s-15.09-.7-21.551-2.213" transform="translate(-404.961 -202.924)"/><path class="af" d="M461.843,362.739a20.89,20.89,0,0,1,2.17,1.471,25.541,25.541,0,0,0,4.919,2.418q2.478,1,4.958,2.007a2.808,2.808,0,0,1,.962.546,2.761,2.761,0,0,1,.595,1.462c1.03,5.191,2.053,10.582.674,16.059a20.684,20.684,0,0,1-2.9-5.8,6.355,6.355,0,0,0-1.367-2.832,8.072,8.072,0,0,0-1.581-1,16.9,16.9,0,0,1-4.379-4.165,2.739,2.739,0,0,1-.717-1.3,1.636,1.636,0,0,0-.1-.536.963.963,0,0,0-.374-.343l-6.111-3.926" transform="translate(-335.662 -216.068)"/><path class="f" d="M443.524,436.782c-2.844-2.1-5.942-4.456-8.891-6.914-6.708-5.636-12.7-11.759-13.445-16.215-1.64-9.988-.359-39.675.435-53.687.024-.843.077-1.64.129-2.381.794-13.242,7.913-19.108,11.474-21.259,1.817,17.214,5.915,56.068,6.249,58.066C439.911,396.954,443.524,436.782,443.524,436.782Z" transform="translate(-414.517 -270.602)"/><path class="q" d="M441.766,423.564c-2.841-2.1-5.942-4.456-8.887-6.914-.254-10.947-4.238-8.569-8.823-27.7a127.594,127.594,0,0,1-1.293-46.221l10.938,1.664c1.817,17.033,3.788,35.424,4.021,36.782C438.156,383.736,441.766,423.564,441.766,423.564Z" transform="translate(-412.753 -257.384)"/><path class="af" d="M431.647,368.629s2.341-7.937,1.318-13.794-4.542-16.4-3.224-24.309,11.278-14.5,21.82-13.472,13.619,11.128,15.378,16.987,1.462,14.79,1.024,19.623-3.074,8.639-4.833,9.666-8.366-.328-9.528.935-2.041,8.728-2.041,8.728" transform="translate(-395.824 -310.609)"/><path class="f" d="M428.541,341.058s.585-4.631,2.341-6.27,13.475-1.64,16.987-1.2,12.182,4.477,13.328,5.333-1.115,5.3-1.115,5.3Z" transform="translate(-397.698 -276.768)"/><path class="ah" d="M435.194,362.915s14.643,1.244,17.426,0,6.81-3.956,7.177-8.933-.659-6.519,1.244-9.3,3.589-1.83,3.88.806.408,7.4,1.1,7.747c.932.472,2.041-2.881,1.682-7.968-.31-4.41-.806-7.833-2.124-10.763s-2.032-2.764-3.221-3.294c1.281-.622,2.666-.7,5.2-4.649,2.933-4.576,1.318-11.707-6.442-11.679-13.558.052-27.971,2.709-28.265,12.743,0,0-4.759-.732-4.9,8.419s5.709,20.208,6.151,23.065S433.729,362.253,435.194,362.915Z" transform="translate(-398.933 -314.88)"/><path class="f" d="M488.806,428.536c.536,4.585,4.557,11.679,1.817,12.678-1.1.383-5.584.129-11.063-.334h-.153c-.1,0-.181-.025-.257-.025-4.867-.411-10.426-.947-15.087-1.306-18.621-.794-28.121,2.921-29.994,1.869-.895-.539-.919-2.151-.641-3.815a43.417,43.417,0,0,0,.31-12.348c-.463-3.457-1.1-7.582-2-12.3-3.074-16.316-9.093-41.238-9.991-56.221-1.434-23.487,23.72-21.26,23.72-21.26,32.016-2,47.052,7.223,48.792,20.978.129.975.205,2.023.282,3.126.818,14.189-3.509,37.088-5.559,54.2A86.407,86.407,0,0,0,488.806,428.536Z" transform="translate(-411.844 -272.907)"/><path class="q" d="M449.819,413.461c.536,4.585,4.557,11.679,1.817,12.678-1.1.383-5.584.129-11.063-.334,4.943.359,5.866-3.432,4.763-5.967a36.23,36.23,0,0,1-3.175-15.164c.23-6.813,2.792-22.182,4.3-36.705a118.023,118.023,0,0,0,.025-25.458c.769,1.535,2.973,3.687,9.169,5.124.129,14.266-3.763,35.167-5.66,51.072A86.407,86.407,0,0,0,449.819,413.461Z" transform="translate(-372.856 -257.832)"/><path class="f" d="M438.452,336.4s14.677-1.171,21.131,4.251c5.152,4.327,15.066,59.086,15.066,59.086L460.943,405.4s-14.931-37.426-18.823-36.846" transform="translate(-377.236 -270.673)"/><path class="f" d="M445.612,362.5c4.658,14.738,42.66,20.313,42.66,20.313l2.118-6.767s-23.206-17.282-31.581-19.626" transform="translate(-362.453 -229.123)"/><path class="ai" d="M461.625,370.287q5.08.276,10.147.751" transform="translate(-329.391 -200.484)"/><path class="aj" d="M524.095,379.733c-12.6-.613-25.051,2.387-37.533,4.22s-25.706,2.406-37.223-2.74a4.719,4.719,0,0,0-6.218.711,18.4,18.4,0,0,1-6.8,3.3c-3.512.735-4.523-.135-8.063-.723a1.543,1.543,0,0,0-1.039.074c-.086.049-.095.138-.15.205,3.54,2.611,5.59,3.678,10.061,3.742,4.615.064,9.194-.754,13.806-.876,3.1-.083,12.574.757,15.67.88,13.809.548,21.618-2.5,35.28-4.189,5.667-.7,14.122-2.246,21.967-3.911A1.768,1.768,0,0,0,524.095,379.733Z" transform="translate(-400.746 -181.149)"/></g><g transform="translate(631.364 155.825)"><path class="f" d="M609.5,219.668a20.394,20.394,0,0,0-6.1-2.85c-3.166-.895-1.569-3.233-4.858-2.672-6.258,1.051-20.68,3.941-29.421,6.344-.083.018-.15.021-.242.043-4.389,1.079-5.881,0-5.881,0l-1.842,2.075.242.732a7.08,7.08,0,0,0-2.7,5.069c-.043.46-.5,2.228-.686,3.975-.208,1.6-.19,3.206.5,3.809l.04.043a1.268,1.268,0,0,0,.251.083c2.85,1.207,7.055,1.082,8.094,1.125,4.579.248,15.464-1.125,25.455-2.458,6.221-.831,12.112-1.643,15.921-2.038a6.79,6.79,0,0,0,3.849-1.75,5.954,5.954,0,0,0,1.894-3.267C614.745,224.477,612.435,221.709,609.5,219.668Z" transform="translate(-460.192 -112.491)"/><g transform="translate(63.78 87.542)"><path class="f" d="M590.98,241.855a6.734,6.734,0,0,1-.956,1.768c-.187.23-.377.438-.564.628-6.476,6.476-14.634-.006-19.359-3.806-6.745-5.427-14.717-14.928-21-20.895-.2-.187-2.51-2.161-2.255-2.5l5.768-7.57s15.516,14.058,24.631,17.242c4,1.394,7.907,2.666,10.613,4.33.355.208.668.417.98.643C588.838,231.7,592.935,236.381,590.98,241.855Z" transform="translate(-546.827 -209.483)"/><path class="q" d="M596.009,226.545c-9.991,1.333-20.876,2.706-25.455,2.458-1.039-.043-5.244.083-8.094-1.125a1.268,1.268,0,0,1-.251-.083l-.04-.043c-5.994-2.538-9.678-8.18-.5-3.809a30.586,30.586,0,0,0,5.179,2.1,18.833,18.833,0,0,0,3.414.313c.172,0,.343,0,.518,0C579.245,226.325,603.986,207.777,596.009,226.545Z" transform="translate(-527.63 -191.593)"/></g><g transform="translate(126.344 41.301)"><path class="f" d="M613.563,272.6a26.158,26.158,0,0,0-1.171,15.087c2.222,10-.306,10.671-.306,10.671s-13.555,8.6-24.827,12.118c-8.078,2.513-14.962,2.087-14.772-6.831l.006-.123c.015-.542.027-1.06.043-1.566.38-20.046-3.8-21.063-4.83-43.509-1.063-23.028-.837-36.662,6.54-40.377,8.033-4.048,19.087-6.831,34.765-3.126,11.775,2.777,15.654,5.9,15.559,14.615a68.371,68.371,0,0,1-1.266,10.729C621.359,251.255,616.716,264.42,613.563,272.6Z" transform="translate(-567.241 -155.55)"/><path class="q" d="M610.024,262.75a26.158,26.158,0,0,0-1.171,15.087c2.222,10-.306,10.671-.306,10.671s-13.555,8.6-24.827,12.118l-10.53-1-4.217-3.313-.018-2.642c.015-.542.027-1.06.043-1.566a77.914,77.914,0,0,0,15.9-.414,65.934,65.934,0,0,0,15.6-3.907,6.076,6.076,0,0,0,3.834-6.755,87.178,87.178,0,0,1-1.459-13.981c.031-4.413,2.075-11.872,3.745-17.254a34.743,34.743,0,0,0,1.4-12.758,114,114,0,0,1,.012-14.539l8.351-4.52,4.649,1.732a68.371,68.371,0,0,1-1.266,10.729C617.821,241.405,613.178,254.571,610.024,262.75Z" transform="translate(-563.703 -145.701)"/><g transform="translate(6.1)"><path class="ah" d="M573.78,219.9a19.733,19.733,0,0,1-4.471-14.039c.448-4.833,1.946-9.537,9.182-11.287,3.975-.959,9.62,2.029,13.659,6.534,12.6,1.054,16.705,9.724,17.2,19.577l-14.8-3.3Z" transform="translate(-569.232 -194.394)"/><path class="af" d="M605.638,218.507c-.285,11.284-10.021,17.824-10.021,17.824l.653,10.27-6.568,4.257-4.505,2.918-2.587-5.406-.356-6.62a3.413,3.413,0,0,0-2.709-3.147,12.432,12.432,0,0,1-6.405-3.871,4.446,4.446,0,0,1-.408-.506l-.015-.009c-4.266-5.814-5.881-28.081,8.725-34.4C596.527,193.269,605.932,207.2,605.638,218.507Z" transform="translate(-568.185 -186.669)"/></g><path class="ak" d="M576.142,216.5s-6.442,40.046-4,59.227l4.5,8.189,4.922-8.93s-4.71-33.451-2.118-57.809Z" transform="translate(-558.26 -148.762)"/><path class="al" d="M572.8,216.664l.064.527a10.542,10.542,0,0,0,.781,2.881h0l3.307.677,2.881-2.145-3.3-3.84-.512.132a7.29,7.29,0,0,0-3.169,1.725Z" transform="translate(-555.765 -152.338)"/><path class="q" d="M587.357,212.388a10.479,10.479,0,0,1,3.166,3.258,41.526,41.526,0,0,0-4.055,2.121c-1.725,1.054-10.015,6.908-10.015,6.908l-2.436-5S582.672,213.7,587.357,212.388Z" transform="translate(-553.252 -157.244)"/><path class="q" d="M576.943,219.335s-2.9.99-3.791,3.157c0,0-1.483-2.841.414-7.9a13.124,13.124,0,0,1,2.813-2.041Z" transform="translate(-556.178 -156.91)"/></g><g class="am" transform="translate(100.144 372.036)"><path class="d" d="M558.692,310.9c0,4.738,28.952,8.581,64.67,8.581s64.667-3.843,64.667-8.581-28.952-8.581-64.667-8.581S558.692,306.157,558.692,310.9Z" transform="translate(-558.692 -302.314)"/></g><g transform="translate(116.701 365.395)"><path class="af" d="M570.492,304.091a14.433,14.433,0,0,0-1.005,4.876c.144,1.937,6.31,2.081,7.027,1.079s1.076-9.9,1.076-9.9" transform="translate(-552.988 -300.147)"/><path class="an" d="M589.25,307a41.164,41.164,0,0,1-.561,5.3h-7.107l-.349-1.183a11.2,11.2,0,0,1-4.116,1.183h-6c-4.392,0-6.886-.558-7-1.33-.463-3.23,4.781-3.083,6.148-3.083,3.923,0,8.167-1.836,9.1-3.828.671-1.443.374-1.808,1.186-1.539a2.027,2.027,0,0,1,1.217,1.051,3.6,3.6,0,0,0,3.705,2.023,4.315,4.315,0,0,0,2.4-1.158A2.589,2.589,0,0,1,589.25,307Z" transform="translate(-564.095 -295.398)"/></g><g transform="translate(192.458 358.392)"><path class="af" d="M592.368,302.107a58.149,58.149,0,0,0,2.164,6.948c.852,1.747,6.632-.4,6.926-1.6s-2.666-9.589-2.666-9.589" transform="translate(-581.478 -297.862)"/><path class="an" d="M610.943,302.572c.748,1.876,1.854,5.51,1.854,5.51l-5.385,3.212-1.057-.8a10.507,10.507,0,0,1-2.835,2.964,23.181,23.181,0,0,1-5.333,2.21c-4.922,1.125-8.725.579-9.114-.1-1.627-2.829,4.9-4.385,6.163-4.888a8.8,8.8,0,0,0,5.437-7.177c.089-1.591-.322-1.82.53-1.87a2.021,2.021,0,0,1,1.52.527,3.6,3.6,0,0,0,4.192.5,4.293,4.293,0,0,0,1.8-1.964A2.592,2.592,0,0,1,610.943,302.572Z" transform="translate(-588.814 -291.998)"/></g><g transform="translate(128.372 184.109)"><path class="ah" d="M616.55,280.907s9.657-23.126-7.187-39.914c0,0-14.373,6.433-25.884,7.211-9.062.61-13.665-.328-13.665-.328s-2.038,16.828-.919,43.218Z" transform="translate(-566.547 -240.993)"/><path class="ah" d="M581.679,366.4c-.291.021-.582.021-.852.021a48.943,48.943,0,0,1-9.408-.644v-1.729c.334-26.472-2.872-69.739-3.5-83.414a15.345,15.345,0,0,1,.086-2.623c1.039-10.009,11.382-8.7,15.731.5a36.8,36.8,0,0,1,2.458,7.076,64.785,64.785,0,0,1,1.6,9.991C589.819,318.432,583.447,349.339,581.679,366.4Z" transform="translate(-567.903 -178.942)"/><path class="ah" d="M599.585,275.932c-.04.27-.1.564-.166.855-2.289,12.05-9.721,44.618-13.258,55.191V332c-.521,1.477-2.289,2.728-4.557,3.331-5.2,1.413-12.967-.521-13.632-10.907a24.9,24.9,0,0,1,.04-3.745c.687-8.431,2.541-55.007,2.914-59.5.352-4.493,1.165-11.048,3.537-11.882C586.306,245.194,602.686,259.077,599.585,275.932Z" transform="translate(-567.868 -225.35)"/><path class="aj" d="M581.726,322.816c3.8-14.088,9.028-37.327,10.886-47.091l-2.519-11.177-12.111-14.526-6.764-.938s1.1,21.958,9.01,39.4c0,0-.083,24.765-3.331,35.378l-2.911,8.158s.331.791.812,2.25a74.294,74.294,0,0,1,3.08,31.737c-2.415,18.731-3.892,45.764-3.892,45.764.27,0,.561,0,.852-.021,1.71-16.485,7.686-45.862,6.273-68.443a9.413,9.413,0,0,0-.153-2.378,58.122,58.122,0,0,1,.769-18.112Z" transform="translate(-561.06 -224.288)"/><path class="ah" d="M596.255,275.935c-8.017-7.542-19.169-3.972-13.959,7.732,5.568,12.513,22.792,47.257,32.13,72.022l.643,1.609a50.522,50.522,0,0,0,9.776-3.166c-4.444-16.074-7.677-43.779-16.911-63.086C604.965,284.841,600.411,279.842,596.255,275.935Z" transform="translate(-540.947 -177.035)"/><g transform="translate(10.073 14.95)"><path class="ah" d="M571.264,255.723c-1.557-18.618,21.649-6.252,32.776-.1,4.686,2.587,6.4,7.763,7.027,12.635s6.647,55.047,7.855,64.2c2.721,20.634-15.3,9.35-17.006,3.632C597.617,321.653,572.11,265.87,571.264,255.723Z" transform="translate(-571.19 -245.871)"/></g><path class="ah" d="M591.626,269.95s.736,9.874,9.028,22.053c0,0-13.573-6.267-14.232-7.193s-3.028-10.484-2.764-11.5S591.626,269.95,591.626,269.95Z" transform="translate(-535.417 -181.207)"/></g><path class="b" d="M551.893,224.7c10.392-6.35,13.4-12.452,13.4-12.452a22.849,22.849,0,0,0,.242-3.911c-.071-4.9-1.56-13.089-10.1-16.243-12.6-4.621-20.729,3.911-29.411-11.177,0,0,.015.083.04.233C528.268,195.236,526.076,224.795,551.893,224.7Z" transform="translate(-526.015 -180.918)"/><path class="ao" d="M551.866,224.543c10.392-6.35,13.4-12.452,13.4-12.452a22.849,22.849,0,0,0,.242-3.911c-29.031,27.355-38.786-23.34-39.476-27.187C528.241,195.079,526.049,224.638,551.866,224.543Z" transform="translate(-525.988 -180.761)"/><path class="ap" d="M526.028,180.994a26.057,26.057,0,0,0,12.326,14.235c4.435,2.21,9.338,1.86,13.987,3.169,6.319,1.774,11.627,8.713,8.654,17.659" transform="translate(-525.988 -180.761)"/><path class="ap" d="M526.028,180.994s2.856,17.551,17.521,23.717c8.284,3.478,13.181,7.934,13.285,15.216" transform="translate(-525.988 -180.761)"/><g transform="translate(182.104 205.589)"><path class="q" d="M597.25,272.28a6.305,6.305,0,0,1-1.952-.429c-7.478-2.908-9.439-19.761-9.638-21.673L585.436,248l2.081.668c1.845.595,18.066,6.019,19.6,13.65.5,2.479-.518,4.824-3.016,6.966C601.722,271.394,599.42,272.4,597.25,272.28ZM588.8,252.145c.87,5.633,3.224,15.369,7.533,17.046,1.649.637,3.632-.055,5.893-2.059,1.695-1.453,2.375-2.838,2.09-4.245C603.429,258.468,594.207,254.165,588.8,252.145Z" transform="translate(-585.436 -248.002)"/></g><g transform="translate(25.483 31.251)"><rect class="aq" width="18.295" height="223.288" transform="translate(4.154 16.973) rotate(-41.533)"/><rect class="ar" width="18.295" height="6.38" transform="translate(0 12.13) rotate(-41.532)"/></g><rect class="l" width="18.295" height="223.288" transform="translate(29.637 48.224) rotate(-41.533)"/><rect class="as" width="18.295" height="6.38" transform="translate(25.483 43.381) rotate(-41.532)"/><path class="k" d="M691.62,365.614l-5.2,4.593L538.566,202.946l-4.235-4.766,5.17-4.622,4.235,4.766Z" transform="translate(-508.847 -154.821)"/><rect class="q" width="18.295" height="3.569" transform="translate(175.244 212.768) rotate(-41.533)"/><g transform="translate(149.628 105.033)"><path class="af" d="M589.951,245.787l-4.812-4s-1.814,2.357-2.719,2.642c-.242.077-.754-.123-1.008-.123-1.373-.006-2.2.432-3.886,1.2-1.134.518-2.626.99-2.685,1.443s.726,1.171,1.517,1.112a2.653,2.653,0,0,0,.389-.083,1.727,1.727,0,0,0,.092.478c.325,1.008,5.047,7.6,9.743.429A13.537,13.537,0,0,1,589.951,245.787Z" transform="translate(-574.839 -160.276)"/><path class="f" d="M581.929,237.169c2.139,6.58,4.416,16.978,8.719,25.789a5.794,5.794,0,0,0,.276.552c.021.046.046.07.068.116a7.628,7.628,0,0,0,.322.965c.784,1.817,2.9,5.519,7.683,5.268.23,0,.852.025,1.633.067a29.263,29.263,0,0,0,3.2,0c1.333-.092,2.507-.343,2.9-1.011a.022.022,0,0,0,.024-.021,3.991,3.991,0,0,0,.163-.668,1.834,1.834,0,0,0,.067-.368,2.115,2.115,0,0,0,.07-.392c.046-.368.067-.736.092-1.1a4.736,4.736,0,0,0,.021-.552,37.572,37.572,0,0,0-.438-5.385c-.689-7.407-8-30.594-10.487-40.257a6.692,6.692,0,0,0-2.277-3.564,5.9,5.9,0,0,0-3.475-1.382c-.025,0-.025,0-.046-.021a4.137,4.137,0,0,0-.552,0c-3.246.092-5.477,2.645-6.972,5.7a19.962,19.962,0,0,0-1.909,6.42A22.708,22.708,0,0,0,581.929,237.169Z" transform="translate(-562.487 -215.19)"/><path class="f" d="M577.549,268.466l4.051,3.659.021.021,1.057.922s8.213-7.131,14.609-13.16c5.912-5.614,11.94-11.869,15.688-19.369.184-.346.368-.739.53-1.082v-.046a3.991,3.991,0,0,0,.163-.668,1.834,1.834,0,0,0,.067-.368,2.115,2.115,0,0,0,.07-.392c.046-.368.067-.736.092-1.1a4.736,4.736,0,0,0,.021-.552,6.717,6.717,0,0,0-1.5-4.324c-.092-.116-.205-.23-.3-.346a7.2,7.2,0,0,0-2.807-1.679c-4.741-1.655-9.157,1.244-9.157,1.244-.251.251-.527.527-.781.827-.552.6-1.128,1.266-1.7,1.977a33.282,33.282,0,0,0-4.419,7.386C589.351,250.455,577.549,268.466,577.549,268.466Z" transform="translate(-569.244 -185.709)"/></g><path class="ah" d="M570.127,206.216s9.7-1.931,17.137,2.072a13.712,13.712,0,0,0,12.335.4l2.8-1.312s-2.767-3.209-3.184-3.494-2.8-2.988-4.245-3.592-7.511-2.565-8.287-2.691a16.669,16.669,0,0,0-4.864.009,12.283,12.283,0,0,0-3.8,1.281c-.981.472-3.788,2.24-3.788,2.24Z" transform="translate(-434.939 -146.835)"/><path class="af" d="M552.26,221.992s-6.975-6.077-7.334-10.34c-.4-4.707,2.914-6.969,5.09-4.373,3.429,4.085,2.813,10.772,2.813,10.772l1.287,1.511Z" transform="translate(-487.038 -128.747)"/><path class="q" d="M578.871,301.606l.021.021,1.057.922s8.213-7.131,14.609-13.16c5.912-5.614,11.94-11.869,15.688-19.369.184-.346.368-.739.53-1.082v-.046a3.991,3.991,0,0,0,.163-.668,1.834,1.834,0,0,0,.067-.368,2.115,2.115,0,0,0,.07-.392c.046-.368.067-.736.092-1.1a4.736,4.736,0,0,0,.021-.552,37.572,37.572,0,0,0-.438-5.385c-.689-7.407-8-30.594-10.487-40.257a6.692,6.692,0,0,0-2.277-3.564,5.9,5.9,0,0,0-3.475-1.382c-.025,0-.025,0-.046-.021a4.137,4.137,0,0,0-.552,0c1.541,2.482,3.726,7.5,6.187,17.551,3.267,13.411,5.569,21.511,6.488,26.708a18.172,18.172,0,0,1,.414,5.59,17.314,17.314,0,0,1-2.348,4.876C599.021,279.268,584.712,297.6,578.871,301.606Z" transform="translate(-416.886 -110.157)"/><path class="ah" d="M580.194,231.687a37.675,37.675,0,0,1-1.048-8.366s4.787-3.38,4.787-6.831c0-4.8-5.345,0-5.345,0a35.106,35.106,0,0,1-1.364-6.758c-.432-5.391,8.624-9.347,8.624-9.347l4.747,3.451,2.289,4.481S593.087,227.112,580.194,231.687Z" transform="translate(-420.317 -140.725)"/></g><g transform="translate(556.997 366.258)"><path class="at" d="M.531,0H70.19a.528.528,0,0,1,.528.528v11.5a.528.528,0,0,1-.528.528H.531A.531.531,0,0,1,0,12.02V.531A.531.531,0,0,1,.531,0Z" transform="matrix(0.866, -0.499, 0.499, 0.866, 0, 35.301)"/><g class="au" transform="translate(4.772 2.238)"><g transform="translate(51.29)"><path class="av" d="M521.99,252.933a.272.272,0,0,1-.377-.1l-1.293-2.246.478-.276,1.293,2.243A.275.275,0,0,1,521.99,252.933Z" transform="translate(-519.468 -250.313)"/><path class="av" d="M520.781,251.673a.137.137,0,0,1-.181-.049l-.558-.968.239-.138.558.968A.141.141,0,0,1,520.781,251.673Z" transform="translate(-520.042 -249.89)"/></g><g transform="translate(49.231 1.18)"><path class="av" d="M521.321,253.321a.276.276,0,0,1-.377-.1l-1.293-2.246.478-.276,1.293,2.246A.273.273,0,0,1,521.321,253.321Z" transform="translate(-518.79 -250.698)"/><path class="av" d="M520.118,252.054a.139.139,0,0,1-.19-.043l-.558-.968.242-.138.555.965A.135.135,0,0,1,520.118,252.054Z" transform="translate(-519.37 -250.271)"/></g><g transform="translate(47.183 2.363)"><path class="av" d="M520.659,253.7a.286.286,0,0,1-.389-.1l-1.29-2.243.487-.279,1.293,2.243A.283.283,0,0,1,520.659,253.7Z" transform="translate(-518.128 -251.084)"/><path class="av" d="M519.45,252.439a.138.138,0,0,1-.19-.043l-.558-.968.239-.138.558.968A.137.137,0,0,1,519.45,252.439Z" transform="translate(-518.702 -250.659)"/></g><g transform="translate(45.133 3.546)"><path class="av" d="M519.981,254.093a.276.276,0,0,1-.377-.1l-1.293-2.246.478-.276,1.293,2.246A.276.276,0,0,1,519.981,254.093Z" transform="translate(-517.459 -251.47)"/><path class="av" d="M518.771,252.83a.135.135,0,0,1-.181-.049l-.558-.968.239-.138.558.968A.138.138,0,0,1,518.771,252.83Z" transform="translate(-518.033 -251.047)"/></g><g transform="translate(43.086 4.726)"><path class="av" d="M519.312,254.478a.276.276,0,0,1-.377-.1l-1.293-2.246.481-.276,1.293,2.246A.274.274,0,0,1,519.312,254.478Z" transform="translate(-516.793 -251.855)"/><path class="av" d="M518.1,253.213a.138.138,0,0,1-.184-.049l-.555-.965.239-.138.555.965A.137.137,0,0,1,518.1,253.213Z" transform="translate(-517.365 -251.43)"/></g><g transform="translate(41.026 5.909)"><path class="av" d="M518.644,254.861a.275.275,0,0,1-.377-.1l-1.293-2.243.478-.276,1.293,2.243A.276.276,0,0,1,518.644,254.861Z" transform="translate(-516.113 -252.241)"/><path class="av" d="M517.441,253.594a.136.136,0,0,1-.19-.043l-.558-.965.239-.138.558.965A.134.134,0,0,1,517.441,253.594Z" transform="translate(-516.693 -251.814)"/></g><g transform="translate(38.976 7.089)"><path class="av" d="M517.981,255.246a.285.285,0,0,1-.386-.1l-1.293-2.243.487-.282,1.293,2.243A.279.279,0,0,1,517.981,255.246Z" transform="translate(-515.45 -252.626)"/><path class="av" d="M516.772,253.979a.136.136,0,0,1-.19-.043l-.558-.965.242-.138.555.965A.131.131,0,0,1,516.772,253.979Z" transform="translate(-516.024 -252.199)"/></g><g transform="translate(36.929 8.275)"><path class="av" d="M517.3,255.633a.273.273,0,0,1-.377-.1l-1.293-2.243.478-.276,1.293,2.243A.276.276,0,0,1,517.3,255.633Z" transform="translate(-514.782 -253.013)"/><path class="av" d="M516.095,254.37a.131.131,0,0,1-.181-.049l-.558-.965.239-.138.558.965A.14.14,0,0,1,516.095,254.37Z" transform="translate(-515.356 -252.59)"/></g><g transform="translate(34.879 9.454)"><path class="av" d="M516.635,256.018a.273.273,0,0,1-.377-.1l-1.293-2.243.478-.276,1.293,2.243A.273.273,0,0,1,516.635,256.018Z" transform="translate(-514.113 -253.398)"/><path class="av" d="M515.426,254.755a.132.132,0,0,1-.181-.049l-.558-.965.239-.138.558.965A.137.137,0,0,1,515.426,254.755Z" transform="translate(-514.687 -252.975)"/></g><g transform="translate(32.822 10.634)"><path class="av" d="M515.966,256.406a.274.274,0,0,1-.377-.1l-1.293-2.243.481-.276,1.293,2.243A.278.278,0,0,1,515.966,256.406Z" transform="translate(-513.438 -253.783)"/><path class="av" d="M514.764,255.139a.14.14,0,0,1-.193-.046l-.555-.965.239-.138.558.965A.141.141,0,0,1,514.764,255.139Z" transform="translate(-514.016 -253.356)"/></g><g transform="translate(30.772 11.814)"><path class="av" d="M515.3,256.791a.282.282,0,0,1-.386-.1l-1.293-2.243.487-.282,1.293,2.246A.283.283,0,0,1,515.3,256.791Z" transform="translate(-512.773 -254.168)"/><path class="av" d="M514.095,255.524a.138.138,0,0,1-.19-.043l-.558-.968.239-.138.558.968A.135.135,0,0,1,514.095,255.524Z" transform="translate(-513.347 -253.741)"/></g><g transform="translate(28.722 13)"><path class="av" d="M514.626,257.178a.276.276,0,0,1-.377-.1l-1.293-2.246.481-.276,1.29,2.243A.276.276,0,0,1,514.626,257.178Z" transform="translate(-512.104 -254.555)"/><path class="av" d="M513.417,255.915a.138.138,0,0,1-.181-.049l-.558-.968.242-.138.555.968A.136.136,0,0,1,513.417,255.915Z" transform="translate(-512.678 -254.132)"/></g><g transform="translate(26.675 14.18)"><path class="av" d="M513.958,257.563a.28.28,0,0,1-.38-.1l-1.29-2.246.478-.276,1.293,2.246A.276.276,0,0,1,513.958,257.563Z" transform="translate(-511.436 -254.94)"/><path class="av" d="M512.749,256.3a.134.134,0,0,1-.181-.049l-.558-.968.239-.138.558.968A.14.14,0,0,1,512.749,256.3Z" transform="translate(-512.01 -254.517)"/></g><g transform="translate(24.615 15.363)"><path class="av" d="M513.289,257.946a.276.276,0,0,1-.377-.1l-1.293-2.246.478-.273,1.293,2.243A.276.276,0,0,1,513.289,257.946Z" transform="translate(-510.758 -255.326)"/><path class="av" d="M512.086,256.681a.139.139,0,0,1-.19-.043l-.558-.969.239-.138.558.968A.135.135,0,0,1,512.086,256.681Z" transform="translate(-511.338 -254.901)"/></g><g transform="translate(22.568 16.543)"><path class="av" d="M512.624,258.331a.285.285,0,0,1-.386-.1l-1.29-2.246.487-.279,1.293,2.243A.281.281,0,0,1,512.624,258.331Z" transform="translate(-510.096 -255.711)"/><path class="av" d="M511.418,257.066a.139.139,0,0,1-.193-.043l-.555-.968.239-.138.558.968A.137.137,0,0,1,511.418,257.066Z" transform="translate(-510.67 -255.286)"/></g><g transform="translate(20.518 17.726)"><path class="av" d="M511.949,258.72a.275.275,0,0,1-.377-.1l-1.293-2.243.478-.279,1.293,2.246A.276.276,0,0,1,511.949,258.72Z" transform="translate(-509.427 -256.097)"/><path class="av" d="M510.74,257.455a.134.134,0,0,1-.181-.049l-.558-.965.239-.138.558.965A.138.138,0,0,1,510.74,257.455Z" transform="translate(-510.001 -255.672)"/></g><g transform="translate(18.468 18.909)"><path class="av" d="M511.28,259.1a.273.273,0,0,1-.377-.1l-1.293-2.243.481-.276,1.29,2.243A.273.273,0,0,1,511.28,259.1Z" transform="translate(-508.758 -256.483)"/><path class="av" d="M510.074,257.84a.135.135,0,0,1-.184-.049l-.558-.965.242-.138.555.965A.137.137,0,0,1,510.074,257.84Z" transform="translate(-509.332 -256.06)"/></g><g transform="translate(16.411 20.089)"><path class="av" d="M510.612,259.488a.273.273,0,0,1-.377-.1l-1.293-2.243.478-.276,1.293,2.243A.275.275,0,0,1,510.612,259.488Z" transform="translate(-508.081 -256.868)"/><path class="av" d="M509.409,258.221a.136.136,0,0,1-.19-.043l-.558-.965.239-.138.558.965A.134.134,0,0,1,509.409,258.221Z" transform="translate(-508.661 -256.441)"/></g><g transform="translate(14.361 21.269)"><path class="av" d="M509.949,259.876a.286.286,0,0,1-.386-.1l-1.293-2.243.487-.282,1.293,2.243A.284.284,0,0,1,509.949,259.876Z" transform="translate(-507.418 -257.253)"/><path class="av" d="M508.74,258.609a.137.137,0,0,1-.19-.046l-.558-.965.239-.138.558.965A.138.138,0,0,1,508.74,258.609Z" transform="translate(-507.992 -256.826)"/></g><g transform="translate(12.314 22.455)"><path class="av" d="M509.272,260.26a.276.276,0,0,1-.38-.1l-1.29-2.243.478-.276,1.293,2.243A.275.275,0,0,1,509.272,260.26Z" transform="translate(-506.75 -257.64)"/><path class="av" d="M508.063,259a.138.138,0,0,1-.184-.046l-.555-.968.239-.138.558.965A.14.14,0,0,1,508.063,259Z" transform="translate(-507.324 -257.217)"/></g><g transform="translate(10.264 23.635)"><path class="av" d="M508.6,260.645a.271.271,0,0,1-.377-.1l-1.293-2.243.478-.276,1.293,2.243A.275.275,0,0,1,508.6,260.645Z" transform="translate(-506.081 -258.025)"/><path class="av" d="M507.394,259.385a.138.138,0,0,1-.181-.049l-.558-.968.239-.138.558.968A.138.138,0,0,1,507.394,259.385Z" transform="translate(-506.655 -257.602)"/></g><g transform="translate(8.207 24.814)"><path class="av" d="M507.934,261.033a.276.276,0,0,1-.377-.1l-1.293-2.246.481-.276,1.293,2.246A.277.277,0,0,1,507.934,261.033Z" transform="translate(-505.406 -258.41)"/><path class="av" d="M506.729,259.766a.139.139,0,0,1-.19-.043l-.555-.968.239-.138.555.968A.132.132,0,0,1,506.729,259.766Z" transform="translate(-505.984 -257.983)"/></g><g transform="translate(6.157 25.994)"><path class="av" d="M507.272,261.418a.282.282,0,0,1-.386-.1l-1.293-2.243.487-.282,1.293,2.246A.283.283,0,0,1,507.272,261.418Z" transform="translate(-504.741 -258.795)"/><path class="av" d="M506.063,260.151a.138.138,0,0,1-.19-.043l-.558-.969.239-.138.558.968A.135.135,0,0,1,506.063,260.151Z" transform="translate(-505.315 -258.368)"/></g><g transform="translate(4.107 27.18)"><path class="av" d="M506.594,261.805a.276.276,0,0,1-.377-.1l-1.293-2.246.478-.276,1.293,2.246A.273.273,0,0,1,506.594,261.805Z" transform="translate(-504.072 -259.182)"/><path class="av" d="M505.385,260.542a.138.138,0,0,1-.181-.049l-.558-.968.239-.138.558.968A.135.135,0,0,1,505.385,260.542Z" transform="translate(-504.646 -258.759)"/></g><g transform="translate(2.059 28.36)"><path class="av" d="M505.926,262.19a.279.279,0,0,1-.38-.1l-1.29-2.246.478-.276,1.293,2.246A.276.276,0,0,1,505.926,262.19Z" transform="translate(-503.404 -259.567)"/><path class="av" d="M504.717,260.925a.137.137,0,0,1-.184-.049l-.555-.965.239-.138.558.965A.14.14,0,0,1,504.717,260.925Z" transform="translate(-503.978 -259.142)"/></g><g transform="translate(0 29.543)"><path class="av" d="M505.257,262.573a.276.276,0,0,1-.377-.1l-1.293-2.243.478-.276,1.293,2.243A.276.276,0,0,1,505.257,262.573Z" transform="translate(-502.726 -259.953)"/><path class="av" d="M504.054,261.308a.136.136,0,0,1-.19-.043l-.558-.968.239-.138.558.969A.134.134,0,0,1,504.054,261.308Z" transform="translate(-503.306 -259.528)"/></g></g><g transform="translate(52.35 352.105)"><path class="d" d="M633.191,373.077c0,4.75-25.6,8.6-57.183,8.6s-57.177-3.852-57.177-8.6,25.6-8.6,57.177-8.6S633.191,368.327,633.191,373.077Z" transform="translate(-518.831 -364.475)"/></g><g transform="translate(107.554 342.454)"><path class="af" d="M542.31,361.326s.193,7.867.34,9.874,6.537,2.154,7.279,1.112,1.115-10.251,1.115-10.251" transform="translate(-525.559 -361.326)"/><path class="an" d="M562.9,368.667a42.582,42.582,0,0,1-.582,5.5h-7.361l-.362-1.229a11.575,11.575,0,0,1-4.263,1.229h-6.212c-4.548,0-7.131-.579-7.248-1.379-.481-3.347,4.956-3.193,6.368-3.193,4.064,0,8.462-1.9,9.421-3.966.7-1.5.389-1.872,1.229-1.594a2.1,2.1,0,0,1,1.263,1.088,3.731,3.731,0,0,0,3.837,2.1,4.448,4.448,0,0,0,2.489-1.2A2.685,2.685,0,0,1,562.9,368.667Z" transform="translate(-536.844 -355.912)"/></g><g transform="translate(87.188 335.936)"><path class="af" d="M533.879,363.6a60.368,60.368,0,0,0,2.243,7.2c.882,1.808,6.871-.42,7.174-1.661s-2.761-9.932-2.761-9.932" transform="translate(-522.6 -359.199)"/><path class="an" d="M553.12,364.078c.776,1.94,1.922,5.706,1.922,5.706l-5.581,3.325-1.094-.824a10.84,10.84,0,0,1-2.936,3.068,24.046,24.046,0,0,1-5.522,2.289c-5.1,1.165-9.038.6-9.442-.1-1.682-2.93,5.072-4.539,6.387-5.063a9.109,9.109,0,0,0,5.63-7.432c.092-1.649-.334-1.888.549-1.937a2.106,2.106,0,0,1,1.575.542,3.728,3.728,0,0,0,4.343.524,4.451,4.451,0,0,0,1.866-2.035A2.687,2.687,0,0,1,553.12,364.078Z" transform="translate(-530.199 -353.125)"/></g><path class="aw" d="M546.706,365.271c2.645-1.952,5.529-4.146,8.268-6.433,6.243-5.244,11.82-10.938,12.51-15.084,1.526-9.3.334-36.911-.4-49.945-.025-.788-.071-1.526-.12-2.219-.739-12.32-7.361-17.775-10.674-19.776-1.692,16.013-5.5,52.16-5.814,54.021C550.065,328.216,546.706,365.271,546.706,365.271Z" transform="translate(-408.928 -203.683)"/><path class="av" d="M546.7,352.973c2.645-1.952,5.529-4.146,8.268-6.433.236-10.184,3.267-24.4,7.533-42.2,5.063-22.439,1.879-26.567,1.879-26.567l-10.175,1.548c-1.692,15.847-3.527,32.957-3.742,34.22C550.063,315.919,546.7,352.973,546.7,352.973Z" transform="translate(-408.933 -191.386)"/><path class="ah" d="M539.293,388.045c.582,11.379,1.557,23.126,3.16,31.3,1.355,6.944,23.181,8.219,20.374,2.869-4.049-7.769,3.016-32.133,6.485-73.671.5-6.286,3.328-7.009,5.2-19.939,1.851-12.954-5.268-24.18-5.268-24.18l-30.291-2.813-.389,37.726L538.45,352.1S538.38,369.6,539.293,388.045Z" transform="translate(-425.977 -142.158)"/><path class="ah" d="M557.941,346.823s5.924,7.257,5.1,20.573-5.461,53.049-5.461,53.049-6.951,1.027-10.533-.3c0,0-7.493-73.7-7.524-82.062S557.941,346.823,557.941,346.823Z" transform="translate(-423.761 -71.616)"/><path class="aj" d="M539.293,380.183c1.915-6.135,5.685-17.861,8.8-24.487,4.346-9.261,8.587-13.3,8.587-13.3,15.369-16.126,4.8-36.978,4.8-36.978s-12.513,10.368-13.386,11.44c-.827,1.005-5.832,9.807-9.525,14.615l-.116,12.758S538.38,361.737,539.293,380.183Z" transform="translate(-425.977 -134.296)"/><path class="ah" d="M530.98,328.2s-6.868,22.6-5.78,29.684,26.206,73.362,26.206,73.362a25.324,25.324,0,0,0,10.073-2.495s-.539-29.176-5.467-47.432-10.647-29.43-15.553-31.063S532.34,331.993,530.98,328.2Z" transform="translate(-453.573 -87.274)"/><path class="ak" d="M544.7,332.576s-7.45,11.863-2.865,22.51-7.677,8.875-7.677,8.875-6.132-17.848-4.769-20.162,6.4-10.083,8.039-10.49A70.639,70.639,0,0,1,544.7,332.576Z" transform="translate(-445.09 -78.23)"/><path class="ah" d="M543.977,302.583s-15.933,73.772-18.014,93.65c-.883,8.428,7.974,22.35,16.151,14.729,9.755-9.1,25.556-50.744,30.459-58.1s23.258-14.1,10.723-51.428" transform="translate(-451.881 -142.534)"/><path class="af" d="M567.609,301.867s-2.179-7.383-1.226-12.832,4.223-15.262,3-22.617-10.49-13.487-20.3-12.534-12.669,10.355-14.306,15.8-1.361,13.76-.953,18.256,2.863,8.039,4.5,8.992,7.787-.3,8.866.87,1.9,8.121,1.9,8.121" transform="translate(-436.173 -240.904)"/><path class="aw" d="M566.821,276.215s-.545-4.306-2.182-5.832-12.535-1.526-15.8-1.116-11.333,4.168-12.4,4.962,1.036,4.931,1.036,4.931Z" transform="translate(-430.751 -209.42)"/><path class="af" d="M509,259.646c.077-.772,1.076-.4,1.336.233a4.476,4.476,0,0,1,.144.552c-.1-1.275-.162-2.314-.138-2.568.073-.733,1-.466,1.315.107-.021-.512-.034-.9-.018-1.063.077-.941,1.085-.558,1.345.218a11.664,11.664,0,0,1,.236,1.3,6,6,0,0,1-.012-.714c.08-.775.969-.582,1.229.055a9.629,9.629,0,0,1,.279,1.5c.123.775.349,1.606.457,2.384a16.065,16.065,0,0,0,.5,2.21,9.672,9.672,0,0,0,3.579,2.764l2.124-1.152a27.854,27.854,0,0,1,.512,4.928c-.141,1.143-.978,2.574-.88,3.264a16.649,16.649,0,0,0,.88,2.525l-5.863,2.433s-.785-3.5-1.572-4.315a47.089,47.089,0,0,1-4-4.815,25.426,25.426,0,0,1-.883-2.905l-.414-2.185-.187-2.13S508.976,259.9,509,259.646Z" transform="translate(-486.84 -235.606)"/><path class="aw" d="M510.939,264.636s1.977,11.462,3.932,20.634c1.548,7.079,3.478,14.465,6.84,21.137.021.049.021.119.046.169,1.931,4.192,5.529,9.316,7.983,9.841s11.057-.049,11.057-.049c5.335.31,18.753-1.453,30.165-2.979.193-.021.359-.046.524-.07,5.314-.714,10.178-1.358,13.512-1.716a6.983,6.983,0,0,0,4.122-1.833,6.27,6.27,0,0,0,2-3.457c.025-.025.025-.025.025-.049.763-3.693-1.667-6.647-4.812-8.814a4.662,4.662,0,0,0-.454-.288c3.883-3.858,7.864-8.078,7.864-8.078s-10.962.527-17.085.932c-4.171.285-32.623,7.885-36.031,8.958-.26.1-.5.193-.739.264a10.636,10.636,0,0,0-1.073.19c-.19.049-.429.144-.665.215a35.138,35.138,0,0,0-4.146-7.793c-6.1-8.578-16.013-29.356-16.013-29.356l-5.529,1.646-.074.021-.021.025Z" transform="translate(-482.775 -222.931)"/><path class="ah" d="M565.647,296.548s-13.626,1.159-16.212,0-6.338-3.677-6.678-8.308.613-6.065-1.158-8.651-3.337-1.7-3.61.748-.38,6.883-1.021,7.208c-.867.438-1.9-2.682-1.566-7.413.288-4.1.748-7.288,1.974-10.012s1.891-2.571,3-3.065c-1.192-.579-2.479-.647-4.836-4.327-2.728-4.257-1.226-10.892,5.994-10.864,12.614.049,26.022,2.519,26.295,11.854,0,0,4.428-.683,4.563,7.833s-5.314,18.8-5.722,21.459S567.008,295.935,565.647,296.548Z" transform="translate(-434.618 -244.877)"/><path class="aw" d="M535.808,357.6c-.5,4.263-4.242,10.864-1.692,11.793,1.024.359,5.195.12,10.294-.31h.144c.095,0,.166-.021.236-.021,4.53-.383,9.7-.883,14.036-1.217,17.324-.739,26.166,2.715,27.9,1.741.834-.5.858-2,.6-3.552a40.309,40.309,0,0,1-.288-11.486c.429-3.215,1.027-7.052,1.86-11.437,2.859-15.179,8.458-38.363,9.292-52.3,1.336-21.851-22.065-19.776-22.065-19.776-29.785-1.86-43.772,6.718-45.394,19.516-.12.9-.19,1.882-.264,2.905-.76,13.2,3.267,34.5,5.173,50.423A80.037,80.037,0,0,1,535.808,357.6Z" transform="translate(-442.646 -205.827)"/><path class="av" d="M535.811,343.574c-.5,4.263-4.242,10.864-1.692,11.793,1.024.359,5.195.12,10.294-.31-4.6.334-5.458-3.193-4.432-5.55a33.725,33.725,0,0,0,2.954-14.107c-.215-6.341-2.6-20.637-4-34.146a109.723,109.723,0,0,1-.024-23.687c-.714,1.428-2.764,3.429-8.532,4.766-.12,13.273,3.5,32.715,5.268,47.514A80.037,80.037,0,0,1,535.811,343.574Z" transform="translate(-442.648 -191.803)"/></g><g transform="translate(166.962 116.349)"><g transform="translate(0 47.389)"><path class="at" d="M491.329,262.786,524.556,183.5l-24.686,5-.389.064-49.359,9.991-.837.153-49.73,10.067-.833.153-24.241,4.91Zm8.305-59.056-15.749,37.6L427.98,217.9Z" transform="translate(-374.48 -183.5)"/><g transform="translate(13.509 2.734)"><g class="am" transform="translate(0 24.52)"><g transform="translate(0 0.236)"><path class="ax" d="M378.888,192.577l.536-.107.726,3.595a.273.273,0,1,1-.533.11Z" transform="translate(-378.888 -192.47)"/></g><g transform="translate(1.309)"><path class="ax" d="M379.315,192.473l.386-.08.359,1.768a.2.2,0,0,1-.386.08Z" transform="translate(-379.315 -192.393)"/></g></g><g class="am" transform="translate(2.528 24.008)"><g transform="translate(0 0.236)"><path class="ax" d="M379.713,192.41l.533-.107.729,3.595a.274.274,0,1,1-.536.11Z" transform="translate(-379.713 -192.303)"/></g><g transform="translate(1.306)"><path class="ax" d="M380.139,192.306l.389-.08.355,1.768a.2.2,0,1,1-.386.08Z" transform="translate(-380.139 -192.226)"/></g></g><g class="am" transform="translate(5.054 23.497)"><g transform="translate(0 0.236)"><path class="ax" d="M380.537,192.243l.536-.107.726,3.6a.272.272,0,1,1-.533.107Z" transform="translate(-380.537 -192.136)"/></g><g transform="translate(1.309)"><path class="ax" d="M380.964,192.139l.386-.08.359,1.768a.2.2,0,0,1-.386.08Z" transform="translate(-380.964 -192.059)"/></g></g><g class="am" transform="translate(7.582 22.985)"><g transform="translate(0 0.236)"><path class="ax" d="M381.362,192.076l.533-.107.729,3.6a.281.281,0,0,1-.211.334.286.286,0,0,1-.325-.227Z" transform="translate(-381.362 -191.969)"/></g><g transform="translate(1.321)"><path class="ax" d="M381.793,191.969l.371-.077.359,1.771a.2.2,0,0,1-.153.23.187.187,0,0,1-.218-.156Z" transform="translate(-381.793 -191.892)"/></g></g><g class="am" transform="translate(10.107 22.476)"><g transform="translate(0 0.23)"><path class="ax" d="M382.186,191.911l.549-.11.729,3.6a.3.3,0,0,1-.224.34.285.285,0,0,1-.325-.23Z" transform="translate(-382.186 -191.801)"/></g><g transform="translate(1.324)"><path class="ax" d="M382.618,191.8l.371-.074.359,1.768a.2.2,0,0,1-.156.23.187.187,0,0,1-.218-.156Z" transform="translate(-382.618 -191.726)"/></g></g><g class="am" transform="translate(12.636 21.98)"><g transform="translate(0 0.23)"><path class="ax" d="M383.011,191.752l.552-.113.726,3.583a.294.294,0,0,1-.227.34.284.284,0,0,1-.325-.23Z" transform="translate(-383.011 -191.639)"/></g><g transform="translate(1.324)"><path class="ax" d="M383.443,191.638l.371-.074.355,1.753a.187.187,0,0,1-.138.23.205.205,0,0,1-.233-.156Z" transform="translate(-383.443 -191.564)"/></g></g><g class="am" transform="translate(15.164 21.468)"><g transform="translate(0 0.23)"><path class="ax" d="M383.836,191.582l.549-.11.726,3.583a.284.284,0,0,1-.212.337.289.289,0,0,1-.34-.227Z" transform="translate(-383.836 -191.472)"/></g><g transform="translate(1.321)"><path class="ax" d="M384.267,191.471l.374-.074L385,193.15a.192.192,0,0,1-.141.23.2.2,0,0,1-.233-.156Z" transform="translate(-384.267 -191.397)"/></g></g><g class="am" transform="translate(17.689 20.953)"><g transform="translate(0 0.233)"><path class="ax" d="M384.66,191.418l.552-.113.723,3.583a.285.285,0,0,1-.208.337.3.3,0,0,1-.34-.224Z" transform="translate(-384.66 -191.305)"/></g><g transform="translate(1.324)"><path class="ax" d="M385.092,191.306l.386-.077.356,1.753a.2.2,0,0,1-.153.233.2.2,0,0,1-.233-.153Z" transform="translate(-385.092 -191.229)"/></g></g><g class="am" transform="translate(20.233 20.441)"><g transform="translate(0 0.236)"><path class="ax" d="M385.49,191.246l.533-.107.726,3.58a.274.274,0,1,1-.536.107Z" transform="translate(-385.49 -191.139)"/></g><g transform="translate(1.306)"><path class="ax" d="M385.916,191.139l.389-.077.352,1.753a.2.2,0,1,1-.386.08Z" transform="translate(-385.916 -191.062)"/></g></g><g class="am" transform="translate(22.758 19.929)"><g transform="translate(0 0.236)"><path class="ax" d="M386.314,191.079l.536-.107.723,3.579a.273.273,0,1,1-.533.11Z" transform="translate(-386.314 -190.972)"/></g><g transform="translate(1.309)"><path class="ax" d="M386.741,190.975l.386-.08.355,1.753a.2.2,0,0,1-.153.233.2.2,0,0,1-.233-.153Z" transform="translate(-386.741 -190.895)"/></g></g><g class="am" transform="translate(25.286 19.418)"><g transform="translate(0 0.236)"><path class="ax" d="M387.139,190.912l.533-.107.726,3.58a.282.282,0,0,1-.211.337.286.286,0,0,1-.325-.227Z" transform="translate(-387.139 -190.805)"/></g><g transform="translate(1.306)"><path class="ax" d="M387.565,190.808l.386-.08.355,1.753a.2.2,0,0,1-.386.08Z" transform="translate(-387.565 -190.728)"/></g></g><g class="am" transform="translate(27.812 18.906)"><g transform="translate(0 0.236)"><path class="ax" d="M387.963,190.745l.536-.107.723,3.583a.272.272,0,1,1-.533.107Z" transform="translate(-387.963 -190.638)"/></g><g transform="translate(1.309)"><path class="ax" d="M388.39,190.641l.386-.08.356,1.753a.2.2,0,0,1-.156.233.2.2,0,0,1-.23-.153Z" transform="translate(-388.39 -190.561)"/></g></g><g class="am" transform="translate(30.337 18.394)"><g transform="translate(0 0.236)"><path class="ax" d="M388.787,190.578l.536-.107.726,3.583a.274.274,0,1,1-.536.107Z" transform="translate(-388.787 -190.471)"/></g><g transform="translate(1.324)"><path class="ax" d="M389.219,190.471l.371-.077.355,1.756a.2.2,0,0,1-.153.23.187.187,0,0,1-.218-.156Z" transform="translate(-389.219 -190.394)"/></g></g><g class="am" transform="translate(32.865 17.882)"><g transform="translate(0 0.233)"><path class="ax" d="M389.612,190.413l.549-.11.726,3.583a.3.3,0,0,1-.227.34.288.288,0,0,1-.325-.23Z" transform="translate(-389.612 -190.303)"/></g><g transform="translate(1.321)"><path class="ax" d="M390.043,190.3l.374-.077.355,1.756a.205.205,0,0,1-.156.233.192.192,0,0,1-.218-.159Z" transform="translate(-390.043 -190.227)"/></g></g><g class="am" transform="translate(35.391 17.37)"><g transform="translate(0 0.233)"><path class="ax" d="M390.436,190.246l.552-.11.723,3.583a.3.3,0,0,1-.224.34.284.284,0,0,1-.325-.23Z" transform="translate(-390.436 -190.136)"/></g><g transform="translate(1.324)"><path class="ax" d="M390.868,190.137l.371-.077.355,1.756a.187.187,0,0,1-.138.23.2.2,0,0,1-.233-.156Z" transform="translate(-390.868 -190.06)"/></g></g><g class="am" transform="translate(37.919 16.862)"><g transform="translate(0 0.23)"><path class="ax" d="M391.261,190.082l.549-.113.726,3.583a.281.281,0,1,1-.552.11Z" transform="translate(-391.261 -189.969)"/></g><g transform="translate(1.321)"><path class="ax" d="M391.692,189.968l.374-.074.352,1.753a.187.187,0,0,1-.138.23.2.2,0,0,1-.233-.156Z" transform="translate(-391.692 -189.894)"/></g></g><g class="am" transform="translate(40.444 16.347)"><g transform="translate(0 0.233)"><path class="ax" d="M392.085,189.915l.552-.113.723,3.583a.285.285,0,0,1-.208.337.3.3,0,0,1-.34-.227Z" transform="translate(-392.085 -189.802)"/></g><g transform="translate(1.324)"><path class="ax" d="M392.517,189.8l.386-.077.355,1.753a.2.2,0,0,1-.156.233.2.2,0,0,1-.23-.153Z" transform="translate(-392.517 -189.726)"/></g></g><g class="am" transform="translate(42.988 15.835)"><g transform="translate(0 0.236)"><path class="ax" d="M392.915,189.743l.533-.107.726,3.58a.274.274,0,1,1-.536.11Z" transform="translate(-392.915 -189.636)"/></g><g transform="translate(1.306)"><path class="ax" d="M393.341,189.636l.386-.077.355,1.753a.2.2,0,1,1-.386.08Z" transform="translate(-393.341 -189.559)"/></g></g><g class="am" transform="translate(45.513 15.323)"><g transform="translate(0 0.236)"><path class="ax" d="M393.739,189.576l.536-.107.723,3.58a.284.284,0,0,1-.212.337.281.281,0,0,1-.322-.227Z" transform="translate(-393.739 -189.469)"/></g><g transform="translate(1.309)"><path class="ax" d="M394.166,189.469l.386-.077.355,1.753a.2.2,0,0,1-.156.233.2.2,0,0,1-.23-.153Z" transform="translate(-394.166 -189.392)"/></g></g><g class="am" transform="translate(48.038 14.811)"><g transform="translate(0 0.236)"><path class="ax" d="M394.563,189.409l.536-.107.726,3.58a.289.289,0,0,1-.211.337.285.285,0,0,1-.325-.227Z" transform="translate(-394.563 -189.302)"/></g><g transform="translate(1.309)"><path class="ax" d="M394.99,189.3l.386-.08.355,1.753a.2.2,0,1,1-.386.08Z" transform="translate(-394.99 -189.225)"/></g></g><g class="am" transform="translate(50.567 14.3)"><g transform="translate(0 0.236)"><path class="ax" d="M395.388,189.242l.533-.107.726,3.583a.281.281,0,0,1-.211.334.286.286,0,0,1-.325-.227Z" transform="translate(-395.388 -189.135)"/></g><g transform="translate(1.309)"><path class="ax" d="M395.815,189.138l.386-.08.355,1.756a.2.2,0,0,1-.156.23.2.2,0,0,1-.233-.153Z" transform="translate(-395.815 -189.058)"/></g></g><g class="am" transform="translate(53.092 13.788)"><g transform="translate(0 0.236)"><path class="ax" d="M396.212,189.075l.536-.107.723,3.583a.272.272,0,1,1-.533.107Z" transform="translate(-396.212 -188.968)"/></g><g transform="translate(1.324)"><path class="ax" d="M396.644,188.968l.371-.077.355,1.756a.2.2,0,0,1-.153.23.187.187,0,0,1-.218-.156Z" transform="translate(-396.644 -188.891)"/></g></g><g class="am" transform="translate(55.62 13.276)"><g transform="translate(0 0.233)"><path class="ax" d="M397.037,188.91l.549-.11.726,3.583a.3.3,0,0,1-.227.34.288.288,0,0,1-.325-.23Z" transform="translate(-397.037 -188.8)"/></g><g transform="translate(1.321)"><path class="ax" d="M397.468,188.8l.374-.077.352,1.756a.2.2,0,0,1-.153.23.187.187,0,0,1-.218-.156Z" transform="translate(-397.468 -188.724)"/></g></g><g class="am" transform="translate(58.146 12.767)"><g transform="translate(0 0.23)"><path class="ax" d="M397.861,188.743l.552-.11.723,3.583a.3.3,0,0,1-.224.34.287.287,0,0,1-.325-.23Z" transform="translate(-397.861 -188.633)"/></g><g transform="translate(1.324)"><path class="ax" d="M398.293,188.632l.371-.074.355,1.753a.189.189,0,0,1-.141.23.2.2,0,0,1-.23-.156Z" transform="translate(-398.293 -188.558)"/></g></g><g class="am" transform="translate(60.674 12.256)"><g transform="translate(0 0.23)"><path class="ax" d="M398.686,188.576l.548-.11.726,3.583a.281.281,0,1,1-.552.11Z" transform="translate(-398.686 -188.466)"/></g><g transform="translate(1.321)"><path class="ax" d="M399.117,188.465l.371-.073.355,1.753a.187.187,0,0,1-.138.23.2.2,0,0,1-.233-.156Z" transform="translate(-399.117 -188.391)"/></g></g><g class="am" transform="translate(63.202 11.756)"><g transform="translate(0 0.233)"><path class="ax" d="M399.511,188.417l.552-.113.72,3.567a.284.284,0,0,1-.212.337.294.294,0,0,1-.337-.227Z" transform="translate(-399.511 -188.304)"/></g><g transform="translate(1.324)"><path class="ax" d="M399.943,188.3l.386-.077.352,1.738a.205.205,0,0,1-.156.233.2.2,0,0,1-.23-.156Z" transform="translate(-399.943 -188.228)"/></g></g><g class="am" transform="translate(65.743 11.244)"><g transform="translate(0 0.233)"><path class="ax" d="M400.34,188.247l.536-.11.723,3.567a.289.289,0,0,1-.211.337.285.285,0,0,1-.325-.227Z" transform="translate(-400.34 -188.137)"/></g><g transform="translate(1.309)"><path class="ax" d="M400.767,188.138l.386-.077.352,1.738a.2.2,0,0,1-.386.08Z" transform="translate(-400.767 -188.061)"/></g></g><g class="am" transform="translate(68.271 10.732)"><g transform="translate(0 0.233)"><path class="ax" d="M401.165,188.08l.533-.11.723,3.567a.274.274,0,1,1-.536.11Z" transform="translate(-401.165 -187.97)"/></g><g transform="translate(1.309)"><path class="ax" d="M401.592,187.971l.386-.077.352,1.738a.205.205,0,0,1-.156.233.2.2,0,0,1-.233-.153Z" transform="translate(-401.592 -187.894)"/></g></g><g class="am" transform="translate(70.797 10.221)"><g transform="translate(0 0.236)"><path class="ax" d="M401.989,187.911l.536-.107.72,3.564a.273.273,0,1,1-.533.11Z" transform="translate(-401.989 -187.804)"/></g><g transform="translate(1.309)"><path class="ax" d="M402.416,187.8l.386-.077.352,1.738a.2.2,0,0,1-.386.08Z" transform="translate(-402.416 -187.727)"/></g></g><g class="am" transform="translate(73.325 9.709)"><g transform="translate(0 0.236)"><path class="ax" d="M402.814,187.744l.533-.107.723,3.567a.283.283,0,0,1-.211.334.286.286,0,0,1-.325-.227Z" transform="translate(-402.814 -187.637)"/></g><g transform="translate(1.306)"><path class="ax" d="M403.24,187.64l.389-.08.349,1.738a.2.2,0,1,1-.386.08Z" transform="translate(-403.24 -187.56)"/></g></g><g class="am" transform="translate(75.85 9.197)"><g transform="translate(0 0.236)"><path class="ax" d="M403.638,187.577l.536-.107.72,3.567a.281.281,0,0,1-.208.334.285.285,0,0,1-.325-.227Z" transform="translate(-403.638 -187.47)"/></g><g transform="translate(1.324)"><path class="ax" d="M404.07,187.47l.371-.077.352,1.741a.2.2,0,0,1-.153.23.187.187,0,0,1-.218-.156Z" transform="translate(-404.07 -187.393)"/></g></g><g class="am" transform="translate(78.378 8.685)"><g transform="translate(0 0.233)"><path class="ax" d="M404.463,187.412l.549-.11.723,3.567a.3.3,0,0,1-.227.34.288.288,0,0,1-.325-.23Z" transform="translate(-404.463 -187.302)"/></g><g transform="translate(1.321)"><path class="ax" d="M404.894,187.3l.371-.077.352,1.741a.2.2,0,0,1-.153.23.187.187,0,0,1-.218-.156Z" transform="translate(-404.894 -187.226)"/></g></g><g class="am" transform="translate(80.904 8.173)"><g transform="translate(0 0.233)"><path class="ax" d="M405.287,187.245l.549-.11.723,3.567a.3.3,0,0,1-.224.34.285.285,0,0,1-.325-.23Z" transform="translate(-405.287 -187.135)"/></g><g transform="translate(1.324)"><path class="ax" d="M405.719,187.136l.371-.077.352,1.741a.189.189,0,0,1-.141.23.2.2,0,0,1-.23-.156Z" transform="translate(-405.719 -187.059)"/></g></g><g class="am" transform="translate(83.432 7.662)"><g transform="translate(0 0.233)"><path class="ax" d="M406.112,187.078l.549-.11.723,3.567a.281.281,0,1,1-.552.11Z" transform="translate(-406.112 -186.968)"/></g><g transform="translate(1.321)"><path class="ax" d="M406.543,186.969l.371-.077.352,1.741a.187.187,0,0,1-.138.23.2.2,0,0,1-.233-.156Z" transform="translate(-406.543 -186.892)"/></g></g><g class="am" transform="translate(85.957 7.15)"><g transform="translate(0 0.233)"><path class="ax" d="M406.936,186.911l.549-.11.723,3.567a.284.284,0,0,1-.211.337.3.3,0,0,1-.337-.227Z" transform="translate(-406.936 -186.801)"/></g><g transform="translate(1.324)"><path class="ax" d="M407.368,186.8l.386-.077.352,1.738a.2.2,0,0,1-.389.08Z" transform="translate(-407.368 -186.725)"/></g></g><g class="am" transform="translate(88.498 6.638)"><g transform="translate(0 0.233)"><path class="ax" d="M407.765,186.744l.536-.11.72,3.567a.272.272,0,1,1-.533.107Z" transform="translate(-407.765 -186.634)"/></g><g transform="translate(1.309)"><path class="ax" d="M408.192,186.635l.386-.077.353,1.738a.2.2,0,0,1-.386.08Z" transform="translate(-408.192 -186.558)"/></g></g><g class="am" transform="translate(91.026 6.126)"><g transform="translate(0 0.233)"><path class="ax" d="M408.59,186.577l.533-.11.723,3.567a.274.274,0,1,1-.536.11Z" transform="translate(-408.59 -186.467)"/></g><g transform="translate(1.306)"><path class="ax" d="M409.016,186.468l.389-.077.349,1.738a.2.2,0,1,1-.386.08Z" transform="translate(-409.016 -186.391)"/></g></g><g class="am" transform="translate(93.552 5.614)"><g transform="translate(0 0.236)"><path class="ax" d="M409.414,186.408l.536-.107.72,3.564a.273.273,0,1,1-.533.11Z" transform="translate(-409.414 -186.301)"/></g><g transform="translate(1.309)"><path class="ax" d="M409.841,186.3l.386-.077.352,1.738a.2.2,0,0,1-.153.233.2.2,0,0,1-.233-.153Z" transform="translate(-409.841 -186.224)"/></g></g><g class="am" transform="translate(96.08 5.103)"><g transform="translate(0 0.236)"><path class="ax" d="M410.239,186.241l.533-.107.723,3.567a.281.281,0,0,1-.211.334.286.286,0,0,1-.325-.227Z" transform="translate(-410.239 -186.134)"/></g><g transform="translate(1.306)"><path class="ax" d="M410.665,186.137l.386-.08.352,1.738a.2.2,0,1,1-.386.08Z" transform="translate(-410.665 -186.057)"/></g></g><g class="am" transform="translate(98.605 4.591)"><g transform="translate(0 0.236)"><path class="ax" d="M411.063,186.074l.536-.107.72,3.567a.272.272,0,1,1-.533.107Z" transform="translate(-411.063 -185.967)"/></g><g transform="translate(1.324)"><path class="ax" d="M411.495,185.967l.371-.077.352,1.741a.2.2,0,0,1-.156.23.189.189,0,0,1-.218-.156Z" transform="translate(-411.495 -185.89)"/></g></g><g class="am" transform="translate(101.13 4.079)"><g transform="translate(0 0.233)"><path class="ax" d="M411.887,185.909l.552-.11.72,3.567a.3.3,0,0,1-.224.34.288.288,0,0,1-.325-.23Z" transform="translate(-411.887 -185.799)"/></g><g transform="translate(1.324)"><path class="ax" d="M412.319,185.8l.371-.077.352,1.741a.2.2,0,0,1-.153.233.192.192,0,0,1-.218-.159Z" transform="translate(-412.319 -185.723)"/></g></g><g class="am" transform="translate(103.659 3.567)"><g transform="translate(0 0.233)"><path class="ax" d="M412.712,185.742l.549-.11.723,3.567a.3.3,0,0,1-.227.34.281.281,0,0,1-.322-.23Z" transform="translate(-412.712 -185.632)"/></g><g transform="translate(1.324)"><path class="ax" d="M413.144,185.633l.371-.077.352,1.741a.192.192,0,0,1-.141.23.2.2,0,0,1-.233-.156Z" transform="translate(-413.144 -185.556)"/></g></g><g class="am" transform="translate(106.184 3.059)"><g transform="translate(0 0.23)"><path class="ax" d="M413.536,185.575l.552-.11.72,3.567a.28.28,0,1,1-.549.11Z" transform="translate(-413.536 -185.465)"/></g><g transform="translate(1.324)"><path class="ax" d="M413.968,185.464l.371-.074.353,1.738a.188.188,0,0,1-.138.23.2.2,0,0,1-.233-.156Z" transform="translate(-413.968 -185.39)"/></g></g><g class="am" transform="translate(108.712 2.544)"><g transform="translate(0 0.233)"><path class="ax" d="M414.361,185.408l.549-.11.723,3.567a.284.284,0,0,1-.211.337.3.3,0,0,1-.34-.227Z" transform="translate(-414.361 -185.298)"/></g><g transform="translate(1.321)"><path class="ax" d="M414.792,185.3l.389-.077.349,1.738a.2.2,0,1,1-.386.08Z" transform="translate(-414.792 -185.222)"/></g></g><g class="am" transform="translate(111.253 2.047)"><g transform="translate(0 0.218)"><path class="ax" d="M415.19,185.241l.536-.11.72,3.567a.273.273,0,1,1-.533.11Z" transform="translate(-415.19 -185.131)"/></g><g transform="translate(1.309)"><path class="ax" d="M415.617,185.121l.389-.061.349,1.722a.2.2,0,0,1-.153.233.2.2,0,0,1-.233-.153Z" transform="translate(-415.617 -185.06)"/></g></g><g class="am" transform="translate(113.784 1.535)"><g transform="translate(0 0.233)"><path class="ax" d="M416.016,185.079l.533-.11.72,3.552a.274.274,0,1,1-.536.11Z" transform="translate(-416.016 -184.969)"/></g><g transform="translate(1.306)"><path class="ax" d="M416.442,184.97l.386-.077.349,1.722a.2.2,0,0,1-.386.08Z" transform="translate(-416.442 -184.893)"/></g></g><g class="am" transform="translate(116.31 1.024)"><g transform="translate(0 0.233)"><path class="ax" d="M416.84,184.912l.536-.11.717,3.552a.273.273,0,1,1-.533.11Z" transform="translate(-416.84 -184.802)"/></g><g transform="translate(1.309)"><path class="ax" d="M417.267,184.8l.386-.077.349,1.722a.2.2,0,0,1-.156.233.2.2,0,0,1-.23-.153Z" transform="translate(-417.267 -184.726)"/></g></g><g class="am" transform="translate(118.835 0.512)"><g transform="translate(0 0.233)"><path class="ax" d="M417.664,184.745l.536-.11.72,3.552a.288.288,0,0,1-.211.337.284.284,0,0,1-.325-.227Z" transform="translate(-417.664 -184.635)"/></g><g transform="translate(1.309)"><path class="ax" d="M418.091,184.636l.386-.077.349,1.722a.2.2,0,1,1-.386.08Z" transform="translate(-418.091 -184.559)"/></g></g><g class="am" transform="translate(121.363)"><g transform="translate(0 0.233)"><path class="ax" d="M418.489,184.578l.533-.11.72,3.555a.274.274,0,1,1-.536.107Z" transform="translate(-418.489 -184.468)"/></g><g transform="translate(1.321)"><path class="ax" d="M418.92,184.469l.374-.077.349,1.722a.2.2,0,0,1-.156.233.187.187,0,0,1-.218-.156Z" transform="translate(-418.92 -184.392)"/></g></g></g></g><path class="ay" d="M378.409,197.751c-2.51,19.295,5.424,38.768,13.432,33.4,12.562-8.428,31.207-36.077,33.016-36.16,1.045-.046,2,.591,5.057.644a27.046,27.046,0,0,0,5.455-.821c.31-.074.68-.236.68-.552a.631.631,0,0,0-.313-.472,3.773,3.773,0,0,0-2.21-.558c-.641-.012-1.456-.1-1.63-.714a.971.971,0,0,1,.4-.987,2.89,2.89,0,0,1,1.045-.423c1.98-.506,4.453-.965,6.433-1.474-1.207-.371-2.921-.757-4.146-1.054a15.94,15.94,0,0,0-2.807-.475,37.276,37.276,0,0,0-5.85.224c-2.737.463-3.739,1.1-6.215,2.348a25.449,25.449,0,0,0-4.171,2.813c-3.39,2.654-16.273,17.741-19.078,19.831" transform="translate(-367.343 -126.675)"/><g transform="translate(4.848 112.479)"><path class="ay" d="M407.821,212.392a88.563,88.563,0,0,0-5.915,20.748c-1.354,9.421,3.9,24.45,3.3,35.4-.178,2.133-.46,7.254-1.29,8.789-1.017,1.882-3.267,3.96-3.488,6.47a3.867,3.867,0,0,0,2.5,3.769c1.756.8,2.908-.126,3.54-.07,3.656.313,4.346,2.945,10.625,3.742a10.021,10.021,0,0,0,6.568-1.8,1.341,1.341,0,0,0,.236-1.863c-.377-.542-5.023-1.918-7.128-3.132a12.9,12.9,0,0,1-4.557-5.6c-.346-1.272.552-7.38.944-9.942,2.7-17.649,6.047-42.494,7.842-52.795" transform="translate(-325.771 -188.938)"/><path class="ah" d="M424.774,245.063c.444-.763.546-1.894.116-2.158a35.6,35.6,0,0,0-3.935-2.127c-1.223-.5-3.16-.913-2.473-.582s-.546,1.679-1.686,1.646c-3.932-.11-6.865-2.519-9.111-2.985-3.239-.674-4.012-4.2-4.162-4.784a15.115,15.115,0,0,0-2.89,4.217,7.134,7.134,0,0,0-.432,3.242,7.158,7.158,0,0,1,.4,3.068,6.257,6.257,0,0,0,2.335.729,9.51,9.51,0,0,0,2.5-.04l.248-1.949a9.608,9.608,0,0,1,2,.129,6.655,6.655,0,0,1,3.056,1.538c.481.472.956,1.22,1.566,1.459a13.269,13.269,0,0,0,5.047,1.033C421.574,247.606,424.014,246.362,424.774,245.063Z" transform="translate(-326.386 -144.175)"/><path class="ay" d="M404.526,204.739l-28.464,16.279s1.8,10.69,14.686,13.445c7.475,1.6,19.218-.536,22.32-.38s52.2,1.928,52.2,1.928,4.879,1.067,5.752-2.77c1.37-6.019.012-7.913-4.033-10.594C460.168,218.128,434.107,209.56,404.526,204.739Z" transform="translate(-376.062 -204.739)"/></g><g transform="translate(5.44 114.496)"><path class="az" d="M403.088,215.213a88.638,88.638,0,0,0,.043,21.572c1.3,9.43,11.005,25.182,13.46,35.872.42,2.1,1.563,7.1,1.189,8.8-.46,2.09-2.047,4.707-1.566,7.18a3.873,3.873,0,0,0,3.442,2.936c1.909.282,2.761-.926,3.383-1.048,3.6-.708,4.989,1.63,11.247.665a10.027,10.027,0,0,0,5.814-3.54,1.34,1.34,0,0,0-.285-1.857c-.515-.417-5.357-.457-7.717-1.042a12.9,12.9,0,0,1-5.927-4.128c-.683-1.128-1.508-7.245-1.839-9.816-2.274-17.708-6.748-47.545-7.867-57.94" transform="translate(-322.184 -189.964)"/><path class="ah" d="M431.816,240.527c.218-.855,0-1.974-.484-2.108a36.2,36.2,0,0,0-4.37-.956c-1.312-.144-3.285-.006-2.537.123s-.061,1.765-1.165,2.047c-3.806.981-7.294-.524-9.58-.356-3.3.248-5.014-2.927-5.32-3.448a15.1,15.1,0,0,0-1.615,4.851,7.143,7.143,0,0,0,.481,3.236,7.151,7.151,0,0,1,1.235,2.838,6.273,6.273,0,0,0,2.446.055,9.5,9.5,0,0,0,2.391-.729l-.3-1.94a9.481,9.481,0,0,1,1.955-.429,6.632,6.632,0,0,1,3.362.637,6,6,0,0,0,1.909.965,13.252,13.252,0,0,0,5.136-.4C429.444,243.855,431.445,241.986,431.816,240.527Z" transform="translate(-313.309 -142.566)"/><path class="az" d="M404.716,205.4l-28.461,16.276s1.134,10.359,14.021,13.114c7.475,1.6,19.883-.2,22.982-.046s52.206,1.928,52.206,1.928,4.8,1.03,5.041-2.9c.325-5.247.723-7.784-3.325-10.466C460.358,218.786,434.3,210.218,404.716,205.4Z" transform="translate(-376.255 -205.397)"/></g><path class="ah" d="M382.766,203.005s-8.909,17.346-6.629,24.735,6.626,14.376,18.854,14.468,42.875.092,42.875.092,1.063-8,3.757-12.976a37.875,37.875,0,0,1,7.046-8.875s-31.088-9.58-33.242-11.64-4.269-6.632-4.269-6.632" transform="translate(-371.829 -97.547)"/><path class="aw" d="M384.1,184.129c-3.5,6.166-5.7,14.821-6.473,24.563a75.06,75.06,0,0,0,12.317,1.759" transform="translate(-367.972 -134.812)"/><path class="aw" d="M408.581,182.005c1.63.539,1.021,4.428,2.654,4.971,1.183.392,3.5-.129,4.585.484,5.752,3.242,4.278,9.718,4.974,17.738,2.433,6.157,3.083,11.735,1.14,15.173-2.409,4.269-4.956,5.473-7.913,9.007-2.21,2.645-2.936,8.081-3.39,13.926-.077,1.005.76,2.767.515,3.748-.466,1.876-3.316,2.458-6.5,2.519-7.315.138-18.412-2.522-21.676-2.4-3.077.113-5.976-1.376-5.676-3.193.208-1.266,1.48-1.787,1.98-4.238,1.106-5.4,1.952-18.891,2.813-23.466,2.2-11.716,3.813-20.429,8.618-31.229" transform="translate(-368.716 -139.197)"/><path class="av" d="M401.6,197.031a54.966,54.966,0,0,0-6.638-8.7l-6.252,2.813c2.939,5.639,3.475,12.28,4.824,18.446a14.621,14.621,0,0,0,3.607-.356c.61-.993.38-.5,1.189-1.931A25.247,25.247,0,0,0,401.6,197.031Z" transform="translate(-345.108 -126.132)"/><path class="az" d="M415.992,192.706a31.166,31.166,0,0,0,1.063-8.091c-.181-4.649-.769-11.382-8.492-14.146s-16.246-1.106-18.777,4.465-1.94,14-2.311,18.51-3.674,9.9-3.674,9.9l16.635,7.162s2.715-5.909,3.834-6.617,1.508,2.105,5.213,1.793c1.575-.132,3.255-2.954,4.523-6.43.04-.1.083-.233.12-.343a17.817,17.817,0,0,0,1.98-.169c1.146-.343,1.057-.852.8-1.578A18.752,18.752,0,0,1,415.992,192.706Z" transform="translate(-355.235 -165.724)"/><path class="az" d="M403.123,210.187c.218,1.336,3.377,4.545,5.434,4.781a2.964,2.964,0,0,0,1.922-.362c.956.257,3.84.107,2.513-1.388,2.047,1.22,4.076.809,6.341.325.757-.162.588-1.048-1.155-1.229a8.523,8.523,0,0,1-5.924-3.537c.306-.325.665.12,1.634.116,1.073-.006,1.557-.567,1.514-1.03-.031-.349-1.351-.545-1.658-.683l-3.469-1.563a6.078,6.078,0,0,0-3.494-.668c-.233.021-2.464.521-1.771,1.25" transform="translate(-315.342 -91.897)"/><path class="az" d="M390.436,198.763s8.731,23.53,10.251,25.452c5.979,7.573,29.494,19.494,29.494,19.494s3.653-1.361,2.921-5.13c-7.236-3.181-20.591-17.824-23.512-19.614-1.894-1.158-10.251-29.926-10.251-29.926" transform="translate(-341.536 -124.675)"/><path class="aw" d="M404.048,188.573c-6.322-2.415-12.366-2.427-17.208-7.269-4.91,3.779,5.933,25.63,8.615,26.215,2.74.6,6.307,12.66,6.981,14.3,8.75-.23,11.952-5,11.952-5C410.814,205.837,410.174,190.915,404.048,188.573Z" transform="translate(-351.562 -140.645)"/><path class="ah" d="M415.924,216.56c-.432-1.643-1.676-2.948-1.955-4.628a7.565,7.565,0,0,1,.932-4.98,9.161,9.161,0,0,1,2.164-2.044c3.479-2.743,4.689-5.008,3.524-9.108a11.131,11.131,0,0,1-.591-4.116c.126-1.256.38-2.571,1.731-2.728.941-.11,1.548.116,1.879.91.23.555-.227,4.533,1.091,2.28,1.263-2.158,2.384-2.32,2.326-7.294-.009-.588-.208-2.988.156-3.34,2.308,1.686,2.979,4.576,3.249,6.687,1.738-.735,2.225-3.236,2.228-4.189a11.084,11.084,0,0,0-.916-4.98c-3.019-6.479-6.224-7.668-8.927-8.817-2.626-1.116-5.354-2.249-8.2-2.173s-6.371.922-7.193,3.055c-3.941-1.017-6.2,2.427-7.128,3.665a20.086,20.086,0,0,0-3.043,5.872c-1.008,3.114-1.241,6.43-2.038,9.608a14,14,0,0,1-3.754,7.067c-1.922,1.738-4.621,1.9-6.708,3.491a10.51,10.51,0,0,0-3.987,8.728c.144,3.334,1.86,6.932-.153,9.994-.656.993-1.575,1.79-2.219,2.792a7.594,7.594,0,0,0,.15,7.839c1.419,2.348,4.193,5.032,6.794,5.8a19.948,19.948,0,0,0,7.349,1.011c4.793-.264,8.823.009,13.892-4.321,2.872-2.455,1.036-3.855,3.791-6.457,1.545-1.459,3.736-2.237,4.867-4.131a7.377,7.377,0,0,0,.739-5.3C415.958,216.689,415.942,216.624,415.924,216.56Z" transform="translate(-368.511 -168.037)"/></g><g transform="translate(68.253 466.383)"><rect class="a" width="64.741" height="64.741" rx="4.46" transform="matrix(0.755, -0.655, 0.655, 0.755, 0, 42.428)"/><g transform="translate(26.207 18.833)"><path class="b" d="M354.633,296.4c1.094-.947,2.2-1.876,3.267-2.853a1.158,1.158,0,0,1,1.545-.205c1.744,1.1,3.469,2.225,5.219,3.316,1.774,1.1,3.576,2.167,5.357,3.267,1.275.784,2.525,1.612,3.794,2.406,1.238.775,2.489,1.529,3.733,2.3,1.3.806,2.593,1.621,3.892,2.433,1.183.742,2.363,1.492,3.552,2.219,1.643,1,3.3,1.974,4.925,3.009.113.074.074.683-.089.84-.9.855-1.857,1.649-2.8,2.464-.886.772-1.774,1.542-2.66,2.32a.875.875,0,0,1-1.238.058c-1.891-1.235-3.834-2.39-5.755-3.583a4.133,4.133,0,0,1-.549-.438,1.178,1.178,0,0,0-1.777-.018q-3.177,2.8-6.393,5.556a.815.815,0,0,0-.208,1.189q1.517,3.089,2.869,6.255c.723,1.7.671,1.716-.751,2.945-1.349,1.168-2.7,2.323-4.03,3.512-.549.493-.923.457-1.22-.221-.6-1.373-1.192-2.749-1.8-4.116-.634-1.425-1.293-2.844-1.931-4.269-.585-1.306-1.162-2.617-1.741-3.926q-1.333-3.007-2.666-6.016-1.269-2.882-2.541-5.758-1.319-2.96-2.651-5.921c-.328-.729-.671-1.45-.984-2.182a1.388,1.388,0,0,1,.5-1.894c1.1-.824,2.1-1.787,3.138-2.691Zm4.024,5.02c-.04.19-.1.3-.071.368q.966,1.977,1.949,3.941c.843,1.7,1.676,3.4,2.528,5.1.478.953.987,1.894,1.474,2.841.276.53.61.546,1.039.172,1.548-1.348,3.1-2.685,4.649-4.03.4-.352.408-.628-.12-.91-.788-.423-1.563-.883-2.3-1.382-2.461-1.655-4.9-3.337-7.361-5C359.877,302.137,359.283,301.8,358.657,301.417Z" transform="translate(-350.822 -278.631)"/><path class="b" d="M373.56,300.41c2.574,2.967,5.136,5.949,7.738,8.894.536.61.582.99-.086,1.541-1.557,1.278-3.071,2.611-4.566,3.96-.616.555-1.017.5-1.563-.132q-7.663-8.891-15.378-17.738c-.947-1.094-.935-1.134.135-2.062,1.4-1.211,2.826-2.384,4.177-3.644.68-.634,1.1-.6,1.7.11,2.587,3.043,5.225,6.047,7.842,9.065Z" transform="translate(-333.908 -283.486)"/><path class="b" d="M358.637,289.576a4.036,4.036,0,0,1,5.973.3c1.557,1.961,1.437,3.95-.656,5.856a3.973,3.973,0,0,1-5.97-.288A4.033,4.033,0,0,1,358.637,289.576Z" transform="translate(-338.053 -288.399)"/></g></g></svg>