<svg xmlns="http://www.w3.org/2000/svg" xmlns:xlink="http://www.w3.org/1999/xlink" width="1031.431" height="1094.333" viewBox="0 0 1031.431 1094.333"><defs><style>.a,.ac{fill:none;}.b{fill:#00cdc4;}.c{fill:#e8f3ff;}.d{clip-path:url(#a);}.e{fill:#5abf4e;}.f{fill:#00c4bf;}.g{fill:#ff783f;}.h{fill:#ff80cc;}.i{fill:#33a623;}.j{fill:#00c4b4;}.k{fill:#00d9cd;}.l{clip-path:url(#b);}.m{fill:#65547d;}.n{fill:#003c63;}.o{clip-path:url(#c);}.p{fill:#fa503c;}.q{fill:#00eadc;}.r{fill:#00a08c;}.s{fill:#005e50;}.t{fill:#ffcb00;}.u{fill:#e6af00;}.v{fill:#ffe677;}.w{fill:#fffffc;}.x{fill:#ffc700;}.y{fill:#fcb000;}.z{fill:#ff7500;}.aa{fill:#ff8c1e;}.ab{clip-path:url(#d);}.ac{stroke:#d35700;stroke-miterlimit:10;stroke-width:0.4px;}.ad{fill:#0080bb;}.ae{fill:#fff;}.af{fill:#0091cb;}.ag{fill:#00b09c;}.ah{fill:#ffae18;}.ai{fill:#d71558;}.aj{fill:#f8df9c;}.ak{fill:#fcc198;}.al,.ay{fill:#ffa65f;}.am{clip-path:url(#e);}.an{fill:#c8d963;}.ao{fill:#ff3d2f;}.ap{fill:#00b7aa;}.aq{fill:#b5b5b5;opacity:0.32;}.ar{fill:#e2e2e2;}.as{fill:#00c666;}.at{fill:#f5e259;}.au{fill:#38a9c4;}.av{fill:#f6599e;}.aw{fill:#eee;}.ax{fill:#f8e391;}.ay,.az{fill-rule:evenodd;}.az{fill:#f48e48;}</style><clipPath id="a"><path class="a" d="M425.869,309.355s53.48-63.825,103.759-43.955c57.024,22.537,23.257,72.675-12.927,61.333S464.36,290.289,425.869,309.355Z" transform="translate(-425.869 -261.566)"/></clipPath><clipPath id="b"><path class="a" d="M705.5,318.9c69.328,72.916,146.332,229.321,131.877,562.765a184.26,184.26,0,0,1-118.3,164.032C623.7,1082.164,482.2,1104.521,356.91,998.421a184.22,184.22,0,0,1-63.682-162.328c16.313-137.406,63.763-406.6,191.921-523.921C548.621,254.063,646.2,256.538,705.5,318.9Z" transform="translate(-291.936 -270.294)"/></clipPath><clipPath id="c"><path class="a" d="M470.256,349.682c-18.993,5.324-39.11,2.425-55.418-8.906q-.387-.265-.774-.538c-25.746-18.1-56.559,22.677-25.427,52.824s83.5,32.817,109.958,6.784C521.741,377.068,507.2,339.323,470.256,349.682Z" transform="translate(-375.535 -335.771)"/></clipPath><clipPath id="d"><path class="a" d="M416.863,358.929s73.443-39.245,64.313-92.532c-10.353-60.433-66.356-37.678-62.681.067S443.422,325.17,416.863,358.929Z" transform="translate(-416.863 -229.129)"/></clipPath><clipPath id="e"><path class="b" d="M424.642,304.03S408.707,222.3,455.8,195.734c53.4-30.125,71.114,27.675,39.522,48.65S434.053,262.119,424.642,304.03Z" transform="translate(-422.046 -187.212)"/></clipPath></defs><g transform="translate(-581.193 -179.732)"><path class="c" d="M1163.116,659.914c-14.222-59.407,30.986-61.7,31.981-138.25.406-31.308-14.323-63.194-49.76-77.822-17.415-7.188-34.776-12.128-50.271-23.557-35.314-26.046-34.675-75.6-44.311-117.852C1029.6,209.638,932.034,141.2,849.614,143.6c-59.412,1.727-96.989-1.43-151.159,57.3-37.061,40.184-61.151,89.627-95.562,131.059-36.439,43.873-96.986,35.9-146.845,49.993-47.159,13.333-98.455,29.192-134.546,69.168-33.918,37.566-28.976,76.852-14.432,122.977,16.035,50.862-2.6,114.488-38.855,134.291-30.529,16.677-81.635,87.528-83.306,150.069-5.172,193.721,100.491,157.562,139.884,175.975,362.4,169.378,557.969,44.01,711.631,46.651,153.183,2.635,184.5-218.371,179.182-281.9C1208.85,718.513,1173.048,701.4,1163.116,659.914Z" transform="translate(396.468 84.527)"/><g transform="translate(738.765 179.732)"><g transform="translate(518.449 264.22)"><g class="d"><path class="e" d="M425.869,309.355s53.48-63.825,103.759-43.955c57.024,22.537,23.257,72.675-12.927,61.333S464.36,290.289,425.869,309.355Z" transform="translate(-425.869 -261.566)"/><path class="f" d="M517.788,300.389a36.252,36.252,0,1,1-22.817-45.911A36.252,36.252,0,0,1,517.788,300.389Z" transform="translate(-387.469 -277.772)"/><path class="g" d="M497.079,287.433a22.988,22.988,0,1,1-14.468-29.116A22.989,22.989,0,0,1,497.079,287.433Z" transform="translate(-378.215 -269.596)"/><path class="h" d="M482.415,278.681a13.943,13.943,0,1,1-7.765-18.124A13.942,13.942,0,0,1,482.415,278.681Z" transform="translate(-372.393 -265.192)"/><path class="i" d="M467.331,282.293a48.69,48.69,0,0,1-.4-16c-23.955,14.143-41.061,34.552-41.061,34.552,19.576-9.7,33.374-7.962,46.968-2.431A64.742,64.742,0,0,1,467.331,282.293Z" transform="translate(-425.869 -253.051)"/></g></g><g transform="translate(68.143 329.535)"><path class="j" d="M349.745,502.358c58.2,7.21,124.956-25.951,134.395-30.835L466.8,437.964c-27.392,14.11-106.308,44.389-142.048,15.4-26.6-21.586-28.732-76.387-6.159-158.479l-36.425-10.017C254.53,385.364,260.689,450.089,301,482.737,315.232,494.268,332.1,500.172,349.745,502.358Z" transform="translate(-265.24 -284.865)"/></g><g transform="translate(639.183 562.921)"><path class="j" d="M612.593,420.338c-40.229-41.815-119.327-51.092-130.669-52.222l-12.988,41.8c32.856,3.336,119.265,22.635,124.434,71.254,3.843,36.2-38.056,88.66-121.168,151.72l20.8,31.311C594.753,587,641.359,522.838,635.492,468.049,633.417,448.7,624.791,433.02,612.593,420.338Z" transform="translate(-468.936 -368.116)"/></g><path class="k" d="M837.376,855.949c14.157-326.571-59.412-483.309-127.58-558.134-.056.039-.112.078-.168.115-21.312,13.863-44.484,25.124-69.925,28.617-22.366,3.07-45.617-.247-67.674-4.34-30.619-5.685-63.236-16-84.758-37.652-.709.628-1.421,1.253-2.122,1.9C356.991,403.769,309.541,672.969,293.228,810.374A184.22,184.22,0,0,0,356.91,972.7c125.287,106.1,266.794,83.743,362.163,47.279A184.26,184.26,0,0,0,837.376,855.949Z" transform="translate(-148.954 44.111)"/><path class="j" d="M837.376,724.379c6.9-159.306-7.073-278.178-31.109-366.867q-.45,13.179-1.189,26.3c-5.688,100.415-16.417,202.705-72.684,289.072-26.206,40.22-59.62,73.4-104.107,92.65-41.888,18.127-88.243,23.257-133.509,20.9-41.342-2.156-82.526-11.749-117.336-34.944-29.486-19.649-51.56-48.148-67.192-79.656-4.631-9.338-8.741-18.881-12.458-28.572-1.738,12.6-3.252,24.5-4.564,35.544A184.22,184.22,0,0,0,356.91,841.132C482.2,947.232,623.7,924.875,719.073,888.411A184.26,184.26,0,0,0,837.376,724.379Z" transform="translate(-148.954 175.682)"/><g transform="translate(142.982 288.686)"><g class="l"><path class="m" d="M307.489,769.623S368.567,378.075,564.022,402.3C762.4,426.879,722.3,827.849,722.3,827.849S449.111,916.8,307.489,769.623Z" transform="translate(-263.888 -34.187)"/></g></g><path class="n" d="M393.929,341.054c-1.615,13.022-5.879,23.212-9.526,22.761s-5.293-11.373-3.681-24.4,5.879-23.212,9.526-22.758S395.54,328.032,393.929,341.054Z" transform="translate(10.047 101.98)"/><path class="n" d="M428.77,345.373c-1.615,13.022-5.879,23.212-9.526,22.761s-5.293-11.376-3.678-24.4,5.876-23.212,9.523-22.761S430.382,332.351,428.77,345.373Z" transform="translate(72.881 109.766)"/><g transform="translate(377.343 472.244)"><path class="n" d="M470.256,349.682c-18.993,5.324-39.11,2.425-55.418-8.906q-.387-.265-.774-.538c-25.746-18.1-56.559,22.677-25.427,52.824s83.5,32.817,109.958,6.784C521.741,377.068,507.2,339.323,470.256,349.682Z" transform="translate(-375.535 -335.771)"/><g class="o"><path class="p" d="M380.13,366.245s.594-32.884,48.846-1.1c0,0,45.589-20.468,53.851,13.689C482.827,378.838,436.5,415.069,380.13,366.245Z" transform="translate(-367.248 -307.766)"/></g></g><path class="j" d="M528.406,388.811a51.507,51.507,0,1,1-42.39-54.383A51.51,51.51,0,0,1,528.406,388.811Z" transform="translate(91.947 132.622)"/><path class="j" d="M440.524,377.921a51.507,51.507,0,1,1-42.39-54.383A51.51,51.51,0,0,1,440.524,377.921Z" transform="translate(-66.539 112.983)"/><path class="q" d="M393.459,371.228c-.275,2.226,3.535,4.533,8.511,5.15s9.234-.69,9.512-2.918-3.535-4.533-8.511-5.15S393.736,369,393.459,371.228Z" transform="translate(34.107 194.878)"/><path class="r" d="M361.614,293.716s84.615-39.6,222.525,13.26C584.139,306.976,485.454,395.561,361.614,293.716Z" transform="translate(-23.297 34.95)"/><path class="s" d="M365.815,294.736s62.053-31.833,201.133,11.6C566.948,306.333,492.481,373.778,365.815,294.736Z" transform="translate(-15.721 42.184)"/><g transform="translate(296.668 130.419)"><path class="t" d="M511.8,402.644s39.346-151.384-49.155-181.579S328.77,261.82,353.42,313.571C396.161,403.3,496.43,265.709,511.8,402.644Z" transform="translate(-346.757 -213.838)"/><path class="u" d="M470.654,244.729c-6.4,10.844-16.464,18.236-27.143,24.491-14.09,8.256-29.452,14.21-44.779,19.713Q384.625,294,370.444,298.9c42.665-5.094,88.632-32.262,98.638,56.867,0,0,16.386-63.1,4.191-115.943C472.474,241.477,471.607,243.112,470.654,244.729Z" transform="translate(-304.041 -166.967)"/><path class="v" d="M367.3,278.1c14.034-9.173,28.384-18.076,41.656-28.342,12.153-9.4,21.219-17.664,29.273-30.26.608-.953,1.194-1.923,1.769-2.9.126-.219.252-.443.292-.521.112-.221.216-.443.325-.662-62.46-10.479-97.774,33.206-93.513,75.538C353.9,286.771,360.622,282.468,367.3,278.1Z" transform="translate(-346.757 -213.828)"/><path class="w" d="M446.464,259.332A45.582,45.582,0,1,1,394.414,221.3,45.58,45.58,0,0,1,446.464,259.332Z" transform="translate(-330.385 -201.367)"/><g transform="translate(47.907 42.405)"><path class="x" d="M380.4,240.036c1.015,6.532-.4,12.175-3.171,12.607s-5.837-4.513-6.854-11.045.4-12.175,3.171-12.607S379.385,233.5,380.4,240.036Z" transform="translate(-352.659 -228.965)"/><path class="x" d="M386.044,243.9c-5.523,4.253-11.415,6.075-13.167,4.071s1.309-7.079,6.829-11.331,11.415-6.078,13.168-4.073S391.567,239.641,386.044,243.9Z" transform="translate(-348.449 -223.944)"/><path class="x" d="M382.7,247.314c-6.622-2.218-11.183-6.01-10.19-8.477s7.163-2.666,13.781-.451,11.18,6.01,10.188,8.475S389.318,249.529,382.7,247.314Z" transform="translate(-348.468 -214.749)"/><path class="x" d="M371.613,250.152c-1.194-6.5.07-12.175,2.829-12.671s5.96,4.371,7.154,10.874-.073,12.172-2.829,12.669S372.808,256.653,371.613,250.152Z" transform="translate(-350.651 -213.67)"/><path class="x" d="M372.263,242.2c5.405-4.379,11.253-6.341,13.058-4.379s-1.116,7.1-6.524,11.483-11.253,6.344-13.058,4.382S366.855,246.584,372.263,242.2Z" transform="translate(-361.395 -214.361)"/><path class="x" d="M377.736,235.235c6.68,2.058,11.348,5.739,10.423,8.225s-7.093,2.837-13.773.779-11.348-5.739-10.423-8.225S371.056,233.18,377.736,235.235Z" transform="translate(-363.846 -220.073)"/><path class="y" d="M379.331,239.066a4.131,4.131,0,1,1-4.665-3.162A3.99,3.99,0,0,1,379.331,239.066Z" transform="translate(-350.687 -216.546)"/></g><g transform="translate(40.835 39.507)"><path class="x" d="M365.439,230.684c.255,1.623-.1,3.025-.788,3.134s-1.449-1.124-1.7-2.747.1-3.028.788-3.134S365.186,229.058,365.439,230.684Z" transform="translate(-358.541 -227.931)"/><path class="x" d="M366.842,231.643c-1.371,1.057-2.837,1.511-3.272,1.012s.322-1.761,1.7-2.817,2.84-1.511,3.274-1.012S368.216,230.586,366.842,231.643Z" transform="translate(-357.495 -226.683)"/><path class="x" d="M366.012,232.494c-1.646-.552-2.781-1.494-2.534-2.108s1.78-.664,3.426-.112,2.781,1.494,2.534,2.105S367.657,233.043,366.012,232.494Z" transform="translate(-357.5 -224.397)"/><path class="x" d="M363.255,233.2c-.3-1.618.017-3.028.7-3.151s1.483,1.088,1.777,2.705-.017,3.025-.7,3.148S363.552,234.816,363.255,233.2Z" transform="translate(-358.043 -224.129)"/><path class="x" d="M363.417,231.223c1.343-1.091,2.8-1.578,3.246-1.091s-.278,1.766-1.623,2.857-2.8,1.576-3.246,1.088S362.072,232.311,363.417,231.223Z" transform="translate(-360.714 -224.301)"/><path class="x" d="M364.778,229.489c1.66.513,2.82,1.427,2.59,2.047s-1.763.7-3.423.193-2.823-1.427-2.593-2.047S363.116,228.979,364.778,229.489Z" transform="translate(-361.324 -225.72)"/><path class="y" d="M365.173,230.443a1.027,1.027,0,1,1-1.158-.788A.991.991,0,0,1,365.173,230.443Z" transform="translate(-358.051 -224.843)"/></g><g transform="translate(87.243 32.282)"><path class="x" d="M381.995,228.1c.252,1.626-.1,3.028-.791,3.137s-1.449-1.124-1.7-2.747.1-3.028.788-3.134S381.739,226.481,381.995,228.1Z" transform="translate(-375.097 -225.354)"/><path class="x" d="M383.395,229.066c-1.371,1.057-2.837,1.511-3.272,1.012s.325-1.76,1.7-2.817,2.84-1.511,3.274-1.012S384.768,228.009,383.395,229.066Z" transform="translate(-374.05 -224.106)"/><path class="x" d="M382.565,229.917c-1.646-.552-2.781-1.494-2.534-2.108s1.78-.664,3.426-.112,2.781,1.494,2.534,2.105S384.211,230.466,382.565,229.917Z" transform="translate(-374.056 -221.82)"/><path class="x" d="M379.808,230.622c-.3-1.618.02-3.028.7-3.151s1.483,1.088,1.78,2.7-.02,3.028-.7,3.151S380.1,232.236,379.808,230.622Z" transform="translate(-374.598 -221.552)"/><path class="x" d="M379.97,228.646c1.343-1.091,2.8-1.578,3.246-1.091s-.278,1.766-1.62,2.857-2.8,1.576-3.249,1.088S378.625,229.734,379.97,228.646Z" transform="translate(-377.27 -221.724)"/><path class="x" d="M381.33,226.912c1.66.513,2.82,1.427,2.59,2.046s-1.763.7-3.423.193-2.82-1.427-2.59-2.047S379.667,226.4,381.33,226.912Z" transform="translate(-377.878 -223.143)"/><path class="y" d="M381.726,227.866a1.027,1.027,0,1,1-1.158-.788A.991.991,0,0,1,381.726,227.866Z" transform="translate(-374.607 -222.267)"/></g><g transform="translate(87.411 87.24)"><path class="x" d="M382.054,247.711c.252,1.623-.1,3.028-.788,3.134s-1.452-1.121-1.7-2.747.1-3.028.788-3.134S381.8,246.088,382.054,247.711Z" transform="translate(-375.156 -244.958)"/><path class="x" d="M383.457,248.669c-1.374,1.06-2.84,1.511-3.274,1.015s.325-1.761,1.7-2.82,2.84-1.508,3.274-1.012S384.828,247.612,383.457,248.669Z" transform="translate(-374.11 -243.709)"/><path class="x" d="M382.625,249.52c-1.646-.552-2.781-1.494-2.534-2.108s1.783-.662,3.428-.112,2.778,1.494,2.532,2.108S384.27,250.069,382.625,249.52Z" transform="translate(-374.116 -241.423)"/><path class="x" d="M379.867,250.224c-.294-1.615.02-3.025.7-3.148s1.483,1.085,1.78,2.7-.02,3.028-.7,3.151S380.164,251.841,379.867,250.224Z" transform="translate(-374.657 -241.154)"/><path class="x" d="M380.03,248.248c1.346-1.088,2.8-1.576,3.246-1.088s-.278,1.766-1.62,2.854-2.8,1.578-3.246,1.091S378.684,249.339,380.03,248.248Z" transform="translate(-377.329 -241.326)"/><path class="x" d="M381.39,246.518c1.662.51,2.82,1.427,2.59,2.044s-1.76.706-3.423.193-2.82-1.427-2.59-2.044S379.73,246.005,381.39,246.518Z" transform="translate(-377.938 -242.747)"/><path class="y" d="M381.789,247.468a1.028,1.028,0,1,1-1.161-.785A.993.993,0,0,1,381.789,247.468Z" transform="translate(-374.667 -241.869)"/></g><g transform="translate(57.667 93.736)"><path class="x" d="M371.444,250.028c.252,1.623-.1,3.025-.788,3.134s-1.452-1.124-1.7-2.747.1-3.028.788-3.134S371.191,248.4,371.444,250.028Z" transform="translate(-364.546 -247.275)"/><path class="x" d="M372.847,250.987c-1.374,1.057-2.84,1.511-3.274,1.012s.325-1.761,1.7-2.817,2.837-1.511,3.272-1.012S374.218,249.93,372.847,250.987Z" transform="translate(-363.5 -246.027)"/><path class="x" d="M372.013,251.838c-1.646-.552-2.778-1.494-2.531-2.108s1.78-.664,3.426-.112,2.781,1.494,2.534,2.105S373.659,252.387,372.013,251.838Z" transform="translate(-363.504 -243.741)"/><path class="x" d="M369.259,252.543c-.3-1.618.017-3.028.7-3.151s1.48,1.088,1.777,2.705-.017,3.025-.7,3.148S369.556,254.16,369.259,252.543Z" transform="translate(-364.047 -243.473)"/><path class="x" d="M369.419,250.567c1.346-1.091,2.8-1.578,3.246-1.091s-.275,1.766-1.62,2.857-2.8,1.576-3.246,1.088S368.076,251.658,369.419,250.567Z" transform="translate(-366.718 -243.645)"/><path class="x" d="M370.78,248.833c1.662.513,2.823,1.427,2.593,2.046s-1.763.7-3.426.193-2.82-1.427-2.59-2.046S369.12,248.323,370.78,248.833Z" transform="translate(-367.328 -245.064)"/><path class="y" d="M371.177,249.786a1.027,1.027,0,1,1-1.161-.785A.991.991,0,0,1,371.177,249.786Z" transform="translate(-364.055 -244.187)"/></g></g><g transform="translate(493.202 173.286)"><path class="z" d="M416.863,358.929s73.443-39.245,64.313-92.532c-10.353-60.433-66.356-37.678-62.681.067S443.422,325.17,416.863,358.929Z" transform="translate(-416.863 -229.129)"/><path class="aa" d="M422.818,348.595c57.82-20.54,28.127-99.8,24.774-119.456-16.369.678-32.034,16.773-30.036,37.308C420.845,300.2,438.181,320.533,422.818,348.595Z" transform="translate(-415.925 -229.112)"/><g class="ab"><path class="ac" d="M449.327,227.678v0c7,15.593,11.923,32.205,13.484,49.228s-.3,34.462-6.423,50.419a45.258,45.258,0,0,1-3.8,7.928,58.46,58.46,0,0,1-7.421,8.909c-8.789,9.234-18.357,18.917-30.818,21.606" transform="translate(-421.386 -231.746)"/><path class="ac" d="M419.278,248.681c-2.033,2.537-4.16,5.315-4.3,8.564-.244,5.413,5.088,9.461,10.277,11.023a29.932,29.932,0,0,0,16.9.062,21.874,21.874,0,0,0,10.336-6.2c3.028-3.426,4.558-7.92,5.517-12.388a15.157,15.157,0,0,0,14.735,7.275,17.894,17.894,0,0,0,13.549-9.792,21.912,21.912,0,0,0,.8-16.935" transform="translate(-420.282 -227.039)"/><path class="ac" d="M416.076,255.268a11.941,11.941,0,0,0,3.743,8.489,31.286,31.286,0,0,0,7.85,5.349c3.636,1.929,7.423,3.754,11.5,4.32a18.834,18.834,0,0,0,21.093-15.949c-.578,5.781,5.455,10.544,11.2,11.382s11.626-2.355,14.92-7.138,4.264-10.886,3.7-16.666" transform="translate(-418.29 -200.409)"/><path class="ac" d="M420.479,258.509c-3.2,4.508-1.9,11.295,2.212,14.993s10.322,4.48,15.592,2.82,8.733-5.4,12.049-9.823a9.087,9.087,0,0,0,3.97,7.864,10.4,10.4,0,0,0,8.845.709,21.06,21.06,0,0,0,7.583-5.046" transform="translate(-413.566 -176.146)"/><path class="ac" d="M418.261,268.651a5.6,5.6,0,0,0,2.17,6.011,10.056,10.056,0,0,0,6.476,1.693,17.165,17.165,0,0,0,10.033-3.762" transform="translate(-414.76 -157.856)"/></g></g><circle class="ad" cx="31.136" cy="31.136" r="31.136" transform="translate(553.932 211.681) rotate(-27.116)"/><path class="ae" d="M427.509,200.606A18.989,18.989,0,1,1,411,179.426,18.99,18.99,0,0,1,427.509,200.606Z" transform="translate(27.306 -145.742)"/><path class="ae" d="M423.72,191.677A7.962,7.962,0,1,1,416.8,182.8,7.963,7.963,0,0,1,423.72,191.677Z" transform="translate(60.096 -139.512)"/><path class="ae" d="M408.392,190.172a7.564,7.564,0,1,1-2.2,10.471A7.565,7.565,0,0,1,408.392,190.172Z" transform="translate(54.872 -128.316)"/><circle class="af" cx="11.924" cy="11.924" r="11.924" transform="translate(573.869 209.794) rotate(-38.029)"/><g transform="translate(544.068 152.589)"><path class="x" d="M451.227,233.365c-.754,6.092-3.457,10.768-6.039,10.448s-4.059-5.514-3.305-11.606,3.459-10.765,6.039-10.445S451.981,227.276,451.227,233.365Z" transform="translate(-422.962 -221.746)"/><path class="x" d="M455.755,236.029c-6.01,2.394-11.738,2.52-12.789.283s2.969-5.985,8.979-8.377,11.738-2.517,12.789-.283S461.769,233.637,455.755,236.029Z" transform="translate(-420.956 -213.976)"/><path class="x" d="M449.915,240.426c-5.346-3.664-8.452-8.211-6.938-10.16s7.07-.558,12.416,3.1,8.452,8.211,6.939,10.16S455.258,244.088,449.915,240.426Z" transform="translate(-421.327 -207.97)"/><path class="x" d="M440.7,240.184c.589-6.106,3.162-10.849,5.75-10.588s4.205,5.419,3.619,11.525-3.165,10.852-5.75,10.591S440.114,246.293,440.7,240.184Z" transform="translate(-424.955 -207.61)"/><path class="x" d="M443.94,231.041c5.94-2.534,11.659-2.8,12.772-.586s-2.8,6.058-8.744,8.592-11.662,2.8-12.772.586S438,233.578,443.94,231.041Z" transform="translate(-435.008 -208.747)"/><path class="x" d="M448.569,228.348c5.438,3.535,8.668,8.012,7.21,9.994s-7.053.729-12.492-2.809-8.668-8.009-7.21-9.994S443.128,224.813,448.569,228.348Z" transform="translate(-433.71 -216.603)"/><path class="y" d="M449.237,232.218a3.834,3.834,0,1,1-3.356-4.009A3.7,3.7,0,0,1,449.237,232.218Z" transform="translate(-423.083 -210.149)"/></g><g transform="translate(544.439 133.348)"><path class="x" d="M443.614,220.952c-.393,3.182-1.805,5.626-3.154,5.458s-2.122-2.882-1.727-6.064,1.805-5.624,3.154-5.455S444.009,217.77,443.614,220.952Z" transform="translate(-428.846 -214.883)"/><path class="x" d="M445.98,222.345c-3.14,1.25-6.131,1.315-6.68.149s1.55-3.129,4.69-4.379,6.134-1.315,6.683-.146S449.123,221.095,445.98,222.345Z" transform="translate(-427.797 -210.824)"/><path class="x" d="M442.928,224.644c-2.792-1.915-4.415-4.292-3.625-5.31s3.7-.292,6.487,1.623,4.415,4.289,3.625,5.307S445.721,226.556,442.928,224.644Z" transform="translate(-427.992 -207.686)"/><path class="x" d="M438.116,224.517c.308-3.19,1.651-5.668,3.005-5.534s2.2,2.831,1.89,6.024-1.651,5.668-3,5.531S437.807,227.708,438.116,224.517Z" transform="translate(-429.887 -207.498)"/><path class="x" d="M439.808,219.739c3.1-1.323,6.092-1.461,6.672-.306s-1.463,3.165-4.567,4.488-6.095,1.461-6.675.306S436.7,221.062,439.808,219.739Z" transform="translate(-435.14 -208.091)"/><path class="x" d="M442.225,218.333c2.843,1.847,4.53,4.185,3.768,5.22s-3.684.381-6.526-1.466-4.53-4.185-3.768-5.223S439.385,216.486,442.225,218.333Z" transform="translate(-434.462 -212.197)"/><path class="y" d="M442.575,220.354a2,2,0,1,1-1.755-2.094A1.935,1.935,0,0,1,442.575,220.354Z" transform="translate(-428.908 -208.824)"/></g><path class="q" d="M361.423,284.577s105.769,114.393,223.61,13.05C585.033,297.627,486.5,350.72,361.423,284.577Z" transform="translate(-23.642 44.151)"/><path class="ag" d="M272.705,328.367s-7.039-14.609-2.061-61.529l61.122,18.881S325.224,332.482,272.705,328.367Z" transform="translate(-190.563 12.16)"/><g transform="translate(0 266.485)"><rect class="ah" width="33.33" height="182.229" transform="translate(30.209 54.79) rotate(-96.646)"/><path class="ai" d="M320.154,295.711s14.073-.311,12.517-18.3S316.3,262.589,316.3,262.589,319.978,295.731,320.154,295.711Z" transform="translate(-105.022 -262.374)"/><rect class="aj" width="33.389" height="4.306" transform="translate(210.856 33.833) rotate(-96.645)"/><path class="ak" d="M271.139,303.2l-30.206-13.987L267.281,270.1l8.061,5.295-5.129,6.468,6.347,5.015-4.606,5.808,5.951,4.7Z" transform="translate(-240.933 -248.444)"/><path class="n" d="M256.135,290.025l-15.2-7.072,12.925-9.38,5.67,7.7Z" transform="translate(-240.933 -242.179)"/></g><path class="j" d="M303.5,341.985s68.88-24.053,28.575-67.688c0,0-26.778-26.848-18.833,3.6,5.223,20.011,2.688,38.1-43.559,44.6C269.678,322.493,265,351.25,303.5,341.985Z" transform="translate(-189.417 5.893)"/><path class="j" d="M297.117,306.2h0a10.419,10.419,0,0,1-13.224-6.406L273.22,269.063a10.422,10.422,0,0,1,6.406-13.224h0a10.423,10.423,0,0,1,13.224,6.406l10.673,30.734A10.418,10.418,0,0,1,297.117,306.2Z" transform="translate(-183.739 -8.705)"/><g transform="translate(378.82)"><g transform="translate(59.931)"><path class="al" d="M443.155,190.712l-6.173,2.96a130.459,130.459,0,0,1,5.865,14.135l6.5-2.15A136.909,136.909,0,0,0,443.155,190.712Z" transform="translate(-326.13 -125.125)"/><path class="al" d="M438.557,183.306l-5.649,3.866a146.313,146.313,0,0,1,8,13.142l6.022-3.255A152.637,152.637,0,0,0,438.557,183.306Z" transform="translate(-333.477 -138.481)"/><path class="al" d="M432.419,176.66l-4.659,5.029a114.948,114.948,0,0,1,10.016,11.4l5.413-4.191A122.247,122.247,0,0,0,432.419,176.66Z" transform="translate(-342.761 -150.466)"/><path class="al" d="M424.682,171.35l-3.26,6.072a85.845,85.845,0,0,1,12.3,8.831l4.228-5.411A92.855,92.855,0,0,0,424.682,171.35Z" transform="translate(-354.191 -160.042)"/><path class="al" d="M415.632,168.1l-1.643,6.711a76.05,76.05,0,0,1,14.269,5.043l2.75-6.33A82.39,82.39,0,0,0,415.632,168.1Z" transform="translate(-367.596 -165.911)"/><path class="al" d="M405.959,167.48l.087,6.88a80.515,80.515,0,0,1,15.127.51l1.082-6.818A87.009,87.009,0,0,0,405.959,167.48Z" transform="translate(-382.077 -167.316)"/><path class="al" d="M397.44,171.163l1.811,6.608c2.383-.855,4.884-1.292,7.331-1.912a69.919,69.919,0,0,1,7.452-1.365l-.656-6.837a75.568,75.568,0,0,0-8.032,1.461C402.7,169.775,400.013,170.255,397.44,171.163Z" transform="translate(-397.44 -166.704)"/></g><g transform="translate(0 6.959)"><path class="al" d="M389.44,176.513l3.339,5.977,6.784-3.4,7.062-2.857-2.349-6.431c-2.512,1.018-5.041,2-7.538,3.05Z" transform="translate(-351.936 -169.799)"/><path class="al" d="M382.564,184.517l5.04,4.634a23.207,23.207,0,0,1,2.616-2.66l2.736-2.551c1.912-1.606,3.967-3.056,5.938-4.595l-3.877-5.643c-2.175,1.679-4.418,3.274-6.521,5.046l-3.03,2.82A27.45,27.45,0,0,0,382.564,184.517Z" transform="translate(-364.336 -162.762)"/><path class="al" d="M377.9,194.346l6.378,2.487,1.52-3.406.757-1.7c.278-.555.605-1.085.905-1.626l1.836-3.241c.648-1.057,1.419-2.035,2.119-3.059l-5.565-3.989c-.785,1.141-1.637,2.24-2.36,3.417l-2.052,3.616c-.336.606-.7,1.2-1.006,1.817l-.849,1.9Z" transform="translate(-372.74 -151.749)"/><path class="al" d="M376.107,203.95l6.832.409c.277-2.5.345-5.041.841-7.5.213-1.236.387-2.481.628-3.712l.9-3.642-6.619-1.755-.987,4.006c-.264,1.346-.457,2.7-.687,4.054C376.48,198.5,376.4,201.233,376.107,203.95Z" transform="translate(-375.981 -137.433)"/><path class="al" d="M377.523,212.6l6.762-1.077a116.224,116.224,0,0,1-1.376-15.206l-6.846.14A123.481,123.481,0,0,0,377.523,212.6Z" transform="translate(-376.062 -121.967)"/><path class="al" d="M381.3,221.35l6.515-2.1a152.015,152.015,0,0,1-4.012-14.869l-6.692,1.449A158.683,158.683,0,0,0,381.3,221.35Z" transform="translate(-374.168 -107.434)"/><path class="al" d="M385.715,229.4l6.193-2.921c-2.19-4.654-4.174-9.417-5.968-14.241l-6.423,2.374Q382.313,222.123,385.715,229.4Z" transform="translate(-369.831 -93.272)"/></g></g><path class="j" d="M290.253,308.585h0a10.419,10.419,0,0,1-13.224-6.406l-10.673-30.731a10.421,10.421,0,0,1,6.406-13.224h0a10.422,10.422,0,0,1,13.224,6.406l10.673,30.734A10.421,10.421,0,0,1,290.253,308.585Z" transform="translate(-196.117 -4.406)"/><g transform="translate(507.732 55.775)"><path class="b" d="M424.642,304.03S408.707,222.3,455.8,195.734c53.4-30.125,71.114,27.675,39.522,48.65S434.053,262.119,424.642,304.03Z" transform="translate(-422.046 -187.212)"/><g class="am"><path class="b" d="M424.642,304.03S408.707,222.3,455.8,195.734c53.4-30.125,71.114,27.675,39.522,48.65S434.053,262.119,424.642,304.03Z" transform="translate(-422.046 -187.212)"/><path class="an" d="M488.262,197.928a36.252,36.252,0,1,1-50.035-11.166A36.254,36.254,0,0,1,488.262,197.928Z" transform="translate(-423.201 -198.22)"/><circle class="g" cx="22.989" cy="22.989" r="22.989" transform="translate(8.183 36.687) rotate(-80.251)"/><path class="ao" d="M454.97,195.28A13.943,13.943,0,1,1,436,189.909,13.941,13.941,0,0,1,454.97,195.28Z" transform="translate(-409.773 -185.547)"/><path class="ap" d="M436.327,219.5a48.679,48.679,0,0,1-12.691-9.761c-4.087,27.515,1,53.654,1,53.654,4.785-21.314,14.822-30.944,27.675-38.028A64.566,64.566,0,0,1,436.327,219.5Z" transform="translate(-422.044 -146.58)"/></g></g><g transform="translate(221.361 67.712)"><path class="t" d="M360.162,213.557s2.083-3.975,6.655-1.721a3.741,3.741,0,0,1,1.766,4.777,40.034,40.034,0,0,1-25.444,23.111,3.624,3.624,0,0,1-3.86-1.127c-1.175-1.447-2.035-3.855.193-7.278Z" transform="translate(-287.085 -155.99)"/><g transform="translate(32.105 1.047)"><path class="t" d="M331.347,194.814s19.885-13.106,47.919,15.744l-11.444,13.667Z" transform="translate(-331.347 -191.844)"/><path class="t" d="M360.878,203.347A59.152,59.152,0,0,0,333.7,192.492a15.12,15.12,0,0,0-2.349,1.152l36.475,29.41,5.831-6.961A64.446,64.446,0,0,0,360.878,203.347Z" transform="translate(-331.347 -190.674)"/></g><g transform="translate(0.004 31.23)"><path class="t" d="M323.472,202.61s-14.025,19.245,13.476,48.605l14.191-10.787Z" transform="translate(-319.896 -202.61)"/><path class="t" d="M330.288,232.564a59.142,59.142,0,0,1-9.565-27.664,15.086,15.086,0,0,1,1.259-2.29l27.667,37.818-7.23,5.5A64.428,64.428,0,0,1,330.288,232.564Z" transform="translate(-318.406 -202.61)"/></g><path class="k" d="M320.921,192.047s-8.1,33.745,21.23,62.886,46.534,8.141,46.534,8.141,21.785-16.192-5.946-46.864S320.921,192.047,320.921,192.047Z" transform="translate(-319.895 -191.47)"/><path class="j" d="M343.59,196.466c9.175,10.65,14.85,24.418,12.573,37.369-1.724,9.8-10.56,20.109-21.121,25.842,16.857,5.921,26.327-5.612,26.327-5.612s21.785-16.192-5.946-46.864A79.747,79.747,0,0,0,343.59,196.466Z" transform="translate(-292.578 -182.46)"/><path class="t" d="M347.939,194.152c-15.293-4.337-27.022-2.108-27.022-2.108s-3.067,12.823,1.438,29.481C334.85,216.439,344.294,206.58,347.939,194.152Z" transform="translate(-319.89 -191.467)"/><g transform="translate(22.913 23.772)"><path class="ae" d="M350.851,204.043a13.219,13.219,0,1,1-18.687-.44A13.22,13.22,0,0,1,350.851,204.043Z" transform="translate(-328.068 -199.95)"/><path class="n" d="M344.654,204.258a8.685,8.685,0,1,1-12.279-.289A8.685,8.685,0,0,1,344.654,204.258Z" transform="translate(-325.151 -197.033)"/></g><path class="j" d="M331.616,201.7a1.176,1.176,0,1,1-1.665-.039A1.177,1.177,0,0,1,331.616,201.7Z" transform="translate(-302.415 -173.679)"/><path class="j" d="M334.075,200.629a1.177,1.177,0,1,1-1.662-.039A1.178,1.178,0,0,1,334.075,200.629Z" transform="translate(-297.978 -175.609)"/><path class="j" d="M337.176,201.661a1.177,1.177,0,1,1-1.662-.036A1.178,1.178,0,0,1,337.176,201.661Z" transform="translate(-292.386 -173.745)"/><path class="j" d="M338.348,204.878a1.176,1.176,0,1,1-1.662-.039A1.174,1.174,0,0,1,338.348,204.878Z" transform="translate(-290.272 -167.949)"/><path class="j" d="M337.177,207.529a1.176,1.176,0,1,1-1.662-.039A1.175,1.175,0,0,1,337.177,207.529Z" transform="translate(-292.384 -163.165)"/><path class="j" d="M334.131,208.594a1.176,1.176,0,1,1-1.662-.039A1.175,1.175,0,0,1,334.131,208.594Z" transform="translate(-297.877 -161.247)"/><path class="j" d="M331.759,207.686a1.177,1.177,0,1,1-1.665-.039A1.177,1.177,0,0,1,331.759,207.686Z" transform="translate(-302.158 -162.885)"/><path class="j" d="M330.5,204.616a1.177,1.177,0,1,1-1.662-.036A1.178,1.178,0,0,1,330.5,204.616Z" transform="translate(-304.42 -168.416)"/><path class="t" d="M353.507,213.693c3.65,1.505,6.123,3.911,5.52,5.371s-4.051,1.421-7.7-.084-6.123-3.908-5.52-5.369S349.857,212.188,353.507,213.693Z" transform="translate(-273.329 -153.473)"/><path class="t" d="M350.822,219.381c2.725,2.857,4.009,6.058,2.865,7.149s-4.278-.342-7.006-3.2-4.009-6.055-2.865-7.146S348.094,216.524,350.822,219.381Z" transform="translate(-277.509 -147.563)"/><path class="t" d="M340.632,226.017c1.332,3.717,3.616,6.3,5.1,5.767s1.612-3.981.28-7.7-3.619-6.3-5.105-5.767S339.3,222.3,340.632,226.017Z" transform="translate(-284.162 -143.176)"/></g><path class="v" d="M462.879,223.252l3.173,6.43,7.1,1.031-5.135,5.005,1.213,7.067-6.347-3.337-6.347,3.337,1.212-7.067-5.135-5.005,7.1-1.031Z" transform="translate(140.804 -66.442)"/><path class="v" d="M467.306,257.647l1.1,2.221,2.451.356-1.774,1.729.419,2.442-2.193-1.153-2.193,1.153.419-2.442-1.774-1.729,2.452-.356Z" transform="translate(160.91 -4.415)"/><path class="v" d="M354.488,272.606l3.173,6.43,7.1,1.031-5.134,5.005,1.212,7.067-6.347-3.337-6.347,3.337,1.212-7.067-5.134-5.005,7.1-1.031Z" transform="translate(-54.667 22.563)"/><path class="v" d="M353.15,269.5l.938,1.9,2.1.3-1.519,1.48.359,2.09-1.877-.987-1.877.987.358-2.09-1.518-1.48,2.1-.3Z" transform="translate(-44.038 16.966)"/><path class="v" d="M351.236,282.943l1.211,2.454,2.708.394L353.2,287.7l.463,2.7-2.422-1.273-2.422,1.273.462-2.7-1.959-1.91,2.708-.394Z" transform="translate(-49.08 41.205)"/><path class="v" d="M416.093,251.043l1.448,2.935,3.239.47-2.344,2.284.553,3.225-2.9-1.522-2.9,1.522.553-3.225-2.343-2.284,3.238-.47Z" transform="translate(66.499 -16.325)"/><path class="v" d="M426.242,197.033l3.173,6.43,7.1,1.031-5.135,5.005,1.212,7.067-6.347-3.336-6.347,3.336,1.212-7.067-5.135-5.005,7.1-1.031Z" transform="translate(74.733 -113.726)"/><path class="v" d="M413.829,174.64l1.846,3.74,4.128.6-2.987,2.911.705,4.111-3.692-1.941L410.138,186l.705-4.111-2.987-2.911,4.128-.6Z" transform="translate(60.095 -154.11)"/><path class="h" d="M472.542,238.854a3.126,3.126,0,1,1-3.126-3.129A3.125,3.125,0,0,1,472.542,238.854Z" transform="translate(165.475 -43.949)"/><path class="h" d="M475.268,231.151a3.932,3.932,0,1,1-3.93-3.933A3.931,3.931,0,0,1,475.268,231.151Z" transform="translate(167.486 -59.29)"/><path class="h" d="M379.03,192.146a3.127,3.127,0,1,1-3.126-3.126A3.125,3.125,0,0,1,379.03,192.146Z" transform="translate(-3.168 -128.176)"/><path class="h" d="M381.755,184.445a3.932,3.932,0,1,1-3.933-3.933A3.932,3.932,0,0,1,381.755,184.445Z" transform="translate(-1.155 -143.52)"/><circle class="h" cx="4.239" cy="4.239" r="4.239" transform="translate(616.146 137.477)"/><path class="h" d="M473.6,251.591a2.54,2.54,0,1,1-2.54-2.54A2.539,2.539,0,0,1,473.6,251.591Z" transform="translate(169.497 -19.917)"/><path class="h" d="M349.85,256.6a4.683,4.683,0,1,1-4.685-4.684A4.682,4.682,0,0,1,349.85,256.6Z" transform="translate(-61.403 -14.752)"/><path class="h" d="M415.605,260a4.019,4.019,0,1,1-4.02-4.02A4.019,4.019,0,0,1,415.605,260Z" transform="translate(59.576 -7.415)"/><path class="h" d="M445.561,280.14a2.285,2.285,0,1,1-2.285-2.282A2.285,2.285,0,0,1,445.561,280.14Z" transform="translate(119.851 32.034)"/><circle class="h" cx="5.118" cy="5.118" r="5.118" transform="translate(376.868 315.436)"/><circle class="k" cx="4.702" cy="4.702" r="4.702" transform="translate(601.996 134.502)"/><path class="h" d="M397.878,204.123a4.239,4.239,0,1,1-4.239-4.239A4.239,4.239,0,0,1,397.878,204.123Z" transform="translate(26.814 -108.584)"/><path class="k" d="M393.757,203.524a4.7,4.7,0,1,1-4.7-4.7A4.7,4.7,0,0,1,393.757,203.524Z" transform="translate(17.712 -110.498)"/><path class="k" d="M468.822,232.463a3.3,3.3,0,1,1-3.3-3.3A3.3,3.3,0,0,1,468.822,232.463Z" transform="translate(158.155 -55.777)"/><path class="v" d="M378.513,202.636l-3.173,6.43-7.1,1.031,5.135,5-1.212,7.067,6.346-3.337,6.347,3.337-1.212-7.067,5.135-5-7.1-1.031Z" transform="translate(-11.341 -103.621)"/><path class="h" d="M357.969,210.532a3.933,3.933,0,1,0,3.933-3.93A3.933,3.933,0,0,0,357.969,210.532Z" transform="translate(-29.871 -96.469)"/><path class="h" d="M364.437,199.979a4.239,4.239,0,1,0,4.239-4.239A4.239,4.239,0,0,0,364.437,199.979Z" transform="translate(-18.206 -116.058)"/><circle class="k" cx="4.702" cy="4.702" r="4.702" transform="translate(359.455 76.707)"/><path class="k" d="M363.6,211.847a3.3,3.3,0,1,0,3.294-3.3A3.3,3.3,0,0,0,363.6,211.847Z" transform="translate(-19.719 -92.956)"/><path class="k" d="M445.829,263.5a2.993,2.993,0,1,1-2.994-2.994A2.993,2.993,0,0,1,445.829,263.5Z" transform="translate(117.783 0.74)"/><path class="k" d="M420.394,262.107a3.741,3.741,0,1,1-3.74-3.742A3.741,3.741,0,0,1,420.394,262.107Z" transform="translate(69.214 -3.122)"/><circle class="k" cx="3.115" cy="3.115" r="3.115" transform="translate(302.156 260.943)"/><path class="k" d="M475.385,257.943a2.588,2.588,0,1,1-2.588-2.588A2.587,2.587,0,0,1,475.385,257.943Z" transform="translate(172.545 -8.548)"/><path class="j" d="M283.6,311.034h0a10.422,10.422,0,0,1-13.224-6.409L259.7,273.894a10.422,10.422,0,0,1,6.406-13.224h0a10.423,10.423,0,0,1,13.224,6.406l10.673,30.734A10.422,10.422,0,0,1,283.6,311.034Z" transform="translate(-208.115 0.008)"/><g transform="translate(410.647 98.731)"><path class="ae" d="M491.931,261.446a52.454,52.454,0,1,1-45.606-58.507A52.452,52.452,0,0,1,491.931,261.446Z" transform="translate(-387.415 -202.535)"/><path class="aq" d="M467.409,207.785c10.14,27.011.025,59.452-29.89,71.837a63.656,63.656,0,0,1-45.292,1.018,52.4,52.4,0,1,0,75.181-72.855Z" transform="translate(-378.735 -193.067)"/><path class="ar" d="M423.6,224.846a14.121,14.121,0,1,1-12.276-15.752A14.122,14.122,0,0,1,423.6,224.846Z" transform="translate(-372.908 -190.903)"/><path class="ae" d="M418.821,222.261a11.463,11.463,0,1,1-9.966-12.786A11.461,11.461,0,0,1,418.821,222.261Z" transform="translate(-371.968 -190.179)"/><path class="ar" d="M436.719,235.627a14.121,14.121,0,1,1-12.276-15.752A14.122,14.122,0,0,1,436.719,235.627Z" transform="translate(-349.244 -171.46)"/><path class="ae" d="M432.18,232.43c-.726,5.873-6.411,10.005-12.694,9.226s-10.787-6.173-10.059-12.046,6.411-10.005,12.694-9.226S432.909,226.554,432.18,232.43Z" transform="translate(-347.857 -170.517)"/><path class="ar" d="M412.9,236.156a7.943,7.943,0,1,1-6.9-8.859A7.942,7.942,0,0,1,412.9,236.156Z" transform="translate(-370.001 -157.989)"/><path class="ae" d="M410.337,234.718a6.448,6.448,0,1,1-5.607-7.191A6.448,6.448,0,0,1,410.337,234.718Z" transform="translate(-369.245 -157.554)"/><path class="ar" d="M425.253,215.956a5.17,5.17,0,1,1-4.5-5.767A5.167,5.167,0,0,1,425.253,215.956Z" transform="translate(-337.754 -188.802)"/><path class="ae" d="M423.588,215.02a4.2,4.2,0,1,1-3.65-4.682A4.2,4.2,0,0,1,423.588,215.02Z" transform="translate(-337.263 -188.52)"/><path class="ar" d="M409.9,208.874a1.309,1.309,0,1,1-1.138-1.461A1.309,1.309,0,0,1,409.9,208.874Z" transform="translate(-351.57 -193.755)"/><path class="ar" d="M415.338,215a2.648,2.648,0,1,1-2.3-2.952A2.645,2.645,0,0,1,415.338,215Z" transform="translate(-346.574 -185.422)"/><path class="ar" d="M394.2,222.572a2.4,2.4,0,1,1-2.083-2.674A2.4,2.4,0,0,1,394.2,222.572Z" transform="translate(-383.784 -171.256)"/><path class="ar" d="M396.4,223.075a.782.782,0,1,1-.681-.872A.785.785,0,0,1,396.4,223.075Z" transform="translate(-374.03 -167.077)"/><path class="ar" d="M408.651,232.747a1.513,1.513,0,1,1-1.315-1.688A1.51,1.51,0,0,1,408.651,232.747Z" transform="translate(-354.554 -151.115)"/><path class="ar" d="M408.9,235.923a.928.928,0,1,1-.807-1.034A.929.929,0,0,1,408.9,235.923Z" transform="translate(-352.006 -144.202)"/><path class="ar" d="M395.264,228.5a1.737,1.737,0,1,1-1.511-1.937A1.739,1.739,0,0,1,395.264,228.5Z" transform="translate(-379.503 -159.224)"/><path class="ar" d="M423.765,223.57a1.261,1.261,0,1,1-1.1-1.407A1.264,1.264,0,0,1,423.765,223.57Z" transform="translate(-326.392 -167.155)"/><path class="ar" d="M416.959,218.207a.751.751,0,1,1-.653-.838A.749.749,0,0,1,416.959,218.207Z" transform="translate(-336.835 -175.794)"/><path class="ar" d="M416.287,207.974a1.934,1.934,0,1,1-1.682-2.156A1.934,1.934,0,0,1,416.287,207.974Z" transform="translate(-342.296 -196.64)"/><path class="ar" d="M403.523,204.9a.311.311,0,0,1-.617-.076.311.311,0,1,1,.617.076Z" transform="translate(-359.482 -198.908)"/></g><g transform="translate(311.022 244.798)"><g transform="translate(28.62)"><g transform="translate(24.613 24.837)"><path class="as" d="M382.052,307.806c-.16-.6-.3-1.2-.421-1.814a27.07,27.07,0,1,1,53.15-10.305q.177.921.289,1.839l10.1-1.96c-.09-.611-.191-1.222-.308-1.836a37.337,37.337,0,0,0-73.309,14.216c.118.611.252,1.219.4,1.819Z" transform="translate(-370.866 -263.498)"/></g><g transform="translate(16.403 16.357)"><path class="at" d="M379.211,314.836c-.126-.527-.244-1.057-.348-1.592a35.7,35.7,0,1,1,70.1-13.591q.156.8.272,1.6l10.087-1.954c-.084-.535-.174-1.071-.278-1.606a45.971,45.971,0,0,0-90.261,17.5c.1.535.221,1.065.342,1.592Z" transform="translate(-367.937 -260.473)"/></g><g transform="translate(7.016 6.369)"><path class="au" d="M375.906,323.073c-.053-.252-.107-.5-.154-.757-4.9-25.264,10.846-49.643,35.1-54.347S458.822,280,463.72,305.26c.05.252.1.5.14.76l10.078-1.957c-.045-.252-.087-.5-.137-.76-5.977-30.821-35.093-51.193-64.9-45.412s-49.2,35.558-43.226,66.379c.05.255.1.5.157.757Z" transform="translate(-364.589 -256.91)"/></g><path class="av" d="M373.739,328.465c-.168-.7-.325-1.407-.463-2.122-5.391-27.79,13.454-54.9,42-60.438s56.16,12.568,61.549,40.361c.14.715.258,1.427.364,2.142l10.087-1.957c-.112-.712-.233-1.427-.37-2.142-6.467-33.346-39.475-55.1-73.584-48.485s-56.6,39.124-50.128,72.473c.137.715.294,1.421.457,2.125Z" transform="translate(-362.086 -254.638)"/></g><g transform="translate(0 56.029)"><path class="ae" d="M436.121,292.2a11.514,11.514,0,0,0-18.331-10.762,18.428,18.428,0,0,0-29.9,1.794,11.508,11.508,0,0,0-18.875,9.484c-10.109,2.038-17.325,7.4-17.129,13.465.241,7.457,11.612,13.142,25.4,12.7,1.39-.045,2.75-.154,4.076-.317a7.454,7.454,0,0,0,11.1,2.049c.163.174.32.353.5.519a11.53,11.53,0,0,0,16.3-.527,11.413,11.413,0,0,0,.793-.945,7.445,7.445,0,0,0,11.354-2.24c.566,0,1.138,0,1.713-.02,13.787-.443,24.768-6.852,24.527-14.309C447.486,298.4,442.922,294.407,436.121,292.2Z" transform="translate(-351.878 -274.624)"/><path class="aw" d="M436.121,286.936a11.5,11.5,0,0,0-2.991-9.391,21.546,21.546,0,0,1-1.9,9.016c1.079,5.618-.527,12.074-4.959,15.909a20.588,20.588,0,0,1-16.888,4.578c-.339-.07-.67-.149-.992-.233a17.424,17.424,0,0,1-10.824,3.807,20.139,20.139,0,0,1-12.495-3.846,16.963,16.963,0,0,1-9.876-1.954c-5.985-3.232-9.711-9.582-10.473-16.24-7.788,2.526-13,7.174-12.837,12.335.241,7.457,11.612,13.142,25.4,12.7,1.391-.045,2.75-.154,4.076-.317a7.454,7.454,0,0,0,11.1,2.049c.163.174.32.353.5.519a11.53,11.53,0,0,0,16.3-.527,11.4,11.4,0,0,0,.793-.945,7.445,7.445,0,0,0,11.354-2.24c.566,0,1.138,0,1.713-.02,13.787-.443,24.768-6.852,24.527-14.309C447.486,293.132,442.922,289.14,436.121,286.936Z" transform="translate(-351.878 -269.358)"/></g><g transform="translate(97.435 43.599)"><path class="ae" d="M470.877,287.772a11.512,11.512,0,0,0-18.331-10.762,18.421,18.421,0,0,0-29.9,1.794,11.51,11.51,0,0,0-18.878,9.484c-10.109,2.035-17.322,7.4-17.129,13.462.241,7.46,11.612,13.145,25.4,12.7,1.39-.045,2.75-.154,4.076-.314a7.454,7.454,0,0,0,11.1,2.049c.163.174.322.35.5.516a11.529,11.529,0,0,0,16.293-.524,11.338,11.338,0,0,0,.793-.948,7.443,7.443,0,0,0,11.354-2.237q.849,0,1.716-.02c13.784-.446,24.765-6.852,24.524-14.311C482.242,293.965,477.678,289.975,470.877,287.772Z" transform="translate(-386.634 -270.19)"/><path class="aw" d="M470.877,282.505a11.508,11.508,0,0,0-2.991-9.394,21.591,21.591,0,0,1-1.9,9.019c1.076,5.615-.527,12.074-4.962,15.909a20.6,20.6,0,0,1-16.888,4.575c-.339-.067-.67-.146-.992-.233a17.435,17.435,0,0,1-10.821,3.81,20.148,20.148,0,0,1-12.5-3.846,16.97,16.97,0,0,1-9.876-1.957c-5.982-3.232-9.711-9.582-10.471-16.24-7.791,2.526-13.005,7.177-12.84,12.335.241,7.46,11.612,13.145,25.4,12.7,1.39-.045,2.75-.154,4.076-.314a7.454,7.454,0,0,0,11.1,2.049c.163.174.322.35.5.516a11.529,11.529,0,0,0,16.293-.524,11.338,11.338,0,0,0,.793-.948,7.443,7.443,0,0,0,11.354-2.237q.849,0,1.716-.02c13.784-.446,24.765-6.852,24.524-14.311C482.242,288.7,477.678,284.709,470.877,282.505Z" transform="translate(-386.634 -264.924)"/></g></g><g transform="translate(518.322 272.943)"><g transform="translate(0.317 1.329)"><path class="ax" d="M434.423,272.251c.381-.827,1.548-1.183,3.227-.535,6.31,2.433,17.628,8.1,33.31,18.561s25.275,18.741,29.946,23.627c1.245,1.3,1.362,2.515.743,3.185l8.475,5.652c.042-.051.1-.093.135-.149,3.989-5.98-22.506-25.937-37.075-35.651s-43.17-26.515-47.159-20.532a1.545,1.545,0,0,0-.087.182Z" transform="translate(-425.937 -265.152)"/></g><path class="ay" d="M435.458,278.1a30.14,30.14,0,1,0,41.8-8.349A30.142,30.142,0,0,0,435.458,278.1Z" transform="translate(-417.588 -264.678)"/><path class="az" d="M480.872,267.885c-4.331,4.533-1.34,12.1-3.544,17.981-1.606,4.289-4.914,3.975-8.738,3.14-3.229-.707-13.5-2.447-11.242,3.448,1.183,3.089,4.32,5.17,5.355,8.43,2.251,7.1-7.353,8.421-12.212,7.69a37.093,37.093,0,0,1-19.472-9.487,30.125,30.125,0,1,0,49.853-31.2Z" transform="translate(-416.455 -258.894)"/><g transform="translate(0 1.352)"><path class="ax" d="M510.607,319.717l-10.975-7.32c.533.524,1.034,1.026,1.477,1.491,2.3,2.4.847,4.581-2.254,3.387-6.308-2.428-17.631-8.1-33.327-18.567s-25.264-18.729-29.935-23.621c-2.3-2.405-.847-4.584,2.26-3.386.6.23,1.262.5,1.954.793l-11-7.334a3.2,3.2,0,0,0-2.582,1.234c-3.989,5.98,22.506,25.934,37.075,35.651s43.169,26.512,47.159,20.532A3.2,3.2,0,0,0,510.607,319.717Z" transform="translate(-425.824 -265.16)"/></g></g><path class="v" d="M458.879,294.479l2.247,4.552,5.024.73-3.635,3.544.858,5-4.494-2.362-4.494,2.362.858-5-3.635-3.544,5.024-.73Z" transform="translate(138.999 62.009)"/></g></g></svg>