<svg xmlns="http://www.w3.org/2000/svg" xmlns:xlink="http://www.w3.org/1999/xlink" width="504" height="503" viewBox="0 0 504 503"><defs><style>.a,.bq,.q{fill:#fff;}.a{stroke:#707070;}.b{fill:none;}.c{clip-path:url(#a);}.d{fill:#d8d8d8;}.e{fill:url(#b);}.f{fill:url(#c);}.g{fill:url(#d);}.h{fill:url(#e);}.i{fill:url(#f);}.j{fill:url(#g);}.k{fill:url(#h);}.l{fill:url(#i);}.m{fill:url(#j);}.n{fill:url(#k);}.o{fill:url(#l);}.bc,.p{opacity:0.7;}.r{fill:#f8fff8;}.ay,.cw,.r{opacity:0.3;}.s{fill:url(#m);}.t{opacity:0.8;}.u{fill:#56a8ed;}.v{fill:#62afef;}.w{fill:#7abaf9;}.x{fill:url(#n);}.y{fill:url(#o);}.z{fill:url(#p);}.aa{fill:url(#q);}.ab{fill:url(#r);}.ac{fill:url(#s);}.ad{fill:url(#t);}.ae{fill:url(#u);}.af{fill:url(#v);}.ag{fill:url(#w);}.ah{fill:url(#x);}.ai{fill:url(#y);}.aj{fill:url(#z);}.ak{fill:url(#aa);}.al{fill:url(#ab);}.am{fill:url(#ac);}.an{fill:url(#ad);}.ao{fill:url(#ae);}.ap{fill:url(#af);}.aq{fill:#ffe7c0;}.ar{fill:url(#ag);}.as{fill:url(#ah);}.at{fill:url(#ai);}.au{fill:url(#aj);}.av{fill:url(#ak);}.aw{fill:url(#al);}.ax{fill:url(#am);}.ay{fill:#ffca55;}.az{fill:#f99569;}.az,.bn{opacity:0.4;}.ba,.bj{opacity:0.6;}.ba{fill:url(#an);}.bb{fill:#57afff;}.bc{fill:#164dd6;}.bd{fill:#f9f4ea;}.be{fill:url(#ao);}.bf{fill:#33333d;}.bg{fill:#d3d3d3;}.bh{fill:#f2f2f2;}.bi{fill:url(#ar);}.bk,.bq{opacity:0.9;}.bk{fill:url(#as);}.bl{fill:url(#at);}.bm{fill:url(#au);}.bn{fill:url(#av);}.bo{fill:url(#aw);}.bp{fill:url(#ax);}.br{fill:url(#ay);}.bs{fill:url(#az);}.bt{fill:url(#ba);}.bu{fill:url(#bb);}.bv{fill:#231a66;}.bw{fill:url(#bi);}.bx{fill:url(#bj);}.by{fill:url(#bk);}.bz{fill:url(#bl);}.ca{fill:#ffaf84;}.cb{fill:url(#bm);}.cc{fill:url(#bn);}.cd{fill:url(#bo);}.ce{fill:url(#bp);}.cf{fill:url(#bq);}.cg{fill:url(#br);}.ch{fill:url(#bs);}.ci{fill:url(#bt);}.cj{fill:url(#bu);}.ck{fill:url(#bv);}.cl{fill:#e3c1e8;}.cm{fill:url(#bw);}.cn{fill:url(#bx);}.co{fill:url(#by);}.cp{fill:url(#bz);}.cq{fill:url(#cb);}.cr{fill:url(#cd);}.cs{fill:url(#cf);}.ct{fill:#cecece;}.cu{fill:url(#cg);}.cv{clip-path:url(#ch);}.cw{fill:url(#ci);}</style><clipPath id="a"><rect class="a" width="504" height="503" transform="translate(0 302)"/></clipPath><linearGradient id="b" x1="0.44" y1="0.661" x2="1.479" y2="-0.006" gradientUnits="objectBoundingBox"><stop offset="0" stop-color="#f70f47"/><stop offset="1" stop-color="#ffb41d"/></linearGradient><linearGradient id="c" x1="0.653" y1="1.355" x2="0.308" y2="-0.317" xlink:href="#b"/><linearGradient id="d" x1="1.629" y1="-0.826" x2="0.696" y2="0.315" xlink:href="#b"/><linearGradient id="e" x1="0.5" y1="1.599" x2="0.5" y2="-0.819" gradientUnits="objectBoundingBox"><stop offset="0" stop-color="#36078b"/><stop offset="1" stop-color="#16b1ff"/></linearGradient><linearGradient id="f" x1="1.57" y1="-3.269" x2="0.443" y2="0.681" xlink:href="#b"/><linearGradient id="g" x1="1.767" y1="-0.738" x2="-1.476" y2="2.362" xlink:href="#b"/><linearGradient id="h" x1="-3.292" y1="6.066" x2="2.372" y2="-2.148" xlink:href="#b"/><linearGradient id="i" x1="-1.919" y1="6.567" x2="2.643" y2="-4.882" xlink:href="#b"/><linearGradient id="j" x1="2.951" y1="-6.127" x2="-0.281" y2="2.584" xlink:href="#b"/><linearGradient id="k" x1="0.17" y1="1.023" x2="0.719" y2="0.153" gradientUnits="objectBoundingBox"><stop offset="0" stop-color="#fe7200"/><stop offset="1" stop-color="#efdb29"/></linearGradient><linearGradient id="l" x1="0.5" y1="0.446" x2="0.5" y2="1.861" gradientUnits="objectBoundingBox"><stop offset="0" stop-color="#86deed"/><stop offset="1" stop-color="#ff980e"/></linearGradient><linearGradient id="m" x1="1.296" y1="0.5" x2="0.139" y2="0.5" xlink:href="#k"/><linearGradient id="n" x1="20.588" y1="1.87" x2="21.746" y2="0.654" xlink:href="#b"/><linearGradient id="o" x1="19.569" y1="5.423" x2="20.853" y2="4.361" xlink:href="#b"/><linearGradient id="p" x1="16.854" y1="8.973" x2="18.251" y2="7.977" xlink:href="#b"/><linearGradient id="q" x1="9.28" y1="12.369" x2="10.576" y2="11.267" xlink:href="#b"/><linearGradient id="r" x1="1.162" y1="1.497" x2="0.332" y2="0.412" xlink:href="#b"/><linearGradient id="s" x1="5.929" y1="0.901" x2="8.006" y2="0.079" xlink:href="#b"/><linearGradient id="t" x1="-2.677" y1="0.265" x2="-1.449" y2="-0.857" xlink:href="#b"/><linearGradient id="u" x1="5.994" y1="0.919" x2="4.011" y2="0.083" xlink:href="#b"/><linearGradient id="v" x1="3.025" y1="1.482" x2="4.275" y2="0.387" xlink:href="#b"/><linearGradient id="w" x1="4.202" y1="0.941" x2="6.008" y2="0.055" xlink:href="#b"/><linearGradient id="x" x1="4.537" y1="0.634" x2="5.67" y2="-0.619" xlink:href="#b"/><linearGradient id="y" x1="3.383" y1="0.877" x2="4.751" y2="0.11" xlink:href="#b"/><linearGradient id="z" x1="8.612" y1="1.961" x2="8.947" y2="-0.778" xlink:href="#b"/><linearGradient id="aa" x1="10.769" y1="1.511" x2="11.031" y2="-0.459" xlink:href="#b"/><linearGradient id="ab" x1="27.414" y1="0.999" x2="27.421" y2="-0.071" xlink:href="#b"/><linearGradient id="ac" x1="71.038" y1="0.957" x2="71.968" y2="-0.021" xlink:href="#b"/><linearGradient id="ad" x1="5.099" y1="0.082" x2="5.099" y2="0.9" xlink:href="#e"/><linearGradient id="ae" x1="4.427" y1="1.503" x2="4.427" y2="0.023" xlink:href="#e"/><linearGradient id="af" x1="0.5" y1="1.88" x2="0.5" y2="-7.823" xlink:href="#k"/><linearGradient id="ag" x1="-30.058" y1="0.079" x2="-30.058" y2="-0.798" xlink:href="#k"/><linearGradient id="ah" x1="16.326" y1="0.08" x2="16.326" y2="-0.798" xlink:href="#k"/><linearGradient id="ai" x1="58.689" y1="0.079" x2="58.689" y2="-0.798" xlink:href="#k"/><linearGradient id="aj" x1="-28.178" y1="0.85" x2="-28.178" y2="-8.52" xlink:href="#k"/><linearGradient id="ak" x1="-15.321" y1="0.85" x2="-15.321" y2="-8.52" xlink:href="#k"/><linearGradient id="al" x1="16.32" y1="-1.209" x2="16.32" y2="-3.203" gradientUnits="objectBoundingBox"><stop offset="0" stop-color="#fe4500"/><stop offset="1" stop-color="#efdb29"/></linearGradient><linearGradient id="am" x1="29.178" y1="0.85" x2="29.178" y2="-8.52" xlink:href="#k"/><linearGradient id="an" x1="0.073" y1="1.6" x2="0.879" y2="-0.476" xlink:href="#e"/><linearGradient id="ao" y1="0.5" x2="1" y2="0.5" gradientUnits="objectBoundingBox"><stop offset="0" stop-color="#fea600"/><stop offset="1" stop-color="#efdb29"/></linearGradient><linearGradient id="ar" x1="0.5" y1="1.777" x2="0.5" y2="-0.088" gradientUnits="objectBoundingBox"><stop offset="0" stop-color="#fea600"/><stop offset="1" stop-color="#efdb29" stop-opacity="0"/></linearGradient><linearGradient id="as" x1="1.045" y1="-0.102" x2="1.431" y2="-0.874" xlink:href="#e"/><linearGradient id="at" x1="1.284" y1="0.631" x2="1.519" y2="-0.793" xlink:href="#e"/><linearGradient id="au" x1="0.275" y1="2.673" x2="0.723" y2="-0.657" xlink:href="#e"/><linearGradient id="av" x1="0.5" y1="0.951" x2="0.5" y2="-3.8" xlink:href="#e"/><linearGradient id="aw" x1="-0.375" y1="1.856" x2="2.683" y2="-2.999" gradientUnits="objectBoundingBox"><stop offset="0" stop-color="#27a48b"/><stop offset="0.536" stop-color="#29d47d"/><stop offset="1" stop-color="#168d68"/></linearGradient><linearGradient id="ax" x1="0.115" y1="1.211" x2="1.089" y2="-0.974" xlink:href="#ao"/><linearGradient id="ay" x1="0.945" y1="-1.444" x2="1.436" y2="-3.802" gradientUnits="objectBoundingBox"><stop offset="0" stop-color="#ff664f"/><stop offset="1" stop-color="#9e005d"/></linearGradient><linearGradient id="az" x1="0.504" y1="-1.84" x2="0.511" y2="-5.128" xlink:href="#ao"/><linearGradient id="ba" x1="-0.65" y1="0.993" x2="1.65" y2="0.007" xlink:href="#ao"/><linearGradient id="bb" x1="-0.65" y1="0.993" x2="1.65" y2="0.007" xlink:href="#ao"/><linearGradient id="bi" x1="0.448" y1="0.028" x2="0.544" y2="0.959" xlink:href="#ay"/><linearGradient id="bj" x1="0.478" y1="-0.343" x2="0.532" y2="1.448" xlink:href="#ay"/><linearGradient id="bk" x1="0.985" y1="0.888" x2="1.271" y2="-3.025" xlink:href="#e"/><linearGradient id="bl" x1="0.307" y1="1.079" x2="1.042" y2="-1.691" xlink:href="#e"/><linearGradient id="bm" x1="-1.525" y1="0.61" x2="-1.085" y2="-0.925" xlink:href="#e"/><linearGradient id="bn" x1="0.643" y1="1.858" x2="0.822" y2="3.537" xlink:href="#ay"/><linearGradient id="bo" x1="0.482" y1="0.48" x2="0.695" y2="1.066" xlink:href="#ay"/><linearGradient id="bp" x1="0.583" y1="1.634" x2="0.7" y2="3.457" xlink:href="#ay"/><linearGradient id="bq" x1="-3.843" y1="0.933" x2="-4.482" y2="4.818" xlink:href="#ay"/><linearGradient id="br" x1="0.258" y1="0.981" x2="0.923" y2="-0.194" xlink:href="#e"/><linearGradient id="bs" x1="-3.378" y1="0.281" x2="-4.011" y2="1.894" xlink:href="#ay"/><linearGradient id="bt" x1="1.199" y1="-2.539" x2="-1.358" y2="8.808" gradientUnits="objectBoundingBox"><stop offset="0" stop-color="#e068a9"/><stop offset="1" stop-color="#9e005d"/></linearGradient><linearGradient id="bu" x1="0.5" y1="-1.238" x2="0.5" y2="0.352" gradientUnits="objectBoundingBox"><stop offset="0" stop-color="blue"/><stop offset="0.865" stop-color="#890073"/><stop offset="1" stop-color="#9e005d"/></linearGradient><linearGradient id="bv" x1="2.271" y1="-1.608" x2="-9.092" y2="11.532" xlink:href="#bt"/><linearGradient id="bw" x1="0.5" y1="-23.74" x2="0.5" y2="-11.724" gradientUnits="objectBoundingBox"><stop offset="0" stop-color="blue"/><stop offset="1" stop-color="#9e005d"/></linearGradient><linearGradient id="bx" x1="0.5" y1="-25.559" x2="0.5" y2="-12.972" xlink:href="#bw"/><linearGradient id="by" x1="0.5" y1="-26.936" x2="0.5" y2="-13.996" xlink:href="#bw"/><linearGradient id="bz" x1="7.406" y1="-3.578" x2="-12.351" y2="8.088" xlink:href="#bt"/><linearGradient id="cb" x1="5.083" y1="-2.206" x2="-14.674" y2="9.46" xlink:href="#bt"/><linearGradient id="cd" x1="8.837" y1="-4.422" x2="-10.921" y2="7.243" xlink:href="#bt"/><linearGradient id="cf" x1="3.652" y1="-1.361" x2="-16.104" y2="10.304" xlink:href="#bt"/><linearGradient id="cg" x1="0.5" y1="-51.327" x2="0.5" y2="-19.948" xlink:href="#bw"/><clipPath id="ch"><path class="b" d="M514.791,305.13h0c-13.948,3.949-43.834,13.317-54.451,18.663-7.441-4.082-23.518-20.669-49.669-36.384a23.919,23.919,0,0,0-11.033-3.571,71.99,71.99,0,0,0-19.66-3.8c-.019-.877-.032-1.741-.038-2.574,0-.546-.082-1.082-.136-1.618,7.409-.369,12.3-9.349,14-15.56a65.884,65.884,0,0,0,1.568-7.9c2.145-1.009,4.388-3.608,5.813-7.1C403.3,240.1,402.814,235,400.1,233.887c-1.18-.479-2.583-.091-3.968.883-.136-3.085-.378-6.324-.833-9.787a14.749,14.749,0,0,0-1.016-3.621c.173-.054.388-.1.552-.158,9.2-3.211,8.56-21.007-4.6-22.224-7.415-.016-2.047,1.76-8.053,4.2-2.795,1.135-31.413,2.224-31.324,9.57-6.961,3-8.182,10.882-7.589,21.344-2.416,1.382-2.795,6.226-.767,11.188a16.8,16.8,0,0,0,3.208,5.126,35.746,35.746,0,0,0,3.138,7.778c1.047,4.324,2.719,6.923,6.23,10.289a10.747,10.747,0,0,0-.461,2.331c-.237,3.025-.461,6.318-.643,9.617a50.389,50.389,0,0,0-9.412,1.776c-9.4,2.883-15.525,7.889-19.14,14.241a236.833,236.833,0,0,0-14.733,19.635c-15.919,23.227-21.13,35.526-22.858,41.979-2.463,5.561-2.293,11.358,1.691,13.3,1.656,17.957,6.453,68.768,9.381,87.163,4.069,25.562,22.382,40.825,48.988,40.825h29.441v11.424a4.427,4.427,0,0,0,4.425,4.428h.681v50.521a4.347,4.347,0,0,0-3.593,4.277v8.321H335.67a11.817,11.817,0,0,0-11.8,11.8,6.381,6.381,0,0,0,.117,1.132,8.9,8.9,0,0,0,4.261,16.727,9.065,9.065,0,0,0,2.183-.3,8.824,8.824,0,0,0,11.106-8.63,8.9,8.9,0,0,0-4.331-7.617H358.1a8.907,8.907,0,0,0,4.6,16.547,9.016,9.016,0,0,0,2.18-.3,9.064,9.064,0,0,0,2.183.3,8.907,8.907,0,0,0,4.6-16.547h42.383a8.907,8.907,0,0,0,4.6,16.547,9.042,9.042,0,0,0,2.183-.3,9.018,9.018,0,0,0,2.18.3,8.909,8.909,0,0,0,8.324-5.766,29.64,29.64,0,0,1,3.353.17,45.284,45.284,0,0,0,10.185.132,8.6,8.6,0,0,0,.694,1.277,2.522,2.522,0,0,0,2.422,2.561,8.883,8.883,0,0,0,5.113,1.624,9.038,9.038,0,0,0,2.179-.3,9.039,9.039,0,0,0,2.18.3,8.861,8.861,0,0,0,5.217-1.713c1.659.044,3.3.126,4.952.3,4.791.5,14.263,1.618,22.2-1.366s-6.646-3.665-13.632-6.277a34.992,34.992,0,0,1-12.39-7.643c.028-.06.076-.11.1-.17,18.026-51.2,46.064-98.351,59.343-125.726a25.839,25.839,0,0,0,4.772-15.228c.1-4.873-1.6-8.633-4.369-11.09-4.138-4.416-11.554-7.324-23.732-6.8-3.826.161-9.7.271-16.657.35A12.3,12.3,0,0,0,480,428.967c-4.489-4.063-12.112-6.356-24.208-4.842-5.57.7-15.5,1.637-26.849,2.64-.082-.735-.132-1.136-.132-1.136s-.379-47.9-4.145-90.771c18.808,10.708,28.394,13.516,33.207,14.2a3.106,3.106,0,0,0,.7-.035c.073,0,.148-.006.227-.013a3.429,3.429,0,0,0,.584-.12,6.766,6.766,0,0,0,1.1-.227c10.727-3.678,24.294-9.078,44.525-20.991,12.26-7.214,16.4-8.608,19.1-11.491a27.721,27.721,0,0,0,10.831-4.7c4-2.732,15.077-12.292,15.5-21.161C550.831,282.291,518.554,302.774,514.791,305.13ZM327.615,344.939c.561,1.952,1.107,3.873,1.624,5.75-1.845-.426-3.675-.842-5.469-1.233C324.978,348.03,326.271,346.513,327.615,344.939ZM478.9,480.945h-7.823c.369-.864.735-1.725,1.094-2.571q4.022-.487,8.04-1.019Q479.541,479.13,478.9,480.945Zm-75.634,84.772V515.2h.681a4.425,4.425,0,0,0,4.425-4.428V499.343h24.637c-5.6,27.249-9.917,56.775-15.443,78.972H406.854v-8.321A4.35,4.35,0,0,0,403.262,565.717ZM440,594.108a17.014,17.014,0,0,1-4.949-2.681h11.242a1.9,1.9,0,0,0,.609,1.2,9.01,9.01,0,0,0-1.994,2.854A38.976,38.976,0,0,1,440,594.108Zm10.671-15.727c-.221-.01-.426-.066-.643-.066H434.822c8-28.464,18.739-55.757,28.457-78.972h9.573C464.8,525.864,457.987,555.557,450.672,578.381Z" transform="translate(-286.204 -198.979)"/></clipPath><linearGradient id="ci" x1="2.561" y1="-1.682" x2="3.908" y2="-1.205" xlink:href="#bw"/></defs><g class="c" transform="translate(0 -302)"><g transform="translate(-444.748 -22.906)"><g transform="translate(211.748 99.906)"><ellipse class="d" cx="294.468" cy="6.817" rx="294.468" ry="6.817" transform="translate(148.364 714.672)"/><path class="d" d="M242.678,321.22c0,1.959,19.821,3.548,44.272,3.548s44.272-1.59,44.272-3.548-19.821-3.552-44.272-3.552S242.678,319.258,242.678,321.22Z" transform="translate(-145.118 369.195)"/><g transform="translate(603.8 335.13)"><path class="e" d="M455.5,212.572c8.926-2.791,12.494,3.678,11.639,8.649-1.214,7.043-5.047,7.848,4.35,13.929,6.936,4.485,8.573,13.787.751,18.452-10.932,6.52.722,11.557,3.265,17.143,5.255,11.532-3.35,14.352-17.272,20.089-14.295,5.889-24.988,3.022-34.961-6.069-7.362-6.712-11.756-14.289-7.333-21.143,6.352-9.841,16.765-3.157,12.724-12.74-2.416-5.734-2.646-16.421,10.39-17.357S442.645,216.594,455.5,212.572Z" transform="translate(-379.493 -193.783)"/><path class="f" d="M426.146,206.562c-11.239-2.347-14.822,5.977-13.185,11.948,2.322,8.459,7.1,8.986-3.659,17.531-7.936,6.308-8.829,17.862,1.281,22.631,14.131,6.662.5,14.206-1.946,21.329-5.044,14.714,5.8,17.137,23.492,22.483,18.159,5.491,30.883.719,41.985-11.576,8.2-9.075,12.658-18.849,6.438-26.7-8.93-11.267-20.852-1.861-17.058-14.049,2.271-7.292,1.277-20.373-14.755-19.966S442.333,209.94,426.146,206.562Z" transform="translate(-403.175 -206.155)"/><path class="g" d="M423.691,241.321c-11.642,16.992-15.4,28.586-.681,30.034s33.69-36.4,22.767-43.673C438.071,222.55,429.245,233.218,423.691,241.321Z" transform="translate(-381.161 -162.675)"/><path class="h" d="M425.2,290.382h33.365a8.5,8.5,0,0,0,8.39-7.129l7.34-44.913a1.7,1.7,0,0,0-1.672-1.968H411.141a1.7,1.7,0,0,0-1.669,1.968l7.34,44.913A8.5,8.5,0,0,0,425.2,290.382Z" transform="translate(-389.659 -141.06)"/><path class="i" d="M420.873,222.767c10.39,3.154,19.039,7.5,12.314,10.551s-30.085-6.659-26.826-10.828C408.66,219.546,415.918,221.259,420.873,222.767Z" transform="translate(-396.981 -174.432)"/><path class="j" d="M411.377,217.033c2.385,6.554,4.832,9.87,8.132,6.107s-3.378-16.443-7.532-14.872C409.046,209.378,410.245,213.91,411.377,217.033Z" transform="translate(-388.161 -201.893)"/><path class="k" d="M429.15,219.383c-2.555,6.488-2.918,10.595,2.047,9.961s8.362-14.557,4.208-16.131C432.475,212.106,430.371,216.292,429.15,219.383Z" transform="translate(-351.167 -191.342)"/><path class="l" d="M437.034,230.755c4.529-4.022,6.422-7.062,2.328-8.519s-12.191,8-9.592,10.841C431.606,235.089,434.877,232.67,437.034,230.755Z" transform="translate(-346.971 -171.842)"/><path class="m" d="M419.957,221.5c-4.1-1.382-6.655-1.479-6.107,1.577s9.28,4.725,10.125,2.1C424.572,223.331,421.91,222.158,419.957,221.5Z" transform="translate(-380.338 -175.091)"/></g><g transform="translate(40.387 225.099)"><path class="n" d="M224.552,435.236H665.281V171.271H224.552Zm433.828-6.9H231.457V178.172H658.38Z" transform="translate(-224.552 -171.271)"/><rect class="o" width="433.826" height="257.064" transform="translate(443.721 260.515) rotate(180)"/><g class="p" transform="translate(28.047 48.318)"><path class="q" d="M342.151,200.885a4.192,4.192,0,0,1-1.139-3.378c.416-1.88,2.886-3.009,6.586-3.337a4.457,4.457,0,0,1-.64-3.148c1.091-5.006,13.544-5.9,27.8-2.016a68.933,68.933,0,0,1,13.522,5.179,3.14,3.14,0,0,1,.025-1.811c1.287-3.722,10.951-3.022,21.571,1.571a58.394,58.394,0,0,1,7.176,3.7c.817-1.476,5.006-1.388,9.668.252a22.041,22.041,0,0,1,6.031,3.129l37.106,2.3H305.178Z" transform="translate(-78.915 -186.59)"/><path class="q" d="M292.649,231.03a2.849,2.849,0,0,1-.779-2.312c.284-1.287,1.975-2.063,4.51-2.284a3.053,3.053,0,0,1-.442-2.157c.751-3.425,9.276-4.044,19.035-1.378a46.918,46.918,0,0,1,9.261,3.545,2.17,2.17,0,0,1,.016-1.24c.883-2.552,7.5-2.069,14.768,1.076a40.2,40.2,0,0,1,4.917,2.533c.558-1.013,3.425-.953,6.617.173a15.053,15.053,0,0,1,4.126,2.142l25.407,1.571H267.334Z" transform="translate(-160.438 -111.94)"/><path class="q" d="M287.4,231.892a4.873,4.873,0,0,1-.489-3.022c.634-3.246,5.387-4.813,12.115-4.57a9.9,9.9,0,0,1-.259-4.567c2.3-11.67,28.4-13.781,58.321-4.709a144.507,144.507,0,0,1,16.033,5.892,8.606,8.606,0,0,1-.278-4.154c1.605-8.16,16.648-10.926,36.021-7.554a6.232,6.232,0,0,1,.174-.735c2.842-9.122,23.489-7.744,46.7,2.87,5.8-2.353,17.588-.732,30.35,4.709A79.873,79.873,0,0,1,504.4,226.76a3.518,3.518,0,0,1-.3-2.356c.924-3.334,8.6-3.075,17.156.565a35.188,35.188,0,0,1,11.642,7.617l48.146,3.567H233.444Z" transform="translate(-233.444 -152.487)"/></g><g transform="translate(23.749 3.451)"><path class="r" d="M375.232,429.429h74.6L316.711,172.365h-74.6Z" transform="translate(-210.483 -172.365)"/><path class="r" d="M365.206,429.429h18.352L250.437,172.365H232.082Z" transform="translate(-232.082 -172.365)"/><path class="r" d="M446.017,429.429h18.355L331.25,172.365H312.895Z" transform="translate(-57.995 -172.365)"/></g><path class="s" d="M226.6,435.236H667.321V171.271H226.6Zm433.825-6.9H233.5V178.172H660.42Z" transform="translate(-220.151 -171.271)"/><g class="t" transform="translate(35.485 156.538)"><rect class="u" width="45.637" height="60.654" transform="translate(90.266 39.871)"/><rect class="v" width="36.92" height="33.538" transform="translate(0 66.987)"/><rect class="w" width="20.518" height="60.654" transform="translate(82.568 39.871)"/><rect class="u" width="45.637" height="100.524" transform="translate(36.931)"/><rect class="v" width="4.845" height="60.654" transform="translate(82.568 39.871)"/><rect class="w" width="20.505" height="100.524" transform="translate(29.246)"/><rect class="w" width="32.817" height="6.954" transform="translate(82.571 24.574) rotate(180)"/><rect class="w" width="32.817" height="6.954" transform="translate(82.571 37.233) rotate(180)"/><rect class="w" width="32.817" height="6.954" transform="translate(82.571 49.891) rotate(180)"/><rect class="w" width="32.817" height="6.954" transform="translate(82.571 62.55) rotate(180)"/><rect class="w" width="32.817" height="6.952" transform="translate(82.571 75.206) rotate(180)"/><rect class="w" width="32.817" height="6.952" transform="translate(82.571 87.865) rotate(180)"/><rect class="w" width="32.817" height="6.955" transform="translate(49.751 93.569)"/><rect class="w" width="32.817" height="6.953" transform="translate(82.571 11.916) rotate(180)"/><path class="u" d="M280.344,253.009v30.444h45.625V238.526h-32.8Z" transform="translate(-139.851 -182.929)"/><path class="w" d="M277.9,261.693v21.76h20.518V238.526L285.6,253.009l-4.59,5.179Z" transform="translate(-145.108 -182.929)"/><rect class="w" width="32.814" height="6.954" transform="translate(186.124 62.55) rotate(180)"/><rect class="w" width="32.814" height="6.952" transform="translate(186.124 75.206) rotate(180)"/><rect class="w" width="32.814" height="6.952" transform="translate(186.124 87.865) rotate(180)"/><rect class="w" width="32.817" height="6.955" transform="translate(153.313 93.569)"/><rect class="u" width="41.085" height="8.039" transform="translate(131.347 39.872) rotate(180)"/><rect class="u" width="25.443" height="8.04" transform="translate(123.526 32.614) rotate(180)"/><rect class="u" width="31.154" height="15.615" transform="translate(203.108 84.909)"/><rect class="w" width="14.006" height="15.615" transform="translate(197.853 84.909)"/><rect class="u" width="29.999" height="8.233" transform="translate(231.157 84.911) rotate(180)"/><rect class="u" width="9.681" height="10.22" transform="translate(221.972 77.21) rotate(180)"/><rect class="v" width="2.418" height="9.793" transform="translate(224.393 90.731)"/></g></g><g transform="translate(0 334.272)"><path class="x" d="M273.418,320.124c10.336-6.58-2.9-26.71-26.946-28.659,0,0-2.571,10.592-.211,20.01C248.273,319.506,258.947,329.334,273.418,320.124Z" transform="translate(-139.547 -21.523)"/><path class="y" d="M273.763,326.013c12.021-2.337,7.081-25.912-14.585-36.535,0,0-6.267,8.92-7.523,18.543C250.586,316.238,256.923,329.29,273.763,326.013Z" transform="translate(-126.026 -25.803)"/><path class="z" d="M270.152,325.8c10.677,2.993,16.244-18.089,3.028-35.475,0,0-8.693,4.671-13.61,11.951C255.368,308.486,255.2,321.617,270.152,325.8Z" transform="translate(-114.015 -23.981)"/><path class="aa" d="M266.779,319.47c7.444,6.614,20.241-8.213,16.411-27.457,0,0-8.857.35-15.7,4.29C261.66,299.668,256.352,310.2,266.779,319.47Z" transform="translate(-105.993 -20.342)"/><path class="ab" d="M330.881,366.559c40.907-16.045,8.185-96.017-75.152-119.44,0,0-16.332,35.529-14.509,70.3C242.775,347.094,273.595,389.029,330.881,366.559Z" transform="translate(-148.564 -117.053)"/><path class="ac" d="M248.359,250.748a74.17,74.17,0,0,1,19.061,20.1,57.063,57.063,0,0,1,3.709,5.788c1.126,2,2.47,3.842,3.406,5.949.962,2.088,1.987,4.129,3,6.17l1.508,3.063,1.2,3.22a174.837,174.837,0,0,1,8.068,26.18c.855,4.517,1.842,8.992,2.763,13.484l1.621,13.733c.268,2.29.719,4.555.842,6.867l.35,6.939c.252,4.627.429,9.258.754,13.888-.133,9.308-.01,18.632-.274,27.984-.255,4.678-.6,9.349-.776,14.052l-.287,7.053-.142,3.536-.337,3.514-1.123,14.14-.558,7.1-.353,7.157.672.136,4.927-28.009.6-3.5.391-3.533.779-7.072,1.561-14.14.369-3.536.142-3.555.278-7.11.552-14.225-.536-14.229-.271-7.116c-.1-2.372-.524-4.719-.77-7.078l-1.852-14.131-3.075-13.919a157.671,157.671,0,0,0-9.425-26.861l-1.426-3.271-1.735-3.113-3.495-6.223c-1.12-2.1-2.665-3.936-3.977-5.917a54.477,54.477,0,0,0-4.28-5.7c-5.952-7.4-13.077-13.992-21.587-18.439Z" transform="translate(-132.88 -110.588)"/><path class="ad" d="M270.494,334.647c-31.141-12.213-6.23-73.1,57.208-90.926,0,0,12.434,27.047,11.046,53.52C337.565,319.829,314.107,351.752,270.494,334.647Z" transform="translate(-114.016 -124.373)"/><path class="ae" d="M317.806,246.033c-6.45,7.45-11.642,15.828-16.824,24.193-2.422,4.28-4.816,8.586-6.977,13l-3.334,6.6-3.075,6.715A329.954,329.954,0,0,0,268.5,352.43c-1.1,4.8-2.038,9.639-3.06,14.459l-1.479,7.239-1.11,7.3-2.06,14.623c-.489,4.9-.845,9.8-1.186,14.711l-.527,7.349c-.114,2.451-.117,4.914-.18,7.368l-.271,14.714c-.054,4.9.483,9.81.7,14.7.252,4.892.612,9.775,1.047,14.642l.52-.009c.177-9.74.028-19.49.473-29.217l.924-14.585c.167-2.429.278-4.861.492-7.286l.839-7.255,1.675-14.516,2.375-14.412,1.2-7.2,1.527-7.141c1.057-4.753,2.022-9.529,3.151-14.263a407.029,407.029,0,0,1,17.8-55.583c7.362-18,15.881-35.664,26.87-51.729Z" transform="translate(-110.761 -119.392)"/><path class="af" d="M337.824,380.616c58.807-18.026,21.685-133.142-92.128-174.733,0,0-26.593,47.843-27.763,96.572C216.933,344.037,255.468,405.859,337.824,380.616Z" transform="translate(-198.464 -205.883)"/><path class="ag" d="M230.035,210.961q3.246,4.49,6.157,9.216c2.066,3.047,3.977,6.2,5.876,9.359,1.956,3.11,3.75,6.324,5.5,9.56,1.732,3.246,3.64,6.368,5.2,9.709,3.34,6.539,6.841,12.957,9.762,19.685,1.508,3.334,3.1,6.617,4.675,9.914l4.23,10.115,4.214,10.1,3.8,10.267,3.817,10.245c1.281,3.41,2.211,6.952,3.334,10.415,1.057,3.492,2.23,6.939,3.347,10.406l1.7,5.195c.527,1.744.943,3.52,1.419,5.28l5.561,21.143c1.678,7.088,3.088,14.247,4.649,21.37.729,3.57,1.605,7.119,2.214,10.715.536,3.608,1.054,7.22,1.665,10.816,1.135,7.214,2.473,14.405,3.448,21.65.672,7.274,1.486,14.544,2.325,21.827l1.236,10.929.583,10.983,1.366,22.023c.893,14.721.325,29.457,1.177,44.358l.814.073,1.293-22.177.65-11.093c.227-3.694.486-7.39.356-11.093l-.173-22.221-.1-11.109-.817-11.084-1.634-22.168c-.8-7.359-1.978-14.683-2.949-22.029L313.2,402.329c-.58-3.656-1.435-7.27-2.139-10.9-1.517-7.255-2.88-14.547-4.52-21.77a473.575,473.575,0,0,0-29.274-83.829c-12.541-26.811-27.4-52.754-46.635-75.417Z" transform="translate(-172.353 -196.133)"/><path class="ah" d="M317.676,345.07c35.952-26.022-16.238-95.969-103.653-97.834,0,0-7,38.869,3.561,72.417C226.6,348.281,267.326,381.51,317.676,345.07Z" transform="translate(-211.748 -116.801)"/><path class="ai" d="M215.832,250.038a182.613,182.613,0,0,1,24.719,20l5.788,5.391,5.507,5.681c3.75,3.7,7.11,7.775,10.532,11.768a356.322,356.322,0,0,1,35.992,51.625l7.57,13.837a73.628,73.628,0,0,1,3.526,7.059l3.35,7.154,3.422,7.125c.558,1.192,1.167,2.366,1.691,3.577l1.464,3.675c1.911,4.917,3.968,9.784,6.047,14.654,2.211,4.823,3.788,9.879,5.542,14.882l5.227,15.052c3.359,10.093,6.034,20.4,9.551,30.583l.577-.11c-2.391-10.421-4.577-20.893-7.138-31.271l-4.548-15.386c-1.536-5.119-2.9-10.3-4.908-15.266l-5.58-15.042-1.394-3.766c-.5-1.236-1.085-2.441-1.621-3.668l-3.3-7.315-3.3-7.318a75.364,75.364,0,0,0-3.514-7.214l-7.57-14.159a299.22,299.22,0,0,0-37.718-51.8c-3.665-3.9-7.261-7.87-11.242-11.453l-5.845-5.5-6.132-5.182a159.029,159.029,0,0,0-26.448-18.137Z" transform="translate(-202.949 -111.906)"/><path class="aj" d="M282.605,252.725a54.14,54.14,0,0,0-13.781-7.387c-2.381-1.006-4.857-1.656-7.308-2.426-2.476-.672-4.99-1.177-7.5-1.729a80.141,80.141,0,0,0-15.421-1.2,45.431,45.431,0,0,0-15.487,2.883l.016.542a154.755,154.755,0,0,1,29.924,3.116,291.394,291.394,0,0,1,29.394,6.715Z" transform="translate(-187.269 -132.494)"/><path class="ak" d="M271.823,244.637a40.255,40.255,0,0,0-10.327-8.22,58.935,58.935,0,0,0-5.731-2.959c-1.965-.858-3.99-1.568-6-2.321a59.838,59.838,0,0,0-12.692-2.586,34.382,34.382,0,0,0-13.26,1.2l-.057.539a129.026,129.026,0,0,1,24.325,6.006,242.71,242.71,0,0,1,23.515,8.835Z" transform="translate(-185.886 -157.392)"/><path class="al" d="M252.417,261.675a43.076,43.076,0,0,0,4-7.74c1.006-2.485,1.921-4.867,2.709-7.176.29-1.211.792-2.284,1.161-3.419l.577-1.684a13.839,13.839,0,0,0,.634-1.64,37.123,37.123,0,0,1,3.678-7.056l-.189-.464a15.523,15.523,0,0,0-6.652,5.148,26.8,26.8,0,0,0-3.911,7.479,50.811,50.811,0,0,0-2.5,16.553Z" transform="translate(-125.216 -148.553)"/><path class="am" d="M246.974,246.893a31.5,31.5,0,0,0,1.621-6.513c.344-2.057.486-4.025.7-5.924.095-1.918.284-3.747.479-5.551a23.438,23.438,0,0,1,1.385-5.927l-.214-.309a11.618,11.618,0,0,0-3.921,5.138,21.266,21.266,0,0,0-1.476,6.321,46.476,46.476,0,0,0,1.054,12.85Z" transform="translate(-139.125 -169.723)"/><g transform="translate(97.112 284.224)"><path class="an" d="M256.482,366.061h50.558a4.964,4.964,0,0,0,4.927-4.375l6.968-58.6a4.959,4.959,0,0,0-4.927-5.545H249.515a4.958,4.958,0,0,0-4.924,5.545l6.968,58.6A4.963,4.963,0,0,0,256.482,366.061Z" transform="translate(-238.184 -292.656)"/><path class="ao" d="M247.331,312.5H324.9a3.273,3.273,0,0,0,3.236-2.776l1.52-9.964a3.267,3.267,0,0,0-3.233-3.763H245.807a3.27,3.27,0,0,0-3.233,3.763l1.523,9.964A3.27,3.27,0,0,0,247.331,312.5Z" transform="translate(-242.536 -295.993)"/></g></g><g transform="translate(152.778 484.449)"><path class="ap" d="M269.552,272.244h564.3a9.374,9.374,0,0,0,9.368-9.374h0a9.372,9.372,0,0,0-9.368-9.374h-564.3a9.373,9.373,0,0,0-9.368,9.374h0A9.375,9.375,0,0,0,269.552,272.244Z" transform="translate(-260.184 -253.495)"/><path class="aq" d="M401.748,272.244H549.087a9.374,9.374,0,0,0,9.368-9.374h0a9.372,9.372,0,0,0-9.368-9.374H401.748a9.374,9.374,0,0,0-9.374,9.374h0A9.376,9.376,0,0,0,401.748,272.244Z" transform="translate(24.579 -253.495)"/><rect class="aq" width="18.768" height="218.268" transform="translate(550.892 18.741)"/><rect class="aq" width="18.765" height="218.237" transform="translate(430.404 18.772)"/><rect class="ar" width="9.398" height="218.237" transform="translate(430.404 18.772)"/><rect class="aq" width="18.765" height="218.237" transform="translate(13.389 18.772)"/><rect class="as" width="18.737" height="218.268" transform="translate(133.876 18.741)"/><rect class="at" width="9.398" height="218.237" transform="translate(13.389 18.772)"/><path class="au" d="M453.586,259.439v6.025L434.843,278.85V259.439Z" transform="translate(116.065 -240.692)"/><path class="av" d="M396.641,259.439h18.744v6.025L396.641,278.85Z" transform="translate(33.77 -240.692)"/><path class="aw" d="M302.63,259.439h18.744v6.025L302.63,278.85Z" transform="translate(-168.747 -240.692)"/><path class="ax" d="M283.171,259.439v6.025L264.428,278.85V259.439Z" transform="translate(-251.042 -240.692)"/></g><g transform="translate(438.986 315.799)"><path class="ay" d="M524.234,312.833H350.923l12.734-112.807H536.968Z" transform="translate(-350.923 -200.026)"/><path class="az" d="M366.282,202.6l-1.839,16.272L351.709,331.677H525.02L537.757,218.87l1.836-16.272Z" transform="translate(-349.229 -194.486)"/><g transform="translate(0 5.632)"><path class="ba" d="M524.234,319.778H350.923l12.734-112.807H536.968Z" transform="translate(-350.923 -190.699)"/><path class="q" d="M516.288,278.015h-163.6l6.167-54.632h163.6Z" transform="translate(-347.111 -155.343)"/><g transform="translate(10.159 63.477)"><path class="bb" d="M400.837,268.965H354.144l5.008-44.351h46.694Z" transform="translate(-354.144 -216.168)"/><path class="bc" d="M399.161,257.623h-37.57l4.029-35.687h37.57Z" transform="translate(-338.101 -221.936)"/></g><g transform="translate(12.58 48.756)"><path class="bd" d="M390.922,229.176H354.911l1.346-11.907h36.011Z" transform="translate(-354.911 -217.27)"/><path class="be" d="M374.076,219.558H356.725l.188-1.649h17.351Z" transform="translate(-351.005 -215.893)"/></g><g transform="translate(121.831 64.681)"><path class="bb" d="M436.578,247.4H389.884l2.834-25.084h46.691Z" transform="translate(-388.824 -222.318)"/><path class="bf" d="M436.374,233.3H389.681l.2-1.8h46.694Z" transform="translate(-389.262 -202.535)"/><path class="bf" d="M436.238,234.479H389.548l.2-1.8h46.691Z" transform="translate(-389.548 -199.997)"/></g><path class="bd" d="M404.406,227.844H368.394l1.343-11.907h36.015Z" transform="translate(-313.286 -171.383)"/><g transform="translate(107.711 48.756)"><path class="be" d="M463.612,229.176H385.071l1.346-11.907h78.538Z" transform="translate(-385.071 -217.27)"/><path class="bd" d="M416.26,219.558H386.292l.188-1.649h29.965Z" transform="translate(-382.442 -215.893)"/><path class="bd" d="M416.148,220.546H386.181l.188-1.651h29.965Z" transform="translate(-382.682 -213.767)"/></g><g transform="translate(3.795 25.015)"><path class="q" d="M515.722,226.17h-163.6l1.857-16.427H517.576Z" transform="translate(-352.126 -209.743)"/><path class="be" d="M411.405,222.366H399.5l1.343-11.907h11.905Z" transform="translate(-250.073 -208.2)"/><path class="bb" d="M406,222.366H394.094l1.343-11.907h11.905Z" transform="translate(-261.719 -208.2)"/><path class="bb" d="M400.593,222.366H388.688l1.343-11.907h11.905Z" transform="translate(-273.366 -208.2)"/><path class="bb" d="M393.181,212.939H354.049l.259-2.3h39.131Z" transform="translate(-347.984 -207.803)"/><path class="bb" d="M393.034,214.234H353.9l.262-2.3H393.3Z" transform="translate(-348.3 -205.015)"/><path class="bb" d="M371.108,215.528H353.757l.259-2.3h17.351Z" transform="translate(-348.613 -202.227)"/></g><g transform="translate(66.894 77.224)"><path class="bb" d="M419.158,252.582H372.468L375.3,227.5h46.691Z" transform="translate(-371.405 -223.7)"/><path class="bf" d="M418.957,238.48H372.264l.2-1.8h46.694Z" transform="translate(-371.845 -203.917)"/><path class="bf" d="M418.825,239.659H372.131l.2-1.8h46.694Z" transform="translate(-372.131 -201.379)"/><path class="bc" d="M399.05,241.909h-17.9l1.762-15.614h17.9Z" transform="translate(-352.707 -226.295)"/></g><g transform="translate(12.734)"><path class="bg" d="M528.271,218.084H354.96l1.839-16.272H530.11Z" transform="translate(-354.96 -201.812)"/><path class="bh" d="M523,209.556H356.1l.607-5.369h166.9Z" transform="translate(-352.509 -196.695)"/><path class="bd" d="M359.145,205.519h-2.791l.317-2.789h2.788Z" transform="translate(-351.956 -199.836)"/><path class="bd" d="M360.719,205.519h-2.791l.314-2.789h2.791Z" transform="translate(-348.567 -199.836)"/><path class="bd" d="M362.291,205.519H359.5l.314-2.789H362.6Z" transform="translate(-345.18 -199.836)"/></g></g></g><path class="bi" d="M378.838,346.651,352.126,202.42H538.695L407.715,346.651Z" transform="translate(90.654 120.93)"/><g class="bj" transform="translate(552.812 316.472)"><path class="bk" d="M413.77,201.089l5.015,12.538a1.355,1.355,0,0,1-.754,1.76l-24.152,9.658a1.354,1.354,0,0,1-1.76-.754L387.1,211.754a1.367,1.367,0,0,1,.044-1.1,1.352,1.352,0,0,1,.71-.662l24.152-9.658a1.36,1.36,0,0,1,1.76.754Z" transform="translate(-387.01 -200.24)"/><path class="bl" d="M412.89,200.326l-6.942,12.2a4.723,4.723,0,0,1-5.454,2.18l-13.44-4.05a1.352,1.352,0,0,1,.71-.662l24.152-9.658A1.35,1.35,0,0,1,412.89,200.326Z" transform="translate(-386.916 -200.24)"/></g><path class="bm" d="M396.233,249.083H378.881a28.166,28.166,0,0,0-23.291,12.33L354.512,263H420.6l-1.082-1.587A28.162,28.162,0,0,0,396.233,249.083Z" transform="translate(95.794 221.45)"/><path class="bn" d="M383.027,250.467c0,.561-4.8,1.019-10.721,1.019s-10.715-.457-10.715-1.019,4.8-1.019,10.715-1.019S383.027,249.9,383.027,250.467Z" transform="translate(111.044 222.236)"/><g class="p" transform="translate(494.446 298.141)"><path class="bo" d="M401.084,197.9a21.943,21.943,0,0,0-32.012,9.8l20.168,8.674Z" transform="translate(-367.287 -194.428)"/><path class="bp" d="M411.245,199.152,390.459,206.2l-21.931-.732c-.016.246-.022.486-.022.732a21.953,21.953,0,1,0,42.739-7.053Z" transform="translate(-368.506 -184.252)"/><path class="bq" d="M396.252,206.954a21.887,21.887,0,0,0-8.942-11.424l-11.844,18.477Z" transform="translate(-353.513 -192.054)"/><path class="br" d="M370.276,198.638a21.421,21.421,0,0,0-1.763,7.942l21.931.732Z" transform="translate(-368.491 -185.359)"/></g><g transform="translate(48.634 236.072)"><path class="bs" d="M661.92,181.584H227.166l3.154-6.834H665.074Z" transform="translate(-227.166 -174.75)"/><path class="bt" d="M248.766,235.263a1.576,1.576,0,0,1-1.577-1.577V176.91a1.577,1.577,0,0,1,3.154,0v56.775A1.576,1.576,0,0,1,248.766,235.263Z" transform="translate(-184.034 -173.494)"/><path class="bu" d="M346.065,235.263a1.576,1.576,0,0,1-1.577-1.577V176.91a1.577,1.577,0,1,1,3.154,0v56.775A1.574,1.574,0,0,1,346.065,235.263Z" transform="translate(25.567 -173.494)"/><path class="bs" d="M661.92,184.584H227.166l3.154-6.834H665.074Z" transform="translate(-227.166 -168.287)"/><path class="bs" d="M661.92,187.584H227.166l3.154-6.834H665.074Z" transform="translate(-227.166 -161.825)"/><path class="bs" d="M661.92,190.584H227.166l3.154-6.834H665.074Z" transform="translate(-227.166 -155.362)"/><path class="bs" d="M661.92,193.584H227.166l3.154-6.834H665.074Z" transform="translate(-227.166 -148.9)"/><path class="bs" d="M661.92,196.584H227.166l3.154-6.834H665.074Z" transform="translate(-227.166 -142.437)"/><path class="bs" d="M661.92,199.584H227.166l3.154-6.834H665.074Z" transform="translate(-227.166 -135.975)"/></g></g><g transform="translate(446.573 412.401)"><path class="bv" d="M344.26,324c1.129,1.883,1.249,4.861,8.236,7.472s21.562,3.29,13.629,6.274-14.159,2.5-18.954,2-7.624.249-13.241.489c-7.4.315-7.479-.123-6.876-8.217C327.887,320.881,340.62,317.909,344.26,324Z" transform="translate(-198.672 63.653)"/><path class="bw" d="M327.213,431.116c12.068-41.443,17.673-118.97,38.478-149.266,13.223-19.247,38.885-11.652,29.375,14.169C384.9,323.611,359.124,375.126,344.69,430.1,343.274,435.5,325.866,435.979,327.213,431.116Z" transform="translate(-197.999 -43.696)"/><path class="bx" d="M440.415,307.43c11.046-4.075,20.606-41.84-20.042-36.75-18.036,2.258-81.785,7.075-91.386,8.251s-23.6,3.5-25.133,8.415c-7.662,24.565,22.161,46.66,58.037,38.629C385.873,320.608,417.513,315.877,440.415,307.43Z" transform="translate(-250.764 -45.534)"/><path class="by" d="M367.287,266.317c-5.9,4.492-12.213,4.406-29.526,6.479-24.934,2.987-31.05,2.1-46.9-1.53-10.352-2.369-2.2-24.947,12.118-25.571,12.106-.53,54.287,12.238,61.655,11.885C369.507,257.35,372.081,262.671,367.287,266.317Z" transform="translate(-286.196 -98.378)"/><path class="bz" d="M286.6,301.7c1.079-5.7,5.438-18.01,23.366-44.168,10.939-15.957,16.746-22,20.764-26.413,7.16-7.87,17.818-5.192,20.3-.186,3.993,8.068,3.952,21.707.454,26.063-19.761,24.565-36.459,42.254-40.191,49.041C305.835,315.958,285.317,308.454,286.6,301.7Z" transform="translate(-285.456 -140.439)"/><path class="bv" d="M354.136,325.127c1.126,1.883,6.286,6.122,13.27,8.734s21.562,3.287,13.632,6.274-17.408,1.874-22.2,1.369a100.551,100.551,0,0,0-15.033-.145c-7.4.318-7.479-.12-6.876-8.214C337.759,322.007,350.5,319.036,354.136,325.127Z" transform="translate(-177.398 66.078)"/><path class="ca" d="M305.783,239.223c1.5,14.982,1.937,18.3,8.482,24.436s16.771,7.031,23.871,7.028c7.671,0,12.73-9.251,14.462-15.591,1.795-6.564,3.649-18.894,1.5-35.3-1.091-8.318-11.358-18.4-21.944-18.4S302.124,202.615,305.783,239.223Z" transform="translate(-244.977 -193.789)"/><path class="ca" d="M308.554,228.413c-.4,5.2-.789,11.172-.962,16.629-.221,7.154,5.356,13.847,12.481,14.512a7.792,7.792,0,0,0,.82.038c6.469,0,14.083-5.86,13.516-12.336-.372-4.214-.511-8.46-.533-12.185a16.839,16.839,0,0,0-11.226-15.8h0A10.582,10.582,0,0,0,308.554,228.413Z" transform="translate(-240.118 -156.589)"/><path class="cb" d="M300.74,279.52c12.027,39.531,15.97,63.166,13.617,90.778H404.91s-.53-67.206-6.6-113.652c-1.41-10.8-7.624-20.531-19.111-26.634-6.816-3.621-19.13-5.346-24.139-5.346h-16.73a63.38,63.38,0,0,0-17.673,2.2C295.968,234.434,293.769,256.608,300.74,279.52Z" transform="translate(-262.281 -143.646)"/><path class="cc" d="M305.274,326.233s-7.822-19-.369-55.4h90.554a514.971,514.971,0,0,1,3.3,55.4Z" transform="translate(-252.83 -44.185)"/><path class="cd" d="M337.074,429c15.415-40.317,27.334-117.128,50.546-145.62,14.749-18.105,39.708-8.434,28.12,16.518-12.39,26.672-42.288,75.906-61.163,129.521C352.718,434.686,335.332,433.734,337.074,429Z" transform="translate(-176.86 -37.29)"/><path class="ce" d="M452.486,311.24c11.343-3.157,23.959-40.011-16.976-38.26-18.156.776-82.085.366-91.752.754s-23.8,1.555-25.735,6.33c-9.646,23.858,18.272,48.319,54.684,43.247C397.051,319.917,428.972,317.788,452.486,311.24Z" transform="translate(-221.78 -39.698)"/><path class="ca" d="M320.439,217.57c-2.116,5.182-1.634,10.283,1.085,11.393s6.63-2.2,8.747-7.378,1.634-10.283-1.082-11.393S322.559,212.388,320.439,217.57Z" transform="translate(-215.27 -175.285)"/><path class="ca" d="M314.782,217.57c2.12,5.182,1.631,10.283-1.082,11.393s-6.63-2.2-8.747-7.378-1.634-10.283,1.079-11.393S312.666,212.388,314.782,217.57Z" transform="translate(-248.633 -175.285)"/><path class="cf" d="M307.457,214.889c5.835,8.709,34.037,9.523,43.241,6.315s8.56-21.007-4.6-22.224c-7.415-.016-2.047,1.76-8.053,4.2C335,204.414,301.233,205.59,307.457,214.889Z" transform="translate(-242.042 -198.979)"/><path class="ca" d="M359.745,244.016c3.766-2.356,36.043-22.839,35.655-14.812-.426,8.87-11.5,18.43-15.5,21.161-7.311,5-15.209,6.621-18.222,2.687C359.541,250.268,356.166,246.255,359.745,244.016Z" transform="translate(-131.136 -137.865)"/><path class="cg" d="M457.186,245.518c-6.841,1.5-47.975,13.882-60.832,20.354-7.441-4.078-23.518-20.669-49.669-36.384-9.7-5.829-18.544-3.848-26.423.508-4.889,2.7-7.078,13.472,1.11,20.266,4.592,3.813,10.894,9.343,27.331,19.543,26.946,16.72,39.443,20.515,45.184,21.332a3.106,3.106,0,0,0,.7-.035c.073,0,.148-.006.227-.013a3.429,3.429,0,0,0,.584-.12,6.766,6.766,0,0,0,1.1-.227c10.727-3.678,24.294-9.078,44.525-20.991,16.544-9.737,18.323-8.863,21.672-15.367C465.419,249.1,460.88,244.71,457.186,245.518Z" transform="translate(-222.196 -141.057)"/><path class="ch" d="M344.444,205.856c8.684,5.242,10.7,9.841,10.459,20.578s-4.835,29.053-24.6,33.144-24.432-15.522-25.625-29.056-.419-23.644,9.576-26.073C329.093,200.844,339.183,202.68,344.444,205.856Z" transform="translate(-247.302 -191.457)"/><g transform="translate(2.726 155.085)"><g transform="translate(0 0.002)"><path class="ci" d="M429.549,337.6a6.554,6.554,0,0,1-6.422-5.249h-112a6.559,6.559,0,0,1-12.986-1.312,11.817,11.817,0,0,1,11.8-11.8H424.307a11.816,11.816,0,0,1,11.8,11.8A6.559,6.559,0,0,1,429.549,337.6Z" transform="translate(-263.182 -94.994)"/><path class="cj" d="M486.675,375.026H452.121c-18.272,0-29.87-9.642-32.655-27.142-3.413-21.449-9.75-91.6-9.813-92.307a8.177,8.177,0,0,0-10.03-7.255H295.5a10.411,10.411,0,0,0-8.4,10.8c.262,2.908,6.454,71.452,9.958,93.481,4.069,25.562,22.382,40.825,48.988,40.825h138.68a10.481,10.481,0,0,0,10.172-9.2A8.118,8.118,0,0,0,486.675,375.026Z" transform="translate(-287.06 -248.148)"/><path class="ck" d="M0,0H31.043a0,0,0,0,1,0,0V14.451a1.4,1.4,0,0,1-1.4,1.4H1.4a1.4,1.4,0,0,1-1.4-1.4V0A0,0,0,0,1,0,0Z" transform="translate(88.422 145.277)"/><rect class="cl" width="20.829" height="61.701" transform="translate(93.529 161.131)"/><path class="cm" d="M1.381,0h25.25a1.381,1.381,0,0,1,1.381,1.381V19.233a0,0,0,0,1,0,0H0a0,0,0,0,1,0,0V1.381A1.381,1.381,0,0,1,1.381,0Z" transform="translate(89.938 211.574)"/><path class="cn" d="M371.568,337.6a6.558,6.558,0,0,1-6.425-5.249H322.051a6.557,6.557,0,0,1-12.983-1.312,11.815,11.815,0,0,1,11.8-11.8h45.452a11.814,11.814,0,0,1,11.8,11.8A6.556,6.556,0,0,1,371.568,337.6Z" transform="translate(-239.652 -94.994)"/><path class="co" d="M326.863,331.914a8.928,8.928,0,1,1-8.926-8.93A8.931,8.931,0,0,1,326.863,331.914Z" transform="translate(-239.784 -86.936)"/><path class="cp" d="M325.481,331.914a8.928,8.928,0,1,1-8.93-8.93A8.93,8.93,0,0,1,325.481,331.914Z" transform="translate(-242.761 -86.936)"/><path class="co" d="M344.6,331.914a8.928,8.928,0,1,1-8.926-8.93A8.927,8.927,0,0,1,344.6,331.914Z" transform="translate(-201.577 -86.936)"/><path class="cq" d="M343.217,331.914a8.928,8.928,0,1,1-8.929-8.93A8.93,8.93,0,0,1,343.217,331.914Z" transform="translate(-204.554 -86.936)"/><path class="co" d="M315.941,331.914a8.928,8.928,0,1,1-8.93-8.93A8.932,8.932,0,0,1,315.941,331.914Z" transform="translate(-263.312 -86.936)"/><path class="cr" d="M314.556,331.914a8.926,8.926,0,1,1-8.926-8.93A8.927,8.927,0,0,1,314.556,331.914Z" transform="translate(-266.289 -86.936)"/><path class="co" d="M355.522,331.914a8.928,8.928,0,1,1-8.93-8.93A8.93,8.93,0,0,1,355.522,331.914Z" transform="translate(-178.047 -86.936)"/><path class="cs" d="M354.139,331.914a8.928,8.928,0,1,1-8.926-8.93A8.929,8.929,0,0,1,354.139,331.914Z" transform="translate(-181.026 -86.936)"/><path class="ct" d="M337.542,306.6l-20.829-5.813v-1.553h20.829Z" transform="translate(-223.184 -138.101)"/><path class="cu" d="M346.136,301.571l-31.043-5.812v-1.552h31.043Z" transform="translate(-226.671 -148.929)"/></g><path class="cl" d="M413.609,393.426H379.051c-26.6,0-44.916-15.263-48.985-40.825-3.5-22.029-9.7-90.576-9.958-93.481a10.412,10.412,0,0,1,8.4-10.8,8.18,8.18,0,0,1,10.03,7.255c.063.71,6.4,70.862,9.813,92.307,2.788,17.5,14.383,27.145,32.655,27.145h34.554a8.118,8.118,0,0,1,8.223,9.2A10.482,10.482,0,0,1,413.609,393.426Z" transform="translate(-215.947 -248.147)"/></g><g transform="translate(0.026)"><g class="cv"><path class="cw" d="M324.624,192.89c45.253-29.224,121.241,16.389,157.277,61.343,36.79,45.9-48.524,71.7-16.244,120.26,37.642,56.618,15.661,79.36,29.056,131.956,12.036,47.247,88.69,13.32,132.549,80.432,67.389,103.13,1.747,256.218-64.532,312.8C494.679,957.76,431.3,855.236,342.971,790.7c-65.219-47.65-115.147-104.492-109.659-162.52,7.879-83.327,91.4-38.292,37.368-111.4-32.33-43.749-66.787-128.628,8.989-146.32S259.458,234.977,324.624,192.89Z" transform="translate(-401.032 -231.968)"/></g></g></g></g></g></svg>