<svg xmlns="http://www.w3.org/2000/svg" xmlns:xlink="http://www.w3.org/1999/xlink" width="526" height="544" viewBox="0 0 526 544"><defs><style>.a,.e{fill:#fff;}.a{stroke:#707070;}.b{clip-path:url(#a);}.c{fill:#47b;}.d{fill:#3e65ae;}.f{fill:#d9e5ec;}.g{fill:#cad9e0;}.h{fill:#c1e5f6;}.ab,.i{fill:#f2f2f2;}.j{fill:#90c8ee;}.k{fill:#e73555;}.l{fill:#f28c00;}.m{fill:#f49338;}.n{fill:#fecb2f;}.o,.p{fill:none;stroke:#7c4545;stroke-linecap:round;stroke-miterlimit:10;}.o{stroke-width:2.94px;}.p{stroke-width:1.96px;}.q{fill:#c48349;}.r{fill:#bb7a44;}.s{fill:#a2623c;}.t{fill:#9b5c3e;}.u{fill:#542a33;}.v{fill:#aa683a;}.w{fill:#844b43;}.x{fill:#935740;}.y{fill:#263d47;}.z{fill:#7c4545;}.aa{fill:#68c7ea;}.ab{opacity:0.6;}.ac,.ad,.ae{fill:#007cb6;}.ac{opacity:0.1;}.ad{opacity:0.25;}.ae,.ba{opacity:0.15;}.af{fill:#1e3640;}.ag{fill:#2e4450;}.ah{fill:#cd224e;}.ai,.au{fill:#074959;}.ai{opacity:0.2;}.aj{fill:#bac4ca;}.ak{fill:#a1aeb9;}.al{fill:#394e5b;}.am{fill:#8797a7;}.an{fill:#a9b5be;}.ao{fill:#c8134b;}.ap{fill:#ffe568;}.aq{fill:#f4d05b;}.ar{fill:#49ae48;}.as{fill:#009956;}.at{fill:#01773f;}.av{fill:#f59d10;}.aw{fill:#07824a;}.ax{fill:#ffeaa8;}.ay{fill:#fff7e1;}.az{fill:#ee7249;}.ba{fill:#ffedb2;}.bb{fill:#eb5a41;}</style><clipPath id="a"><rect class="a" width="526" height="544" transform="translate(1394 248)"/></clipPath></defs><g class="b" transform="translate(-1394 -248)"><g transform="translate(352.688 -13.418)"><path class="c" d="M5.174,0H38.838a0,0,0,0,1,0,0V395.517a0,0,0,0,1,0,0H5.174A5.174,5.174,0,0,1,0,390.344V5.174A5.174,5.174,0,0,1,5.174,0Z" transform="translate(1170.835 400.338)"/><path class="d" d="M5.174,0H38.838a0,0,0,0,1,0,0V395.517a0,0,0,0,1,0,0H5.174A5.174,5.174,0,0,1,0,390.344V5.174A5.174,5.174,0,0,1,5.174,0Z" transform="translate(1180.932 400.338)"/><path class="e" d="M1379.162,299.942s-47.1-12.571-131.371-21.042-137.612-7.485-137.612-7.485V696.051s174.049,5,268.983-30.118Z" transform="translate(111.92 113.962)"/><g transform="translate(1245.511 407.493)"><path class="f" d="M1338.1,307.046c-93.327-18.877-217.776-19.1-219.02-19.1V279.8c1.252,0,126.5.221,220.635,19.261Z" transform="translate(-1119.081 -279.803)"/><g transform="translate(0 23.164)"><path class="f" d="M1338.19,313.637c-93.272-16.687-217.863-16.881-219.109-16.881v-8.145c1.254,0,126.571.2,220.545,17.008Z" transform="translate(-1119.081 -288.611)"/></g><g transform="translate(0 46.331)"><path class="f" d="M1338.283,320.224c-93.182-14.488-217.955-14.659-219.2-14.659V297.42c1.254,0,126.64.168,220.453,14.756Z" transform="translate(-1119.081 -297.42)"/></g><g transform="translate(0 69.498)"><path class="f" d="M1338.374,326.808c-93.124-12.292-218.044-12.434-219.293-12.434v-8.145c1.254,0,126.711.142,220.358,12.5Z" transform="translate(-1119.081 -306.229)"/></g><g transform="translate(0 92.662)"><path class="f" d="M1338.469,333.391c-93.043-10.091-218.136-10.209-219.388-10.209v-8.145c1.254,0,126.779.118,220.267,10.257Z" transform="translate(-1119.081 -315.037)"/></g><g transform="translate(0 115.828)"><path class="f" d="M1338.564,339.97c-92.974-7.887-218.229-7.979-219.483-7.979v-8.145c1.257,0,126.85.092,220.169,8.008Z" transform="translate(-1119.081 -323.846)"/></g><g transform="translate(0 138.995)"><path class="f" d="M1338.659,346.549c-92.907-5.683-218.323-5.749-219.577-5.749v-8.145c1.257,0,126.918.066,220.074,5.765Z" transform="translate(-1119.081 -332.655)"/></g><g transform="translate(0 162.162)"><path class="f" d="M1338.756,353.122c-92.838-3.474-218.418-3.516-219.675-3.516v-8.142c1.26,0,126.987.039,219.98,3.521Z" transform="translate(-1119.081 -341.464)"/></g><g transform="translate(0 185.326)"><path class="f" d="M1338.853,359.7c-92.772-1.268-218.512-1.281-219.772-1.281v-8.145c1.26,0,127.058.016,219.882,1.281Z" transform="translate(-1119.081 -350.272)"/></g><g transform="translate(0 207.535)"><path class="f" d="M1119.081,367.819v-8.145c1.26,0,127.123-.01,219.785-.957l.084,8.145C1246.247,367.806,1120.341,367.819,1119.081,367.819Z" transform="translate(-1119.081 -358.717)"/></g><g transform="translate(0 228.467)"><path class="f" d="M1119.081,378.013v-8.145c1.26,0,127.195-.037,219.688-3.193l.276,8.142C1246.413,377.977,1120.343,378.013,1119.081,378.013Z" transform="translate(-1119.081 -366.676)"/></g><g transform="translate(0 249.4)"><path class="f" d="M1119.081,388.2v-8.145c1.26,0,127.268-.061,219.59-5.423l.471,8.132C1246.581,388.141,1120.343,388.2,1119.081,388.2Z" transform="translate(-1119.081 -374.636)"/></g><g transform="translate(0 270.337)"><path class="f" d="M1119.081,398.395V390.25c1.262,0,127.336-.087,219.493-7.653l.665,8.116C1246.749,398.308,1120.346,398.395,1119.081,398.395Z" transform="translate(-1119.081 -382.597)"/></g><g transform="translate(0 291.274)"><path class="f" d="M1119.081,408.583v-8.142c1.262,0,127.407-.116,219.4-9.883l.857,8.1C1246.915,408.47,1120.349,408.583,1119.081,408.583Z" transform="translate(-1119.081 -390.558)"/></g><g transform="translate(0 312.213)"><path class="f" d="M1119.081,418.773v-8.145c1.262,0,127.476-.139,219.3-12.108l1.052,8.076C1247.08,418.633,1120.349,418.773,1119.081,418.773Z" transform="translate(-1119.081 -398.52)"/></g><g transform="translate(0 333.155)"><path class="f" d="M1119.081,428.961v-8.145c1.262,0,127.55-.166,219.2-14.333l1.244,8.05C1247.249,428.795,1120.351,428.961,1119.081,428.961Z" transform="translate(-1119.081 -406.483)"/></g><g transform="translate(0 354.099)"><path class="f" d="M1119.081,439.147V431c1.265,0,127.618-.192,219.109-16.555l1.436,8.016C1247.414,438.955,1120.351,439.147,1119.081,439.147Z" transform="translate(-1119.081 -414.447)"/></g></g><path class="f" d="M1221.166,283.692V649.683l-14.051,3.993V281.351Z" transform="translate(269.916 130.213)"/><path class="c" d="M0,0H37.562a4.579,4.579,0,0,1,4.579,4.579V471.447a4.579,4.579,0,0,1-4.579,4.579H0a0,0,0,0,1,0,0V0A0,0,0,0,1,0,0Z" transform="translate(1733.647 363.731)"/><path class="d" d="M0,0H37.562a4.579,4.579,0,0,1,4.579,4.579V471.447a4.579,4.579,0,0,1-4.579,4.579H0a0,0,0,0,1,0,0V0A0,0,0,0,1,0,0Z" transform="translate(1725.744 363.731)"/><path class="g" d="M1212.458,310.606s154.227-48.579,251.739-45.639l15.932,6.917-.273,455.518-15.658,4.65L1212.458,676.6Z" transform="translate(278.624 103.299)"/><path class="f" d="M1212.458,316.043s156.683-63.351,251.423-53.5v485.1s-60.309,15-251.423-65.605Z" transform="translate(278.624 97.862)"/><path class="e" d="M1212.458,692.685s117.309,63.173,226.975,84.556V254.968S1267,272.146,1212.458,326.693Z" transform="translate(278.624 87.211)"/><path class="h" d="M1216.135,328.086s73.161-46.215,193.518-61.161V726.33s-97.545-22.025-193.518-75.517Z" transform="translate(284.617 106.7)"/><path class="e" d="M1332.706,334.9c-2.664-4.9-6.094-8.024-11.477-9.52-2.259-.629-5.252-.3-7.33-1.362-2.535-1.3-4.05-4.31-6.459-5.941a16.585,16.585,0,0,0-25.873,14.194c-3.256-4.079-10.814-4.992-14.89-1.707-2.583,2.083-4.021,6.086-3.942,9.3.013.6-19.811.15-13.694,12.26,2.133,4.221,8.923,5.909,13.263,6.443,5.244.644,11.474-.005,14.333-4.45A23.694,23.694,0,0,0,1312,357.33c4.671,6.028,15.082,5.047,19.882-.878S1336.351,341.6,1332.706,334.9Z" transform="translate(336.341 185.523)"/><g transform="translate(1363.545 265.131)"><path class="i" d="M1243.731,295.973s-34.775-13.373-48.918-24.321c-17.854-13.823-27.051-34.415-30.741-43.864a1.548,1.548,0,0,1,1.449-2.117c10.143.018,32.668,1.136,52.016,12.776,15.327,9.218,40.382,36.792,40.382,36.792Z" transform="translate(-1163.963 -225.671)"/><path class="j" d="M1178.626,245.215a6.625,6.625,0,1,1,9.21-1.725A6.624,6.624,0,0,1,1178.626,245.215Z" transform="translate(-1144.768 -213.528)"/><path class="j" d="M1184.879,246.873a4.807,4.807,0,1,1,6.682-1.252A4.808,4.808,0,0,1,1184.879,246.873Z" transform="translate(-1133.282 -205.416)"/><g transform="translate(29.827 18.448)"><path class="k" d="M1183.065,248.229a7.721,7.721,0,0,1-4.379-1.357h0a7.778,7.778,0,1,1,4.379,1.357Zm-3.082-3.251a5.478,5.478,0,1,0-1.428-7.613,5.486,5.486,0,0,0,1.428,7.613Z" transform="translate(-1175.304 -232.686)"/></g><g transform="translate(48.205 31.379)"><path class="k" d="M1188.39,249.822a6.108,6.108,0,1,1,5.05-2.659A6.086,6.086,0,0,1,1188.39,249.822Zm.016-9.612a3.439,3.439,0,0,0-.652.06,3.5,3.5,0,1,0,.652-.06Z" transform="translate(-1182.292 -237.603)"/></g><path class="k" d="M1187.412,227.588a125.626,125.626,0,0,0-21.891-1.917,1.548,1.548,0,0,0-1.449,2.117,125.674,125.674,0,0,0,9.667,19.637A25.91,25.91,0,0,0,1187.412,227.588Z" transform="translate(-1163.963 -225.671)"/><path class="l" d="M1191.628,265.852c4.263,1.762,7.011,2.819,7.011,2.819l14.188-20.734s-1.978-2.178-5.165-5.515Z" transform="translate(-1118.871 -198.369)"/><path class="k" d="M1186.685,249.192c.749,7.185,2.046,18.267,4.108,21.983s23.68,9.625,23.68,9.625l4-5.844s-15.8-8.479-16.718-10.1-.62-9.447-.62-9.447Z" transform="translate(-1126.928 -187.334)"/><path class="k" d="M1193.942,241.2c6.967-1.9,17.768-4.708,21.978-4.129s17.544,18.585,17.544,18.585l-4,5.844s-13.623-11.653-15.466-11.927-9.031,2.84-9.031,2.84Z" transform="translate(-1115.099 -207.223)"/><path class="m" d="M1201.906,246.705c17.25,8.934,82.742,29.018,96.883,100.188,15.372,77.377-49.689,126.487-49.689,126.487V361.042s6.212-35.859-10.575-61.161-42.615-44.416-42.615-44.416Z" transform="translate(-1111.892 -191.388)"/><path class="n" d="M1196.672,250.787s30.886,18.17,48.185,41.158c20.106,26.72,32.94,80.085,3,113.837v44.992s30.988-27.114,37.715-67.525c7.551-45.352-14.506-97.643-86.847-135.468Z" transform="translate(-1110.65 -189.634)"/></g><g transform="translate(1342.204 357.732)"><path class="o" d="M1273.7,306.909s-27.162,44.45-33.521,151.889" transform="translate(-1018.394 -185.863)"/><path class="o" d="M1258.777,264.887c-9.2,16.6-42.66,98.048-52.49,140.586-13.81,59.759-11.159,109.829-11.159,109.829" transform="translate(-1092.157 -254.354)"/><line class="p" x1="5.723" y2="18.331" transform="translate(205.588 266.434)"/><line class="p" x1="5.723" y2="18.331" transform="translate(195.763 262.883)"/><line class="p" x1="5.723" y2="18.331" transform="translate(185.826 260.949)"/><line class="p" x1="4.344" y2="18.331" transform="translate(177.268 259.016)"/><line class="p" x1="4.621" y2="20.224" transform="translate(167.763 255.376)"/><line class="p" x1="3.933" y2="19.672" transform="translate(158.549 253.264)"/><path class="o" d="M1212.133,355.886s44.4,6.112,75.6,22.2" transform="translate(-1064.11 -106.036)"/><path class="q" d="M1170.516,360.994c1.657,6.967,1.483,27.756,13.612,44.564,13.1,18.151,35.154,27.514,69.2,36.44s63.764,28.058,96.154,20.279,61.342-24.613,78.558-52.414c0,0-48.382-27.293-64.02-25.889s-12.242,10.33-22.443,12.752-47.567-8.161-52.924-16.96,5.738-22.191-36.09-25.763S1186.329,344.973,1170.516,360.994Z" transform="translate(-1131.941 -115.399)"/><path class="r" d="M1334.091,428.182c-35.7-.429-103.631-32.3-118.327-53.9-8.589-12.631-14.088-11.03-14.7,0s-12.426,14.78-25.37,6.414c13.1,18.152,35.154,27.514,69.2,36.44s63.764,28.058,96.154,20.276a150.955,150.955,0,0,0,36.895-13.954C1375.209,424.684,1364.163,428.544,1334.091,428.182Z" transform="translate(-1123.505 -90.535)"/><path class="s" d="M1188.826,358.938c10.375-.331,38.3,1.559,47.964,5.065,0,0-29.852-2.235-47.42-1.933Z" transform="translate(-1102.097 -101.122)"/><path class="t" d="M1292.748,393.087c-15.309-10.038-47-22.559-47-22.559,20.523,4.613,41.165,14.8,49.373,19.953Z" transform="translate(-1009.319 -82.171)"/><path class="t" d="M1280.739,390.805c-10.4-6.267-26.041-12.034-33.16-13.657,0,0,22.217,9.386,30.907,15.5Z" transform="translate(-1006.337 -71.381)"/><path class="t" d="M1193.716,365.433c-5.092.231-13.308,2.9-17.36,5.9a121.245,121.245,0,0,1,18.517-3.516Z" transform="translate(-1122.423 -90.475)"/><path class="t" d="M1195.16,359.432c-5.155.45-18.054,3.706-21.395,8.113,0,0,6.7-4.189,21.395-5.639Z" transform="translate(-1126.643 -100.256)"/><path class="t" d="M1189.955,365.043c8.76.287,22.422.563,28.574,1.667,0,0-21.291,1.286-28.563,1.746Z" transform="translate(-1100.257 -91.111)"/><path class="t" d="M1237.944,377.966c3.753-3.177,12.318-8.6,25.229-3.855,10.98,4.042,30.133,10.27,50.578,20.937l2.8-3.879s-5.844-10.859-28.234-17.665-32.424-11.479-38.057-10.138S1237.944,377.966,1237.944,377.966Z" transform="translate(-1022.04 -94.221)"/><path class="t" d="M1171.151,367.989c9.181-3.506,28.148-9.623,56.6-6.354s44.684,3.79,46.007,7.669a126.545,126.545,0,0,0,4.933,13.171c2.078,4.413,12.168,12.1,37.51,17.31l-2.98-4.463s-21.794-3.416-26.217-16.4,1.307-17.121-20.569-21.257-57.563-10.4-72.564-6.882a44.792,44.792,0,0,0-23.145,13.665Z" transform="translate(-1131.605 -116.04)"/><g transform="translate(207.398 298.332)"><path class="u" d="M1235.725,384.413a9.077,9.077,0,1,1,9.078,9.076A9.078,9.078,0,0,1,1235.725,384.413Z" transform="translate(-1233.055 -372.665)"/><path class="t" d="M1246.455,398.452a11.748,11.748,0,1,1,11.75-11.748A11.759,11.759,0,0,1,1246.455,398.452Zm0-18.151a6.4,6.4,0,1,0,6.4,6.4A6.409,6.409,0,0,0,1246.455,380.3Z" transform="translate(-1234.71 -373.284)"/><path class="v" d="M1246.455,397.816a11.748,11.748,0,1,1,11.75-11.745A11.757,11.757,0,0,1,1246.455,397.816Zm0-18.149a6.4,6.4,0,1,0,6.4,6.4A6.41,6.41,0,0,0,1246.455,379.668Z" transform="translate(-1234.71 -374.321)"/></g><g transform="translate(163.976 285.007)"><path class="u" d="M1219.215,379.346a9.076,9.076,0,1,1,9.076,9.076A9.076,9.076,0,0,1,1219.215,379.346Z" transform="translate(-1216.543 -367.598)"/><path class="t" d="M1229.947,393.385a11.748,11.748,0,1,1,11.75-11.748A11.761,11.761,0,0,1,1229.947,393.385Zm0-18.152a6.4,6.4,0,1,0,6.4,6.4A6.408,6.408,0,0,0,1229.947,375.234Z" transform="translate(-1218.199 -368.217)"/><path class="v" d="M1229.947,392.749A11.748,11.748,0,1,1,1241.7,381,11.759,11.759,0,0,1,1229.947,392.749Zm0-18.149a6.4,6.4,0,1,0,6.4,6.4A6.408,6.408,0,0,0,1229.947,374.6Z" transform="translate(-1218.199 -369.254)"/></g><g transform="translate(120.462 277.769)"><path class="u" d="M1202.669,376.594a9.076,9.076,0,1,1,9.076,9.076A9.076,9.076,0,0,1,1202.669,376.594Z" transform="translate(-1199.997 -364.846)"/><path class="t" d="M1213.4,390.633a11.748,11.748,0,1,1,11.748-11.745A11.759,11.759,0,0,1,1213.4,390.633Zm0-18.149a6.4,6.4,0,1,0,6.4,6.4A6.41,6.41,0,0,0,1213.4,372.484Z" transform="translate(-1201.653 -365.467)"/><path class="v" d="M1213.4,390a11.748,11.748,0,1,1,11.748-11.748A11.762,11.762,0,0,1,1213.4,390Zm0-18.152a6.4,6.4,0,1,0,6.4,6.4A6.41,6.41,0,0,0,1213.4,371.846Z" transform="translate(-1201.653 -366.502)"/></g><path class="v" d="M1202.934,348.637c-24.834,1.32-28,4-31.956,6.438s-.881,11.887.6,12.242c2.967.71,5.131-7.858,38-7.858s64.745,5.2,69.563,8.944c2.043,1.589,3.482,14.491,8.35,19.359s19.863,11.948,31.451,14.375c12.016,2.514,24.095,3.569,29.521,1.07,4.466-2.057,10.388-9.4,14.744-11.067,5.662-2.17,27.329,6.151,49.618,16.063,14.036,6.241,18.7,9.549,21.116,6.809s6.385-5.336-1.552-9.6a232.934,232.934,0,0,0-49.631-20.392c-25.565-7.306-27.088-4.26-31.959,3.348s-11.042,10.575-36.3,3.272-21.221-16-23.958-24.4-5.549-11.135-37.776-15.4S1212.1,348.147,1202.934,348.637Z" transform="translate(-1134.351 -118.392)"/><path class="w" d="M1159.777,338.636l-3.929,2.551.752,6.051s15.942,7.448,28.695,13.8c16.9,8.416,33.366,15.848,37.476,31.3,4.415,16.592,4.436,37,22.575,49.618l7.637.5s-13.386-22.3-15.955-44.65-4.366-26.714-23.117-35.446S1159.777,338.636,1159.777,338.636Z" transform="translate(-1155.848 -134.151)"/><path class="x" d="M1270.2,448.016c-5.9-2.777-21.531-11.806-27.085-39.932s-4.713-33.563-9.573-40.161-15.935-9.786-38.693-17.828c-22.157-7.829-37.5-11.458-37.5-11.458l1.654,6.617s35.722,15.143,50.973,23.264c9.594,5.11,16.474,8.663,18.9,24.81s8.629,38.72,21.675,49.134Z" transform="translate(-1153.413 -134.151)"/><path class="y" d="M1206.282,307.921c11.635-8.053,60.905-14.712,114.166,22.288,0,0-14.517,8.463-23.732,36.445s-3.453,60.985-3.453,60.985-45.3-32.711-80.4-34.607-29.35,13.068-29.35,13.068-14.238-7.117-8.305-43.162S1193.951,316.457,1206.282,307.921Z" transform="translate(-1126.643 -194.467)"/><path class="y" d="M1195.8,329.491s8.894-5.212,30.57-1.044c30.812,5.923,46.736,17.994,46.736,17.994s-4.5-31.738,13.865-47.264c0,0-13.991-13.689-42.094-18.8s-36.332,4.376-42.962,11.519S1189.13,318.037,1195.8,329.491Z" transform="translate(-1095.419 -231.464)"/><path class="k" d="M1223.515,268.486c9.6-1.07,18.375,4.132,28.127,11.282s21.131,2.927,25.031,0a21.854,21.854,0,0,1-19.18,13.654c-14.954,1.139-24.088-9.8-43.74-2.622C1225.961,281.538,1231.45,273.646,1223.515,268.486Z" transform="translate(-1061.469 -248.717)"/><path class="z" d="M1217.9,266.6a5.72,5.72,0,1,1,5.72,5.72A5.719,5.719,0,0,1,1217.9,266.6Z" transform="translate(-1054.716 -260.882)"/><path class="y" d="M1319.582,351.333c-9.281-8.923-33.161-29.273-69.237-24.274,0,0-13.41,5.347-19.764,23.2-8.818,24.781,4.216,42.126,4.216,42.126s4.108-5.475,14.1-4.926c26.07,1.425,64.619,27.777,64.619,27.777S1299.589,375.967,1319.582,351.333Z" transform="translate(-1039.032 -154.291)"/><path class="y" d="M1284.664,356.462c-6.877-6.727-29.065-16.266-44.059-11.624a33.538,33.538,0,0,1,0-19.28,26.1,26.1,0,0,1,8.921-12.576c3.234-2.322,7.734-2.527,11.668-1.917,7.732,1.2,21.863,4.082,29.389,9.854C1290.583,320.919,1282.165,335.755,1284.664,356.462Z" transform="translate(-1020.031 -179.568)"/></g><g transform="translate(1378.209 654.34)"><g transform="translate(0 10.52)"><path class="aa" d="M1225.835,377.8c-30.672-2.07-57.1,19.758-56.277,48.827a42.125,42.125,0,0,0,43.306,40.911,33.691,33.691,0,0,0,30.228-20.916q24.06,10.821,47.657,19.4C1298.89,415.653,1262.882,380.3,1225.835,377.8Z" transform="translate(-1169.539 -377.665)"/><path class="ab" d="M1181.792,404.791a16.611,16.611,0,0,0,3.037,11.519c2.848,3.871,11.54,6.953,12.992-.047.542-2.619-1.191-5.1-2.577-7.387a16.277,16.277,0,0,1-2.667-7.587,8.04,8.04,0,0,1,3.232-7.067c.739-.486,1.7-1.01,1.675-1.894-.115-3.64-6.512-.434-7.906.416a16.542,16.542,0,0,0-6.922,8.329A15.871,15.871,0,0,0,1181.792,404.791Z" transform="translate(-1149.723 -356.539)"/><path class="ab" d="M1194.865,391.629a5.766,5.766,0,0,0-3.032-1.4c-1.1-.16-3-.2-3.277,1.22a1.366,1.366,0,0,0,.518,1.333,2.031,2.031,0,0,0,.665.3c1.136.329,2.359.21,3.5.5.692.176,1.344.5,2.046.623a.653.653,0,0,0,.566-.092.549.549,0,0,0,.139-.26,1.738,1.738,0,0,0-.46-1.565A7.562,7.562,0,0,0,1194.865,391.629Z" transform="translate(-1138.582 -357.312)"/><path class="ab" d="M1171.17,404.859a35.015,35.015,0,0,0,1.112,15.979,10.043,10.043,0,0,0,1.691,3.592c.392.458,1.646,1.441,2.309.9.521-.426-.2-2.4-.332-3.011a51.1,51.1,0,0,1-1.38-12.4c.021-.6.052-1.2.1-1.8a45.841,45.841,0,0,1,1.1-7.043,45.27,45.27,0,0,1,1.941-6.164c.679-1.717,1.959-3.543,2.093-5.418a2.222,2.222,0,0,0-.6-1.791c-.781-.726-1.591-.345-2.062.423A45.873,45.873,0,0,0,1171.17,404.859Z" transform="translate(-1167.611 -361.943)"/><path class="ab" d="M1220.519,442.141c3.027,2.659,7.011-.1,7.129-3.521a101.745,101.745,0,0,0-.989-15.566,67.975,67.975,0,0,0-1.678-9.281c-1.9-7.13-5.512-13.7-9.731-19.748-.92-1.315-5.883-8.387-7.8-6.312-.626.678-.276,1.77.142,2.6.989,1.957,2.173,3.808,3.259,5.712a64.96,64.96,0,0,1,8.147,38.36C1218.733,437.112,1218.457,440.329,1220.519,442.141Z" transform="translate(-1108.293 -361.906)"/><path class="ac" d="M1269.506,454.923s3.961-35.209-11.906-54.336-42.525-26.843-66.678-11.711-17.655,39.956-15.177,45.673,14.138,20.771,32.445,17.92,17.612-21.242,14.038-24.192c0,0-2.309,12.971-15.766,12.013s-20.395-17.4-11.461-29.5,25.888-12.169,36.253-2.12,10.412,21.6,6.1,32.716C1237.355,441.381,1258.458,451.038,1269.506,454.923Z" transform="translate(-1163.802 -372.424)"/><path class="ad" d="M1216.847,422s1.857,14.43-14.391,17.786-31.906-14.412-23.966-34.557,37.481-27.887,56.009-11.979c20.821,17.878,14.843,49.51,14.843,49.51l-17.368-7.656s8.156-17.81-4.571-31.167-30.862-10.414-37.784.571-4.6,22.146,6.291,28.056S1216.613,428.8,1216.847,422Z" transform="translate(-1158.421 -366.145)"/></g><g transform="translate(157.313 34.395)"><path class="aa" d="M1296.847,387.489c24.395,4.181,40.947,26.265,34.8,48.855a33.912,33.912,0,0,1-41.631,23.819,27.128,27.128,0,0,1-19.7-22.086q-20.872,3.917-40.963,6.167C1232.517,403.284,1267.384,382.434,1296.847,387.489Z" transform="translate(-1229.356 -386.744)"/><path class="ab" d="M1267.885,411.617a13.356,13.356,0,0,1-4.555,8.439c-2.961,2.488-10.346,3.258-10.156-2.5.071-2.154,1.9-3.763,3.413-5.291a13.129,13.129,0,0,0,3.522-5.433,6.469,6.469,0,0,0-1.191-6.143c-.486-.521-1.141-1.11-.952-1.8.778-2.827,5.176.892,6.109,1.82a13.313,13.313,0,0,1,3.84,7.827A12.673,12.673,0,0,1,1267.885,411.617Z" transform="translate(-1190.542 -368.635)"/><path class="ab" d="M1253.374,397.537a4.642,4.642,0,0,1,2.638-.523c.889.082,2.382.41,2.333,1.575a1.1,1.1,0,0,1-.658.944,1.661,1.661,0,0,1-.578.11c-.949.042-1.886-.281-2.838-.268-.573.008-1.144.137-1.718.1a.526.526,0,0,1-.426-.179.441.441,0,0,1-.061-.232,1.407,1.407,0,0,1,.655-1.136A6.014,6.014,0,0,1,1253.374,397.537Z" transform="translate(-1192.339 -370.04)"/><path class="ab" d="M1272.555,412.913a28.184,28.184,0,0,1-3.9,12.295,8.088,8.088,0,0,1-2,2.493c-.392.284-1.559.813-1.975.266-.326-.431.61-1.841.828-2.3a41.136,41.136,0,0,0,3.427-9.441c.1-.473.187-.949.263-1.428a36.48,36.48,0,0,0,.126-10.911c-.208-1.473-.865-3.143-.615-4.637a1.786,1.786,0,0,1,.81-1.286c.746-.421,1.31.032,1.533.721A36.974,36.974,0,0,1,1272.555,412.913Z" transform="translate(-1171.891 -368.714)"/><path class="ab" d="M1235.705,432.007c-2.872,1.507-5.467-1.4-4.913-4.105a81.923,81.923,0,0,1,3.719-11.992,54.693,54.693,0,0,1,3.069-6.948,51.244,51.244,0,0,1,11.35-13.61c.968-.857,6.191-5.449,7.293-3.466.363.652-.118,1.439-.6,2.007-1.144,1.347-2.422,2.569-3.632,3.855a52.323,52.323,0,0,0-13.636,28.474C1238.054,428.412,1237.662,430.978,1235.705,432.007Z" transform="translate(-1227.137 -379.166)"/><path class="ac" d="M1234.392,438.473s3.561-28.3,19.6-40.266,38.357-12.96,54.4,3.451,6.254,34.609,3.232,38.615-14.993,13.578-28.779,7.884-9.762-19.956-6.407-21.589c0,0-.649,10.585,10.062,12.384s19.254-9.754,14.551-20.918-17.954-14.422-27.966-8.518-12.237,14.932-10.967,24.445C1262.111,433.96,1243.77,437.523,1234.392,438.473Z" transform="translate(-1221.148 -382.626)"/><path class="ad" d="M1268.571,421.378s-4.184,10.94,7.9,16.642,27.693-5.241,25.292-22.507S1277.7,386.6,1260.2,395.542c-19.677,10.049-20.982,35.932-20.982,35.932l15.038-2.7s-3.011-15.48,9.476-23.524,26.12-2.309,29.457,7.6-.592,18.2-10.23,20.763S1267.464,426.746,1268.571,421.378Z" transform="translate(-1213.288 -377.437)"/></g><g transform="translate(188.911 97.319)"><path class="aa" d="M1289.664,410.683a48.159,48.159,0,0,0-48.293,38.488l31.078,12.492a24.66,24.66,0,0,0,23.3,18.5,30.808,30.808,0,0,0,31.517-30.086A38.512,38.512,0,0,0,1289.664,410.683Z" transform="translate(-1241.371 -410.67)"/><path class="ac" d="M1278.648,448.8s-1.3,4.847,1.662,11.109,14.722,10.054,24.584,3.3,13.323-22.578,7.058-34.444-24.881-19.422-44.99-10.37a37.627,37.627,0,0,0-22.109,28.395l21.917,8.81a20.115,20.115,0,0,1,3.716-18.764c7.35-9.06,17.563-8.053,21.129-6.088s10.472,6.977,9.967,15.022-5.239,9.86-8.147,11.508S1281.438,459.114,1278.648,448.8Z" transform="translate(-1235.694 -404.602)"/><path class="ad" d="M1270.974,443.986c-.15,4.681,1.333,9.954,8.255,12.592s20.116-2.8,20.771-16.316a22.161,22.161,0,0,0-26.869-22.415c-15,3.132-24.8,14.793-23.443,29.152l9.41,3.782s-4.329-13.273,6.5-21.539,20.595-3.5,24.61,1.207,6.012,14.391-.507,19.6S1273.6,454.463,1270.974,443.986Z" transform="translate(-1228.02 -399.788)"/><path class="ab" d="M1268.541,427.278a7.809,7.809,0,0,1-2.135,4.121,19.09,19.09,0,0,1-3.766,2.193c-1.612.778-3,2.462-1.8,4.258,1.407,2.1,5.639,1.47,7.472.381a6.406,6.406,0,0,0,1.709-1.573,11.709,11.709,0,0,0,2.32-7.29c0-1.3-.037-6.025-2.138-5.631C1268.9,423.98,1268.77,426.313,1268.541,427.278Z" transform="translate(-1210.378 -389.408)"/><path class="ab" d="M1263.342,421.7c-.5-.058-1.152.071-1.233.568-.058.35.223.658.483.9q1.022.963,2.044,1.922a1.762,1.762,0,0,0,.5.371,1.115,1.115,0,0,0,1.331-.523C1267.45,423.256,1264.573,421.851,1263.342,421.7Z" transform="translate(-1207.583 -392.707)"/><path class="ab" d="M1286.06,417.389a6.2,6.2,0,0,1,1.165,1.268.724.724,0,0,1,.163.655c-.1.239-.4.31-.66.324a8.621,8.621,0,0,1-3.174-.665c-6.48-2.191-12.847-3.387-19.682-2.735-1.949.187-6.207,1.425-7.919.011-1.607-1.331,1.07-2.643,2-2.953a30.044,30.044,0,0,1,12.616-1.373,32.388,32.388,0,0,1,9.825,2.564C1282.207,415.309,1284.45,416.045,1286.06,417.389Z" transform="translate(-1218.424 -408.902)"/><path class="ab" d="M1265.441,443.7a28.264,28.264,0,0,1-5.891-8.426c-.587-1.278-2.327-9.194-4.807-6.136-1.007,1.241-.342,4.229.029,5.6a17.671,17.671,0,0,0,10.291,11.335,2.277,2.277,0,0,0,1.065.2.874.874,0,0,0,.776-.665c.057-.41-.271-.763-.574-1.047S1265.73,443.991,1265.441,443.7Z" transform="translate(-1220.444 -381.699)"/></g><g transform="translate(27.427 85.349)"><path class="aa" d="M1253.024,429.762a40.779,40.779,0,0,0-54.141-19.856A32.621,32.621,0,0,0,1183,453.218a26.1,26.1,0,0,0,34.649,12.708,20.878,20.878,0,0,0,10.167-27.719,16.7,16.7,0,0,0-22.175-8.134,13.362,13.362,0,0,0-6.506,17.741,10.685,10.685,0,0,0,14.191,5.2,8.55,8.55,0,0,0,4.166-11.353" transform="translate(-1179.968 -406.119)"/><path class="ac" d="M1240.565,426.885s-6.388-14.286-25.433-16.876c-18.183-2.472-27.293,7.238-30.777,14.9s-3.035,20.379,5.11,27.3c10.8,9.173,32.876,3.895,24.542-15.487,0,0,1.7,8.865-5.844,11.072s-15.324-3.892-13.76-13.152,9.073-12.119,13.394-12.053,12.6,1.4,16.229,9.92Z" transform="translate(-1176.18 -400.417)"/><path class="ad" d="M1210.686,432.752c2.206,3.916,2.672,9.723-5.342,13.554s-17.768-1.16-20.44-12.076,6.759-20.916,19.161-21.718c12.542-.813,20.858,6.62,23.438,12.773l-6.993,2.6s-6.377-14.709-21.186-8.547c-13.978,5.817-8.839,24.487,1.61,24.334C1200.934,443.674,1211.616,443.7,1210.686,432.752Z" transform="translate(-1172.665 -395.798)"/><path class="ab" d="M1192.02,426.876a8.533,8.533,0,0,0,6.02.355c1.517-.45,5.052-3.35,3.229-5.21-.51-.521-1.375-.221-2.062.021a12.188,12.188,0,0,1-5.428.429,5.44,5.44,0,0,1-3-1.767c-1.972-1.794-3,.466-2.243,2.375a4.845,4.845,0,0,0,.487.863,9.221,9.221,0,0,0,1.41,1.875A6.414,6.414,0,0,0,1192.02,426.876Z" transform="translate(-1166.407 -383.414)"/><path class="ab" d="M1190.324,418.539a.517.517,0,0,0-.084-.363.439.439,0,0,0-.236-.118c-1.276-.276-2.312,2.022-2.057,3.048.418,1.667,2.3.842,2.33-.555C1190.292,419.88,1190.308,419.212,1190.324,418.539Z" transform="translate(-1167.027 -386.698)"/><path class="ab" d="M1203.74,411.151c1.491-.245,3.971-1.249,2.809-3.014-.679-1.031-2.585-1.073-3.645-1.047a30.319,30.319,0,0,0-14.832,4.842,7.353,7.353,0,0,0-1.652,1.286c-.6.671-1.786,2.362-.518,2.9a3.247,3.247,0,0,0,2.806-.826,14.431,14.431,0,0,1,7.169-3.138C1198.475,411.677,1201.131,411.577,1203.74,411.151Z" transform="translate(-1171.213 -404.543)"/></g><g transform="translate(66.965 36.582)"><path class="aa" d="M1263.966,387.9c-36.611-3.522-68.964,21.686-68.964,56.48a50.4,50.4,0,0,0,50.4,50.4,40.314,40.314,0,0,0,36.861-23.985q28.4,13.76,56.332,24.829C1350.05,435.657,1308.187,392.156,1263.966,387.9Z" transform="translate(-1195.002 -387.575)"/><path class="ab" d="M1209.7,419.478a19.858,19.858,0,0,0,3.243,13.878c3.274,4.726,13.562,8.708,15.538.387.739-3.116-1.25-6.138-2.833-8.923a19.5,19.5,0,0,1-2.93-9.165c-.045-3.243,1.346-6.64,4.105-8.342.9-.558,2.07-1.149,2.067-2.206-.013-4.358-7.769-.742-9.468.226a19.794,19.794,0,0,0-8.563,9.725A18.936,18.936,0,0,0,1209.7,419.478Z" transform="translate(-1171.345 -362.428)"/><path class="ab" d="M1225.473,404.426a6.9,6.9,0,0,0-3.579-1.778c-1.307-.229-3.576-.342-3.96,1.349a1.635,1.635,0,0,0,.576,1.612,2.527,2.527,0,0,0,.784.381c1.349.429,2.817.331,4.174.721.821.237,1.589.644,2.425.815a.775.775,0,0,0,.681-.089.689.689,0,0,0,.176-.308,2.08,2.08,0,0,0-.5-1.886A8.827,8.827,0,0,0,1225.473,404.426Z" transform="translate(-1157.687 -363.219)"/><path class="ab" d="M1197.152,419.325a41.963,41.963,0,0,0,.787,19.151,12.082,12.082,0,0,0,1.9,4.355c.453.56,1.92,1.775,2.73,1.152.636-.492-.158-2.877-.292-3.613a61.055,61.055,0,0,1-1.233-14.875q.07-1.081.181-2.154a54.216,54.216,0,0,1,4.079-15.693c.873-2.033,2.467-4.171,2.69-6.409a2.654,2.654,0,0,0-.657-2.162c-.908-.894-1.891-.466-2.48.436A54.9,54.9,0,0,0,1197.152,419.325Z" transform="translate(-1192.713 -369.631)"/><path class="ab" d="M1254.429,465.728c3.529,3.282,8.389.121,8.645-3.966a121.371,121.371,0,0,0-.653-18.651,81.266,81.266,0,0,0-1.688-11.159c-2.025-8.589-6.128-16.566-10.967-23.945-1.054-1.607-6.751-10.233-9.1-7.816-.773.792-.391,2.109.079,3.111,1.115,2.375,2.47,4.631,3.7,6.946a77.729,77.729,0,0,1,8.439,46.149C1252.465,459.655,1252.026,463.49,1254.429,465.728Z" transform="translate(-1121.302 -367.704)"/><path class="ac" d="M1313.388,481.78s5.936-41.976-12.389-65.39-49.942-33.547-79.344-16.274-22.472,47.183-19.706,54.107,16.2,25.318,38.192,22.533,21.786-24.805,17.612-28.453c0,0-3.2,15.432-19.264,13.831s-23.8-21.5-12.7-35.677,31.375-13.67,43.428-1.3,11.719,26.188,6.185,39.333C1275.4,464.491,1300.308,476.759,1313.388,481.78Z" transform="translate(-1188.137 -381.268)"/><path class="ad" d="M1251.363,440.817s1.73,17.32-17.815,20.781-37.665-18.325-27.487-42.144,45.776-32.077,67.391-12.421c24.3,22.091,16.069,59.714,16.069,59.714L1269.01,457s10.359-21.023-4.408-37.431-36.553-13.5-45.205-.6-6.254,26.328,6.57,33.768S1250.853,448.944,1251.363,440.817Z" transform="translate(-1181.747 -373.782)"/></g><g transform="translate(98.76)"><path class="aa" d="M1261.395,385.087a32.055,32.055,0,0,0-45.163-3.9,25.642,25.642,0,0,0-3.119,36.132,20.506,20.506,0,0,0,24.879,5.12,17.188,17.188,0,0,0,8.879-9.565c8.7.55,19.279,4.623,23.032,6.438C1272.711,407.409,1269.873,395.17,1261.395,385.087Z" transform="translate(-1207.092 -373.665)"/><path class="ae" d="M1257.663,413.466a29.075,29.075,0,0,0-1.867-22.173c-5.944-11.711-16.955-17.3-30.764-14.159s-19.319,19.969-8.174,25.978c0,0-4.237-8.673,3.8-13.391s15.5-.074,18.3,4.295a17.148,17.148,0,0,1,1.473,15.214S1251.175,410.773,1257.663,413.466Z" transform="translate(-1200.88 -369.421)"/><path class="ad" d="M1215.436,400.051c-3.663-1.83-7.527-13.812,4.289-19.874,10.2-5.234,24.61.066,28.279,11.214,3.408,10.364.389,16.663.389,16.663l-9.381-1.886s5.657-11.753-5.6-19.385a13.264,13.264,0,0,0-15.53,1.007C1212.007,392.348,1215.436,400.051,1215.436,400.051Z" transform="translate(-1199.458 -366.359)"/></g></g><path class="ab" d="M1231.836,390.327c-.5-7.306-9.857-12.318-15.745-7.216a4.783,4.783,0,0,0-1.5,2.083,2.542,2.542,0,0,0,.421,2.446,4.077,4.077,0,0,0,2.677.984c3.984.447,8.2.984,11.345,3.471a2.573,2.573,0,0,0,1.054.613,1.458,1.458,0,0,0,1.433-.729A2.789,2.789,0,0,0,1231.836,390.327Z" transform="translate(281.874 292.681)"/><path class="ab" d="M1223.392,387c0-.773-.592-1.552-1.441-1.026a3.857,3.857,0,0,0-1.115,1.665,5.712,5.712,0,0,0-.371,1.7,1.248,1.248,0,0,0,.247,1.091.849.849,0,0,0,.947.039,2.2,2.2,0,0,0,.694-.715A4.987,4.987,0,0,0,1223.392,387Z" transform="translate(291.643 300.454)"/><path class="ab" d="M1220.45,403.978a1.882,1.882,0,0,0,.118-2.164,6.354,6.354,0,0,0-1.588-1.673,27.671,27.671,0,0,1-9.568-18.667c-1.11,0-1.46,1.5-1.4,2.609a33.064,33.064,0,0,0,3.108,12.442C1212.008,398.361,1217.565,406.984,1220.45,403.978Z" transform="translate(271.369 293.402)"/><path class="af" d="M1320.448,327.192a163.492,163.492,0,0,0-49.644-23.711c21.244,7.035,33.873,20.182,29.686,27.164-4.2,7-14.643,10.133-21.562,33.4-5.2,17.5,5.688,41.216-8.689,30.757-8.25-6-17.481-21.67-40.826-26.462-20.916-4.295-30.867,9.849-40.95,10.969s-11.2-22.675-10.654-32c-.968,3.819-1.839,8-2.6,12.605-5.933,36.045,8.305,43.162,8.305,43.162s-5.749-14.967,29.35-13.068,80.4,34.607,80.4,34.607-5.759-33,3.453-60.985S1320.448,327.192,1320.448,327.192Z" transform="translate(215.561 166.282)"/><path class="af" d="M1274.858,296.627c-7.9,5.452-11.613,18.365-10.724,26.4s-14.088-4.3-27.43-13.978-27.982.205-33.147,0-9-10.38-6.457-17.328c-4.134,8.881-6.254,21.541-1.3,30.047,0,0,8.894-5.212,30.57-1.044,30.812,5.923,46.736,17.994,46.736,17.994s-4.5-31.738,13.865-47.264a58.842,58.842,0,0,0-11.051-7.782C1276.052,283.82,1282.677,291.231,1274.858,296.627Z" transform="translate(246.786 133.993)"/><g transform="translate(1530.692 537.391)"><path class="af" d="M1253.162,329.2l.068.032Z" transform="translate(-1185.724 -329.196)"/><path class="af" d="M1319.581,346.379a95.025,95.025,0,0,0-23.972-17.06c5.481,2.893,12.192,9.946,12.192,17.01,0,7.616-6.906,8.592-7.653,22.493s-2.254,20.019-6.677,17.3-18.233-14.564-29.692-18.372-21.2,4.576-26.275,3.172c-6.925-1.917-8.232-21.263-5.573-28.992-.476,1.076-.931,2.193-1.352,3.374-8.815,24.781,4.216,42.126,4.216,42.126s4.108-5.475,14.1-4.926c26.071,1.425,64.619,27.777,64.619,27.777S1299.588,371.013,1319.581,346.379Z" transform="translate(-1227.519 -328.996)"/></g><path class="af" d="M1282.242,312.92c5.346,1.915,2.3,9.065-1.967,13.807-4.284,4.76-.236,14.993-4.25,14.756s-8.363-7.616-14.751-9.71-12.889,2.569-15.743,2.672c-2.832.1-5.428-10.262-3.753-15.125a17.728,17.728,0,0,0-1.173,2.735,33.538,33.538,0,0,0,0,19.28c14.993-4.642,37.182,4.9,44.059,11.624-2.5-20.708,5.92-35.543,5.92-35.543A35.358,35.358,0,0,0,1282.242,312.92Z" transform="translate(322.173 181.667)"/><path class="ag" d="M1233.664,280.9c-10.291-1.825-30.023-1.539-36.887,15.9C1196.777,296.807,1207.068,282.158,1233.664,280.9Z" transform="translate(253.066 128.275)"/><path class="ag" d="M1250.2,305.045c-13.941-2.988-38.43-1.991-49.087,4.647s-22.291,24.947-23.28,38.694c0,0,10.112-24.061,25.571-34.047S1250.2,305.045,1250.2,305.045Z" transform="translate(222.189 166.22)"/><path class="ag" d="M1262.862,312.705c-9.12-2.175-15.75-2.185-21.573,8.087C1241.289,320.792,1247.967,312.837,1262.862,312.705Z" transform="translate(325.615 179.431)"/><path class="ag" d="M1280.913,331.532c-7.818-2.777-22.646-5.728-33.166-3.471-6.259,1.344-16.666,12.673-17.533,25.347,0,0,5.912-15.806,16.665-20.734S1280.913,331.532,1280.913,331.532Z" transform="translate(307.564 205.041)"/><path class="i" d="M1239.835,323.976c-2.8-9.044-9.055-14.435-17.463-15.666-11.769-1.723-19.4,1.607-26,8.289s-11.18,17.434-6.056,19.614a21.493,21.493,0,0,0,8.849,1.951s-1.878,9.186-.868,9.828,4.445-.273,4.445-.273-.642,1.738,1.625,2.1,5.323-1.573,5.323-1.573.489,3.711,2.506,3.587,5.092-2.806,5.092-2.806.989,3.929,2.73,3.824,4.337-12.247,4.337-12.247,7.469,5.878,12.292,5.039S1241.986,330.929,1239.835,323.976Zm-41.3,7.608c-2.785-1.094-2.641-4.9.568-8.529s8.453-4.019,10.93-1.5c1.073,1.086,1.76,2.172-.3,7S1201.322,332.678,1198.537,331.584Zm16.634,10.346c-1.5.345-2.22-3.532-2.22-3.532s-3,2.225-3.771,1.549,3.958-6.385,5.515-5.757C1214.7,334.19,1216.668,341.585,1215.171,341.93Zm14.527-5.323c-4.016.21-8.123-2.393-8.328-6.172-.15-2.732,1.83-7.038,4.36-7.5,2.98-.544,5.344.757,6.8,3.919S1234.38,336.363,1229.7,336.607Z" transform="translate(238.948 173.42)"/><path class="ah" d="M1257.493,293.336a21.854,21.854,0,0,0,19.18-13.654c-4.618,8.9-16.568,12.776-28.934,8.815-5.665-1.815-9.015-7.924-11.651-12.474-1.07-1.849-5.917-7.39-12.574-7.624,7.372,4.679,3.632,12.242-9.762,22.315C1233.406,283.539,1242.54,294.474,1257.493,293.336Z" transform="translate(280.735 109.102)"/><path class="ah" d="M1197.073,267.706c1.326,3.274,19.6,9.883,19.6,9.883l1.8-2.632s-15.8-8.479-16.718-10.1-.62-9.447-.62-9.447l-14.446-6.22,8.571,7.24S1195.75,264.43,1197.073,267.706Z" transform="translate(236.617 77.797)"/><path class="ah" d="M1217.33,241.4c-1.82-1.386-13.8,2.809-13.8,2.809l-9.591-5.615,11.027,11.214s7.188-3.114,9.031-2.84,15.466,11.927,15.466,11.927l1.481-2.164S1219.15,242.784,1217.33,241.4Z" transform="translate(248.445 60.515)"/><path class="ai" d="M1192.156,261.3c-21.82-20.324-24.542-33.584-19.2-35.4-2.88-.166-5.41-.221-7.432-.224a1.548,1.548,0,0,0-1.449,2.117c3.69,9.449,12.886,30.041,30.741,43.864,14.141,10.948,48.911,24.319,48.918,24.321h0l5.77-8.445S1207.055,275.171,1192.156,261.3Z" transform="translate(199.582 39.46)"/><g transform="translate(1563.927 201.461)"><line class="p" x1="5.432" y1="26.384" transform="translate(30.139)"/><path class="aj" d="M1358.4,498.564c-35.072-25.16-98.379-94.689-110.823-239.16l69.529-12.445s10.256,100.7,41.294,143.169Z" transform="translate(-1228.06 -127.301)"/><path class="ak" d="M1247.578,259.405l69.529-12.445.724,6.222L1248.1,265.154Z" transform="translate(-1228.061 -127.301)"/><path class="al" d="M1298.41,288.106l-39.335,8.261-3.732-17.775a20.1,20.1,0,0,1,15.535-23.8h0a20.1,20.1,0,0,1,23.8,15.537Z" transform="translate(-1216.113 -115.24)"/><path class="am" d="M1332.282,262.66l1.11,5.01a1.333,1.333,0,0,1-1.013,1.588l-8.437,1.867a1.33,1.33,0,0,1-1.586-1.012l-1.11-5.01a1.331,1.331,0,0,0-1.589-1.012l-8.434,1.864a1.334,1.334,0,0,0-1.013,1.589l1.11,5.01a1.333,1.333,0,0,1-1.013,1.588l-8.436,1.867a1.33,1.33,0,0,1-1.586-1.012l-1.11-5.01a1.329,1.329,0,0,0-1.589-1.012l-8.434,1.864a1.335,1.335,0,0,0-1.013,1.589l1.11,5.01a1.332,1.332,0,0,1-1.013,1.588l-8.437,1.867a1.33,1.33,0,0,1-1.586-1.012l-1.11-5.01a1.329,1.329,0,0,0-1.589-1.013l-8.434,1.865a1.334,1.334,0,0,0-1.012,1.588l1.11,5.01a1.333,1.333,0,0,1-1.013,1.588l-8.434,1.867a1.333,1.333,0,0,1-1.588-1.012l-1.11-5.013a1.326,1.326,0,0,0-1.586-1.01l-8.437,1.865a1.334,1.334,0,0,0-1.012,1.589l1.4,6.312,2.046,9.244a1.332,1.332,0,0,0,1.589,1.013l96.715-21.4a1.334,1.334,0,0,0,1.012-1.588l-2.046-9.247-1.4-6.309a1.332,1.332,0,0,0-1.589-1.013l-8.434,1.865A1.334,1.334,0,0,0,1332.282,262.66Z" transform="translate(-1233.942 -107.393)"/><path class="k" d="M1240.157,322.911c13.129-2.438,26.772-54.244,31.027-95.36,2.241-21.662,4.558-22.083,14.525-2.719,18.985,36.879,50.965,80.159,65.042,77.545Z" transform="translate(-1240.157 -186.264)"/><path class="k" d="M1252.013,203.857a26.539,26.539,0,0,1,12.949,0c7.635,1.723,16.492,6,22.6,2.335,0,0,.263,4.96-8.858,7.329-9.136,2.375-15.882-3.3-24.45,1.226C1257.265,209.143,1256.889,205.319,1252.013,203.857Z" transform="translate(-1220.833 -198.804)"/><path class="an" d="M1250.633,282.787l70.044-15.5s1.641,7.805,2.6,11.879c-4.613-8.516-39.756.618-72.2,5.786Z" transform="translate(-1223.082 -94.172)"/><g transform="translate(36.03 190.015)"><path class="ak" d="M1254.5,277.254l10.9-2.235a.807.807,0,0,1,.957.65l.647,3.632a.806.806,0,0,1-.613.928l-10.562,2.438a.807.807,0,0,1-.963-.586l-.986-3.834A.805.805,0,0,1,1254.5,277.254Z" transform="translate(-1253.857 -271.612)"/><path class="ak" d="M1260.7,276.08l10.4-2.343a1.019,1.019,0,0,1,1.212.758l.72,3.019a1.019,1.019,0,0,1-.76,1.225l-10.394,2.4a1.018,1.018,0,0,1-1.218-.76l-.723-3.072A1.02,1.02,0,0,1,1260.7,276.08Z" transform="translate(-1243.995 -273.713)"/><path class="ak" d="M1258.2,279.356l10.393-2.343a1.014,1.014,0,0,1,1.213.755l.72,3.019a1.014,1.014,0,0,1-.76,1.226l-10.391,2.4a1.015,1.015,0,0,1-1.218-.757l-.723-3.074A1.013,1.013,0,0,1,1258.2,279.356Z" transform="translate(-1248.069 -268.375)"/></g><g transform="translate(68.778 129.324)"><path class="ak" d="M1283.573,277.119l-9.41,2.448a1.123,1.123,0,0,0-.8,1.37l.728,2.793a1.124,1.124,0,0,0,1.357.807l9.394-2.312a1.122,1.122,0,0,0,.823-1.357l-.716-2.927A1.123,1.123,0,0,0,1283.573,277.119Z" transform="translate(-1254.88 -207.53)"/><path class="ak" d="M1280.5,275.445l-9.407,2.446a1.123,1.123,0,0,0-.8,1.373l.728,2.79a1.125,1.125,0,0,0,1.357.807l9.394-2.312a1.122,1.122,0,0,0,.823-1.357l-.715-2.927A1.123,1.123,0,0,0,1280.5,275.445Z" transform="translate(-1259.883 -210.258)"/><path class="ak" d="M1281.219,271.43l-9.407,2.448a1.121,1.121,0,0,0-.8,1.37l.728,2.793a1.125,1.125,0,0,0,1.357.807l9.394-2.312a1.122,1.122,0,0,0,.823-1.357l-.715-2.927A1.125,1.125,0,0,0,1281.219,271.43Z" transform="translate(-1258.714 -216.802)"/><path class="ak" d="M1276.8,250.653l-9.568,1.715a1.127,1.127,0,0,0-.91,1.307l.513,2.838a1.122,1.122,0,0,0,1.289.91l9.546-1.581a1.124,1.124,0,0,0,.926-1.289l-.489-2.974A1.124,1.124,0,0,0,1276.8,250.653Z" transform="translate(-1266.31 -250.635)"/><path class="ak" d="M1278.617,278.433l-9.407,2.448a1.121,1.121,0,0,0-.8,1.37l.729,2.793a1.125,1.125,0,0,0,1.357.807l9.394-2.312a1.122,1.122,0,0,0,.823-1.357l-.716-2.927A1.124,1.124,0,0,0,1278.617,278.433Z" transform="translate(-1262.954 -205.388)"/></g><g transform="translate(25.454 134.14)"><path class="ak" d="M1284.943,282.092l-9.41,2.446a1.128,1.128,0,0,0-.8,1.373l.728,2.79a1.125,1.125,0,0,0,1.357.807l9.394-2.309a1.126,1.126,0,0,0,.823-1.36l-.713-2.927A1.124,1.124,0,0,0,1284.943,282.092Z" transform="translate(-1209.322 -204.24)"/><path class="ak" d="M1280.055,252.481l-9.6,1.552a1.126,1.126,0,0,0-.931,1.291l.463,2.848a1.126,1.126,0,0,0,1.276.931l9.57-1.42a1.122,1.122,0,0,0,.947-1.273l-.437-2.982A1.125,1.125,0,0,0,1280.055,252.481Z" transform="translate(-1217.763 -252.466)"/><path class="ak" d="M1260.377,256.458l-9.6,1.552a1.127,1.127,0,0,0-.931,1.291l.466,2.846a1.124,1.124,0,0,0,1.273.934l9.57-1.42a1.124,1.124,0,0,0,.947-1.276l-.437-2.98A1.122,1.122,0,0,0,1260.377,256.458Z" transform="translate(-1249.835 -245.984)"/><path class="ak" d="M1279.989,283.406l-9.41,2.446a1.128,1.128,0,0,0-.8,1.373l.729,2.79a1.124,1.124,0,0,0,1.357.807l9.394-2.312a1.122,1.122,0,0,0,.823-1.357l-.716-2.927A1.121,1.121,0,0,0,1279.989,283.406Z" transform="translate(-1217.396 -202.099)"/></g><g transform="translate(49.499 238.311)"><path class="ak" d="M1291.553,301.053l-8.96,3.771a1.122,1.122,0,0,0-.6,1.473l1.12,2.659a1.126,1.126,0,0,0,1.457.6l8.968-3.635a1.126,1.126,0,0,0,.621-1.462l-1.128-2.8A1.125,1.125,0,0,0,1291.553,301.053Z" transform="translate(-1221.612 -277.589)"/><path class="ak" d="M1288.273,299.837l-8.96,3.771a1.124,1.124,0,0,0-.6,1.473l1.12,2.656a1.128,1.128,0,0,0,1.46.608l8.965-3.637a1.123,1.123,0,0,0,.621-1.462l-1.125-2.793A1.127,1.127,0,0,0,1288.273,299.837Z" transform="translate(-1226.956 -279.573)"/><path class="ak" d="M1291.269,315.48l-8.642,4.447a1.125,1.125,0,0,0-.487,1.515l1.323,2.564a1.125,1.125,0,0,0,1.5.492l8.661-4.316a1.122,1.122,0,0,0,.5-1.5l-1.339-2.7A1.123,1.123,0,0,0,1291.269,315.48Z" transform="translate(-1221.43 -254.137)"/><path class="ak" d="M1288.693,293.331l-9.244,3.009a1.126,1.126,0,0,0-.721,1.417l.9,2.743a1.125,1.125,0,0,0,1.4.726l9.239-2.875a1.122,1.122,0,0,0,.739-1.4l-.889-2.88A1.125,1.125,0,0,0,1288.693,293.331Z" transform="translate(-1226.879 -290.124)"/><path class="ak" d="M1269,292.133l-9.244,3.009a1.121,1.121,0,0,0-.721,1.418l.894,2.743a1.123,1.123,0,0,0,1.4.723l9.239-2.872a1.128,1.128,0,0,0,.742-1.407l-.891-2.877A1.122,1.122,0,0,0,1269,292.133Z" transform="translate(-1258.978 -292.077)"/><path class="ak" d="M1275.807,306.855l-9.068,3.506a1.126,1.126,0,0,0-.645,1.454l1.044,2.69a1.121,1.121,0,0,0,1.438.647l9.071-3.369a1.123,1.123,0,0,0,.663-1.444l-1.044-2.824A1.125,1.125,0,0,0,1275.807,306.855Z" transform="translate(-1247.503 -268.113)"/><path class="ak" d="M1292.115,306.918l-8.9,3.916a1.126,1.126,0,0,0-.576,1.483l1.165,2.638a1.122,1.122,0,0,0,1.468.581l8.907-3.779a1.125,1.125,0,0,0,.594-1.473l-1.173-2.775A1.124,1.124,0,0,0,1292.115,306.918Z" transform="translate(-1220.565 -268.043)"/><path class="ak" d="M1286.838,303.065l-8.96,3.769a1.128,1.128,0,0,0-.6,1.475l1.121,2.656a1.124,1.124,0,0,0,1.459.6l8.965-3.634a1.123,1.123,0,0,0,.62-1.462l-1.125-2.793A1.126,1.126,0,0,0,1286.838,303.065Z" transform="translate(-1229.297 -274.312)"/></g><g transform="translate(79.431 290.763)"><path class="ak" d="M1284.147,313.1l-8.637,4.46a1.121,1.121,0,0,0-.481,1.515l1.325,2.564a1.122,1.122,0,0,0,1.5.487l8.655-4.326a1.118,1.118,0,0,0,.5-1.5l-1.341-2.7A1.122,1.122,0,0,0,1284.147,313.1Z" transform="translate(-1262.955 -310.463)"/><path class="ak" d="M1280.783,312.146l-8.637,4.463a1.121,1.121,0,0,0-.481,1.515l1.325,2.561a1.122,1.122,0,0,0,1.5.489l8.652-4.326a1.125,1.125,0,0,0,.5-1.507l-1.344-2.7A1.126,1.126,0,0,0,1280.783,312.146Z" transform="translate(-1268.439 -312.022)"/><path class="ak" d="M1279.607,315.478l-8.636,4.46a1.123,1.123,0,0,0-.484,1.515l1.326,2.564a1.128,1.128,0,0,0,1.5.489l8.655-4.329a1.124,1.124,0,0,0,.5-1.5l-1.341-2.7A1.125,1.125,0,0,0,1279.607,315.478Z" transform="translate(-1270.36 -306.593)"/></g><g transform="translate(40.039 213.651)"><path class="ak" d="M1256.264,286.678l9.9-2.506a1.168,1.168,0,0,1,1.415.831l.755,2.835a1.169,1.169,0,0,1-.854,1.436l-9.833,2.378a1.169,1.169,0,0,1-1.391-.794l-.826-2.706A1.167,1.167,0,0,1,1256.264,286.678Z" transform="translate(-1255.381 -280.361)"/><path class="ak" d="M1261.6,285.243l9.9-2.506a1.169,1.169,0,0,1,1.418.831l.755,2.835a1.168,1.168,0,0,1-.855,1.436l-9.833,2.377a1.169,1.169,0,0,1-1.391-.794l-.826-2.706A1.167,1.167,0,0,1,1261.6,285.243Z" transform="translate(-1246.681 -282.7)"/><path class="ak" d="M1259.745,288.342l9.9-2.506a1.167,1.167,0,0,1,1.415.831l.755,2.835a1.168,1.168,0,0,1-.855,1.436l-9.83,2.377a1.166,1.166,0,0,1-1.391-.794l-.826-2.706A1.167,1.167,0,0,1,1259.745,288.342Z" transform="translate(-1249.708 -277.649)"/></g><g transform="translate(71.835 225.214)"><path class="ak" d="M1277.463,288.9,1268.508,292a1.541,1.541,0,0,0-.941,1.988l.884,2.4a1.542,1.542,0,0,0,1.956.92l8.889-3.119a1.541,1.541,0,0,0,.947-1.951l-.818-2.388A1.537,1.537,0,0,0,1277.463,288.9Z" transform="translate(-1267.472 -284.303)"/><path class="ak" d="M1283.016,287.158l-9.11,2.617a1.538,1.538,0,0,0-1.047,1.933l.752,2.443a1.539,1.539,0,0,0,1.9,1.026l9.044-2.633a1.542,1.542,0,0,0,1.052-1.9l-.686-2.427A1.542,1.542,0,0,0,1283.016,287.158Z" transform="translate(-1258.805 -287.097)"/><path class="ak" d="M1281.271,290.6l-9.013,2.932a1.543,1.543,0,0,0-.981,1.97l.839,2.417a1.542,1.542,0,0,0,1.938.957L1283,295.93a1.537,1.537,0,0,0,.984-1.933l-.77-2.4A1.541,1.541,0,0,0,1281.271,290.6Z" transform="translate(-1261.407 -281.512)"/></g><g transform="translate(99.44 317.728)"><path class="ak" d="M1286.7,325.4l-8.013,5.063a1.539,1.539,0,0,0-.466,2.149l1.407,2.135a1.542,1.542,0,0,0,2.115.452l7.945-5.057a1.54,1.54,0,0,0,.479-2.117l-1.336-2.138A1.544,1.544,0,0,0,1286.7,325.4Z" transform="translate(-1277.969 -317.561)"/><path class="ak" d="M1291.784,322.47l-8.279,4.618a1.54,1.54,0,0,0-.579,2.122l1.289,2.209a1.54,1.54,0,0,0,2.085.565l8.208-4.621a1.542,1.542,0,0,0,.595-2.088l-1.22-2.206A1.541,1.541,0,0,0,1291.784,322.47Z" transform="translate(-1270.233 -322.275)"/><path class="ak" d="M1290.823,326.2l-8.113,4.907a1.541,1.541,0,0,0-.505,2.141l1.365,2.162a1.542,1.542,0,0,0,2.106.492l8.043-4.9a1.54,1.54,0,0,0,.518-2.106l-1.3-2.164A1.54,1.54,0,0,0,1290.823,326.2Z" transform="translate(-1271.452 -316.231)"/></g><path class="ak" d="M1274.989,301.778l-8.4,3.458a1.479,1.479,0,0,0-.792,1.954l.976,2.249a1.478,1.478,0,0,0,1.923.773l8.336-3.466a1.478,1.478,0,0,0,.8-1.92l-.91-2.238A1.48,1.48,0,0,0,1274.989,301.778Z" transform="translate(-1198.57 -38.135)"/><path class="ak" d="M1272.529,300.235l-10.52,4.005a1.1,1.1,0,0,0-.639,1.407l1.209,3.272a1.1,1.1,0,0,0,1.428.642l10.522-4.1a1.1,1.1,0,0,0,.628-1.415l-1.215-3.177A1.1,1.1,0,0,0,1272.529,300.235Z" transform="translate(-1205.693 -40.587)"/><path class="ak" d="M1278.04,298.18l-10.675,3.571a1.1,1.1,0,0,0-.694,1.381l1.073,3.316a1.1,1.1,0,0,0,1.4.7l10.683-3.666a1.1,1.1,0,0,0,.684-1.389l-1.081-3.224A1.1,1.1,0,0,0,1278.04,298.18Z" transform="translate(-1197.031 -43.911)"/><path class="ao" d="M1246.442,248.4a8.081,8.081,0,0,0,8.813,4.216c6.28-1.155,6.178-6.572,6.178-6.572s3.661,8.024-5.665,9.725S1246.442,248.4,1246.442,248.4Z" transform="translate(-1229.913 -128.788)"/><path class="ao" d="M1252.411,247.258a8.081,8.081,0,0,0,8.813,4.216c6.28-1.157,6.177-6.575,6.177-6.575s3.661,8.026-5.664,9.728S1252.411,247.258,1252.411,247.258Z" transform="translate(-1220.184 -130.661)"/><path class="ao" d="M1258.381,239.918a7.592,7.592,0,0,0,8.282,3.963c5.9-1.086,5.807-6.178,5.807-6.178s3.44,7.543-5.326,9.139S1258.381,239.918,1258.381,239.918Z" transform="translate(-1210.454 -142.388)"/><path class="ao" d="M1248.961,244.959a8.081,8.081,0,0,0,8.813,4.216c6.28-1.155,6.177-6.572,6.177-6.572s3.661,8.024-5.665,9.725S1248.961,244.959,1248.961,244.959Z" transform="translate(-1225.807 -134.403)"/><path class="ao" d="M1263.7,239.709a7.593,7.593,0,0,0,8.571,3.293c5.8-1.554,5.3-6.622,5.3-6.622s4.029,7.245-4.578,9.536S1263.7,239.709,1263.7,239.709Z" transform="translate(-1201.785 -144.546)"/><path class="ao" d="M1266.071,245.576a8.084,8.084,0,0,0,9.12,3.5c6.167-1.652,5.636-7.045,5.636-7.045s4.287,7.711-4.873,10.146S1266.071,245.576,1266.071,245.576Z" transform="translate(-1197.92 -135.335)"/><path class="ao" d="M1255.456,223.877a6,6,0,0,0,6.769,2.6c4.576-1.226,4.181-5.228,4.181-5.228s3.18,5.72-3.619,7.529S1255.456,223.877,1255.456,223.877Z" transform="translate(-1215.221 -169.211)"/><path class="ao" d="M1252.956,222.387a6,6,0,0,0,6.766,2.6c4.579-1.228,4.184-5.228,4.184-5.228s3.18,5.72-3.619,7.529S1252.956,222.387,1252.956,222.387Z" transform="translate(-1219.296 -171.639)"/><path class="ao" d="M1251.709,233.386a7.178,7.178,0,0,0,8.1,3.109c5.478-1.467,5-6.257,5-6.257s3.808,6.848-4.329,9.013S1251.709,233.386,1251.709,233.386Z" transform="translate(-1221.329 -154.556)"/><path class="ao" d="M1260.524,237.822a7.593,7.593,0,0,0,8.571,3.29c5.8-1.552,5.3-6.619,5.3-6.619s4.029,7.245-4.581,9.536S1260.524,237.822,1260.524,237.822Z" transform="translate(-1206.961 -147.621)"/><path class="ao" d="M1253.515,230.278a7.178,7.178,0,0,0,8.1,3.109c5.478-1.467,5.008-6.256,5.008-6.256s3.806,6.848-4.332,9.013S1253.515,230.278,1253.515,230.278Z" transform="translate(-1218.385 -159.622)"/><path class="ao" d="M1256.751,232.418a7.179,7.179,0,0,0,8.1,3.111c5.478-1.47,5.007-6.257,5.007-6.257s3.808,6.846-4.329,9.01S1256.751,232.418,1256.751,232.418Z" transform="translate(-1213.11 -156.129)"/><path class="ao" d="M1254.256,214.325c8.568-4.526,15.314,1.149,24.45-1.226,9.121-2.37,8.858-7.329,8.858-7.329-.55,3.311-5.021,5.957-11.984,5.678-6.362-.255-12.624-3.279-16.066-5.7-4.376-3.08-7.5-2.312-7.5-2.312C1256.889,204.9,1257.265,208.721,1254.256,214.325Z" transform="translate(-1220.833 -198.382)"/></g><g transform="translate(1642.915 553.003)"><g transform="translate(94.223)"><path class="ap" d="M1315.925,379.079c6.044,4.939,8.318,3.556,8.318,3.556a34.189,34.189,0,0,0-.1-29.839c-7.151-14.549-16.8-19.138-17.994-17.268-1.212,1.9,6.509,8.024,9.047,17.349,3.774,13.873-3.624,22.1-3.624,22.1A30.191,30.191,0,0,0,1315.925,379.079Z" transform="translate(-1306.019 -335.132)"/><g transform="translate(2.698 5.527)"><path class="aq" d="M1318.375,345.932c-2.924.066-6.541-1.846-8.661-3.148.116.6.195,1.184.271,1.765C1316.442,347.962,1318.375,345.932,1318.375,345.932Z" transform="translate(-1302.693 -328.188)"/><path class="aq" d="M1309.892,348.061c-.276.757-.568,1.423-.863,2.038,7.942,6.33,11.535,4.637,11.535,4.637A19.473,19.473,0,0,1,1309.892,348.061Z" transform="translate(-1303.811 -319.587)"/><path class="aq" d="M1307.045,337.234q.513.706,1.065,1.5c3.419.5,4.9-.565,4.9-.565A15.058,15.058,0,0,1,1307.045,337.234Z" transform="translate(-1307.045 -337.234)"/><path class="aq" d="M1313.627,348.023a9.26,9.26,0,0,0,5.678.652c-4.266-.45-9.378-4.142-9.378-4.142l-.005.029c.013.552,0,1.083-.019,1.609A17.441,17.441,0,0,0,1313.627,348.023Z" transform="translate(-1302.387 -325.337)"/><path class="aq" d="M1319.795,351.2c-3.861-.226-8.665-4-9.807-4.942-.084.56-.179,1.107-.289,1.625C1317.3,353.451,1319.795,351.2,1319.795,351.2Z" transform="translate(-1302.719 -322.529)"/><path class="aq" d="M1315.223,340.812c-1.957.16-4.666-.713-6.883-1.628q.478.817.923,1.683C1313.37,342,1315.223,340.812,1315.223,340.812Z" transform="translate(-1304.933 -334.056)"/><path class="aq" d="M1316.838,343.409c-2.23.06-5.349-1.27-7.629-2.43q.327.852.594,1.746C1314.578,344.685,1316.838,343.409,1316.838,343.409Z" transform="translate(-1303.52 -331.13)"/></g></g><path class="ar" d="M1365.372,412.549c4.047,4.442,8,9.131,13.031,12.51a16.053,16.053,0,0,0,7.924,3.1,6.587,6.587,0,0,0,4.8-1.552c.718-.584,1.5-1.139,2.169-1.778.4-.379,1.315-2.1,1.71-2.233a3.859,3.859,0,0,1-3.784-1.318c-.976-1.02-1.62-2.306-2.506-3.4-1.736-2.146-4.284-3.448-6.785-4.613s-5.092-2.306-7.056-4.245-3.516-5.946-1.52-8.992c1.134,7.109,6.643,7.824,10.956,8.834,7.2,1.688,9.547,8.147,16.482,9.715,2.625.592,7.387,0,9.951.815s5.01,3.135,4.621,5.8c4.981-1.836,6.17-7.6,8.831-11.572a29.165,29.165,0,0,0,2.209-3.322,4.467,4.467,0,0,0,.247-3.85c-.75-1.523-2.588-2.159-4.274-2.354a19.676,19.676,0,0,1-8.408-2.551,37.418,37.418,0,0,1-6.617-5.089c-2.551-2.4-7.958-7.374-6.94-11.445,1.167-5.759,5.841-15.145-5.839-16.584s-8.176-7.4-23.945-16.679S1313,351.354,1289.9,378.9c-22.385,26.693-40.211,105.687,31.643,180.91V455.751S1306.015,439.842,1309.31,416c2.866-20.737,18.293-34.678,28.418-34.552s.778,8.505,8.371,18.333S1359.53,406.14,1365.372,412.549Z" transform="translate(-1270.191 -313.843)"/><path class="as" d="M1319.424,370.411s1.081-5.518-1.233-8.579-7.219-2.6-7.219-2.6-.973,4.329,1.018,6.593C1313.72,367.789,1318.622,368.388,1319.424,370.411Z" transform="translate(-1204.112 -295.894)"/><path class="n" d="M1314.5,359.407c-2.038-.487-3.674,1.412-3.656,3.753s2.075,4.292,4.721,4.752c3.064.529,3.792-2.4,3.684-3.574A5.913,5.913,0,0,0,1314.5,359.407Z" transform="translate(-1203.93 -295.693)"/><path class="at" d="M1327.017,371.263c-1.859,0-3.982,4.313-2.653,4.813S1328.876,371.263,1327.017,371.263Z" transform="translate(-1182.574 -276.244)"/><path class="at" d="M1330.515,370.607c-1.86,0-3.982,4.316-2.656,4.813S1332.371,370.607,1330.515,370.607Z" transform="translate(-1176.875 -277.313)"/><path class="i" d="M1309.774,350.428" transform="translate(-1205.676 -310.202)"/><path class="m" d="M1320.78,376.14c2.491,3.924.176,16.986-2.433,26.767-3.516,13.184-1.533,30.336,24.46,38.428,0,0-12.423-11.572-9.181-27.419S1338.211,387.159,1320.78,376.14Z" transform="translate(-1193.867 -268.295)"/><path class="m" d="M1325.127,380.135c5.494,1.1,14.044,6.675,15.382,14.065,1.894,10.454-7.556,18.9-1.581,28.124a14.788,14.788,0,0,1-11.164-10.869C1325.569,402.671,1337.212,392,1325.127,380.135Z" transform="translate(-1180.652 -261.783)"/><path class="m" d="M1317.505,395.592c3.3,14.038,13.66,18.864,29.794,24.624,24.4,8.705,27.995,31.409,7.519,48.548,0,0,3.169-22.412-12.871-30.762C1328.114,430.8,1308.937,420.863,1317.505,395.592Z" transform="translate(-1196.542 -236.59)"/><g transform="translate(57.795 8.336)"><path class="ap" d="M1325.105,370.31c7.782.592,8.858-1.846,8.858-1.846a34.189,34.189,0,0,0-17.158-24.413c-14.188-7.842-24.726-6.083-24.637-3.869.092,2.254,9.93,2.856,17.347,9.055,11.032,9.218,9.673,20.2,9.673,20.2A30.237,30.237,0,0,0,1325.105,370.31Z" transform="translate(-1292.168 -338.302)"/><g transform="translate(5.045 1.967)"><path class="aq" d="M1308.356,342.181c-2.362,1.725-6.422,2.228-8.9,2.37.439.431.836.863,1.23,1.294C1307.93,344.953,1308.356,342.181,1308.356,342.181Z" transform="translate(-1285.342 -333.947)"/><path class="aq" d="M1302.176,348.007c.208.776.347,1.491.46,2.164,10.136.647,12.111-2.8,12.111-2.8A19.48,19.48,0,0,1,1302.176,348.007Z" transform="translate(-1280.9 -325.479)"/><path class="aq" d="M1294.086,341.7q.824.288,1.728.618c3.093-1.541,3.7-3.269,3.7-3.269A15.088,15.088,0,0,1,1294.086,341.7Z" transform="translate(-1294.086 -339.05)"/><path class="aq" d="M1305.644,346.37a9.249,9.249,0,0,0,5.031-2.714c-3.755,2.072-10.062,1.97-10.062,1.97l.01.026c.329.444.621.886.907,1.328A17.347,17.347,0,0,0,1305.644,346.37Z" transform="translate(-1283.448 -331.543)"/><path class="aq" d="M1312.386,345.284c-3.3,2.022-9.4,1.678-10.872,1.56.253.508.486,1.007.692,1.5C1311.631,348.558,1312.386,345.284,1312.386,345.284Z" transform="translate(-1281.979 -328.889)"/><path class="aq" d="M1302.837,339.927c-1.512,1.252-4.232,2.083-6.572,2.6.568.266,1.141.547,1.72.852C1302,341.96,1302.837,339.927,1302.837,339.927Z" transform="translate(-1290.535 -337.621)"/><path class="aq" d="M1305.65,340.991c-1.794,1.323-5.113,2.017-7.648,2.37.505.342,1,.707,1.489,1.091C1304.527,343.329,1305.65,340.991,1305.65,340.991Z" transform="translate(-1287.704 -335.886)"/></g></g><path class="ar" d="M1322.442,359.572c-2.362.124,1.049-8.531-10.751-12.2s-16.689-2.59-17.571-1.049c-1.925,3.361,5.189,16.521,13.216,18.62.487.129.96.234,1.423.321a13.77,13.77,0,0,0,13.683-5.688Z" transform="translate(-1231.709 -319.228)"/><path class="as" d="M1308.121,360.221c-8.531-2.89-14-14.138-12.382-15.185h0a2.7,2.7,0,0,0-1.62,1.047c-1.925,3.361,5.189,16.521,13.216,18.62.487.129.96.234,1.423.318a13.763,13.763,0,0,0,13.683-5.686S1316.653,363.109,1308.121,360.221Z" transform="translate(-1231.709 -318.991)"/><path class="as" d="M1314.716,355.841s-1.141-6.512-7.522-7.732-10.724.06-9.231,1.32S1311.786,350.676,1314.716,355.841Z" transform="translate(-1225.406 -314.787)"/><path class="n" d="M1297.505,398.7c2.867-20.737,18.293-34.678,28.418-34.552,2.84.037,4.147.723,4.726,1.907h0c-2.041-5.163-14.02-15.175-33.61,4.126s-26.194,64.217-11.982,101.758,24.684,45.5,24.684,45.5v-79S1294.21,422.53,1297.505,398.7Z" transform="translate(-1258.386 -296.534)"/><path class="ai" d="M1296.862,474.952c-29.636-20.805-26.228-84.078-9.589-113.78-21.023,29.528-34.738,105.243,34.273,177.489V452.9C1320.387,468.976,1315.366,487.943,1296.862,474.952Z" transform="translate(-1270.191 -292.691)"/><path class="au" d="M1315.7,359.778a5.657,5.657,0,0,0-3.287,1.9,8.686,8.686,0,0,0-.868,4.124A5.007,5.007,0,0,0,1315.7,359.778Z" transform="translate(-1202.789 -294.963)"/><path class="as" d="M1330.122,363.616c-2.369-2.193-8.344-5.333-13.678-3.987a30.509,30.509,0,0,1-10.251.7s3.469-.126,8.305-3.137C1319.422,354.127,1323.792,356.534,1330.122,363.616Z" transform="translate(-1211.513 -301.305)"/><path class="as" d="M1322.187,374.513a6.291,6.291,0,0,1-1.025-4.237c.789-3.882,3.161-9.412,1.049-13.044.952,2.751-1.286,3.879-2.843,6.546s.415,7.206,2.819,10.735Z" transform="translate(-1190.944 -299.113)"/><path class="as" d="M1307.074,387.819c-3.069-2.538-9.455-13.57-4.989-21.36s8.624-7.577,8.624-7.577-8.624-1.615-12.389,8.729C1294.2,378.917,1307.074,387.819,1307.074,387.819Z" transform="translate(-1225.672 -296.571)"/><path class="ai" d="M1318.085,361.765a6.522,6.522,0,0,0-3.634-2.193,11.516,11.516,0,0,0-3.626-.339,5.476,5.476,0,0,0,.573,1.959,5.952,5.952,0,0,1,5.1,1.315,6.455,6.455,0,0,1,1.741,4.926,5.1,5.1,0,0,1,1.041,2.98,16.454,16.454,0,0,0,.016-5.578A5.072,5.072,0,0,0,1318.085,361.765Z" transform="translate(-1203.965 -295.895)"/><path class="av" d="M1290.626,360.106s2.551,0,5.636,4.282l-1.8,1.081A11.825,11.825,0,0,0,1290.626,360.106Z" transform="translate(-1236.885 -294.428)"/><path class="av" d="M1294.827,366.505c-2.6-3-7.724-4.36-7.724-4.36a26.973,26.973,0,0,1,6.02,6.154Z" transform="translate(-1242.627 -291.105)"/><path class="av" d="M1293.349,368.732s-1.628-2.385-8.873-3.611c0,0,5.1,2.2,7.509,5.836Z" transform="translate(-1246.909 -286.254)"/><path class="av" d="M1292.919,371.229s-3.656-2.751-10.9-2.306c0,0,6.133,1.859,9.975,4.886Z" transform="translate(-1250.916 -280.138)"/><path class="av" d="M1293.4,374.948c-4.226-2.122-10.9-1.725-13.442-.9,0,0,8.626.918,13.155,3.469Z" transform="translate(-1254.278 -272.785)"/><path class="av" d="M1294.741,378.421a27.656,27.656,0,0,0-15.774,1.712s11.734-.276,16.2,1.673Z" transform="translate(-1255.888 -265.324)"/><path class="av" d="M1297.293,382.144s-13.368-.8-18.58,5.66c0,0,10.083-4.255,19.69-2.54Z" transform="translate(-1256.302 -258.561)"/><path class="av" d="M1300.29,386.1s-13.815.763-20.553,8.836c0,0,13.118-7.032,22.007-6.485Z" transform="translate(-1254.633 -252.064)"/><path class="av" d="M1303.478,389.092s-16.171,3.122-22.2,17.094c0,0,11.119-10.438,22.241-13.331Z" transform="translate(-1252.123 -247.184)"/><path class="av" d="M1300.514,393.838s-13.4,7.6-17.418,22.38c0,0,9-12.971,17.418-17.988Z" transform="translate(-1249.158 -239.449)"/><path class="as" d="M1350,388.43c-3.348-3.253-9.854-1.244-13.744-2.2s-6.361-7.209-9.762-8.847c-4.369-2.1-10.867-.571-14.383-5.218a6.051,6.051,0,0,1-1.244-5.07,5.926,5.926,0,0,0-1.447,2.13c1.134,7.109,6.643,7.824,10.956,8.834,7.2,1.688,9.547,8.147,16.482,9.715,2.625.592,7.387,0,9.951.815s5.01,3.135,4.621,5.8C1351.427,394.384,1353.347,391.684,1350,388.43Z" transform="translate(-1206.258 -283.039)"/><path class="aw" d="M1270.728,382.52a4.923,4.923,0,0,0,4.642,3.727,4.174,4.174,0,0,0,4.581-3.04s1.055,5.27-4.715,4.981S1270.728,382.52,1270.728,382.52Z" transform="translate(-1269.508 -257.896)"/><path class="as" d="M1272.968,380.883a4.923,4.923,0,0,0,4.642,3.727,4.173,4.173,0,0,0,4.581-3.04s1.055,5.27-4.715,4.981S1272.968,380.883,1272.968,380.883Z" transform="translate(-1265.857 -260.564)"/><path class="aw" d="M1272.077,396.367a4.924,4.924,0,0,0,5.549,2.151,4.172,4.172,0,0,0,3.448-4.281s2.6,4.7-2.99,6.172S1272.077,396.367,1272.077,396.367Z" transform="translate(-1267.118 -238.798)"/><path class="aw" d="M1277.45,407.327a4.922,4.922,0,0,0,5.725,1.631,4.171,4.171,0,0,0,3.038-4.581s3.022,4.447-2.406,6.422S1277.45,407.327,1277.45,407.327Z" transform="translate(-1258.361 -222.273)"/><path class="aw" d="M1275.076,406.536a4.924,4.924,0,0,0,5.725,1.63,4.172,4.172,0,0,0,3.037-4.581s3.022,4.445-2.406,6.422S1275.076,406.536,1275.076,406.536Z" transform="translate(-1262.23 -223.562)"/><path class="as" d="M1273.251,394.174a4.92,4.92,0,0,0,5.549,2.151,4.168,4.168,0,0,0,3.448-4.281s2.6,4.707-2.99,6.175S1273.251,394.174,1273.251,394.174Z" transform="translate(-1265.205 -242.373)"/><path class="as" d="M1275.313,371.4a4.924,4.924,0,0,0,4.318,4.1,4.171,4.171,0,0,0,4.815-2.651s.618,5.339-5.11,4.573S1275.313,371.4,1275.313,371.4Z" transform="translate(-1262.23 -276.029)"/><path class="as" d="M1274.546,369.118a4.924,4.924,0,0,0,3.54,4.786,4.169,4.169,0,0,0,5.2-1.775s-.321,5.365-5.828,3.619S1274.546,369.118,1274.546,369.118Z" transform="translate(-1264.088 -279.74)"/><path class="as" d="M1278.1,361.247a4.925,4.925,0,0,0,3.54,4.786,4.17,4.17,0,0,0,5.2-1.775s-.321,5.365-5.828,3.619S1278.1,361.247,1278.1,361.247Z" transform="translate(-1258.291 -292.569)"/><path class="as" d="M1285.979,355.06a4.923,4.923,0,0,0,1.031,5.862,4.171,4.171,0,0,0,5.446.736s-2.683,4.658-6.827.634S1285.979,355.06,1285.979,355.06Z" transform="translate(-1247.892 -302.653)"/><path class="as" d="M1288.581,355.06a4.919,4.919,0,0,0,1.028,5.862,4.175,4.175,0,0,0,5.449.736s-2.683,4.658-6.83.634S1288.581,355.06,1288.581,355.06Z" transform="translate(-1243.655 -302.653)"/><path class="as" d="M1296.612,350.779a4.928,4.928,0,0,0-2.351,5.47,4.173,4.173,0,0,0,4.155,3.6s-4.8,2.425-6.059-3.211S1296.612,350.779,1296.612,350.779Z" transform="translate(-1234.372 -309.63)"/><path class="as" d="M1299.156,352.188a4.924,4.924,0,0,0-2.919,5.189,4.169,4.169,0,0,0,3.747,4.021s-5.026,1.9-5.683-3.837S1299.156,352.188,1299.156,352.188Z" transform="translate(-1230.985 -307.342)"/><path class="as" d="M1297.871,354.177a4.921,4.921,0,0,0-2.622,5.344,4.172,4.172,0,0,0,3.969,3.8s-4.913,2.183-5.894-3.511S1297.871,354.177,1297.871,354.177Z" transform="translate(-1232.677 -304.092)"/><path class="as" d="M1304.136,353.152a4.925,4.925,0,0,0-.476,5.933,4.17,4.17,0,0,0,5.089,2.08s-3.766,3.834-6.769-1.1S1304.136,353.152,1304.136,353.152Z" transform="translate(-1219.911 -305.762)"/><path class="n" d="M1320.851,377.962c.934,1.878,3.014,12.734-.021,20.768-2.653,7.027-2.8,21.139,8.705,28.29,0,0-6.217-9.625-2.488-20.589S1329.065,383.677,1320.851,377.962Z" transform="translate(-1190.065 -265.325)"/><path class="ax" d="M1321.458,379.938s4,5.457,3.5,12.029c-.423,5.541-4.247,11.619-3.208,16.713,0,0-2.186-4.153-.195-10.6C1323.5,391.762,1323.352,384.977,1321.458,379.938Z" transform="translate(-1187.842 -262.104)"/><path class="n" d="M1326.654,381.184s7.85,4.176,9.071,11.1c.925,5.252-2.246,12.316-3.356,15.246-1.476,3.9.581,8.358.581,8.358s-4.831-3.18-3.742-10.5c.873-5.852,2.811-9.044,2.064-15.874C1330.783,385.055,1326.654,381.184,1326.654,381.184Z" transform="translate(-1178.163 -260.073)"/><path class="ax" d="M1328.41,383.01a12.142,12.142,0,0,1,3.682,7.206c.41,4.047-1.815,9.867-1.815,9.867s1.238-7.046.844-10.293C1330.79,387.042,1328.41,383.01,1328.41,383.01Z" transform="translate(-1175.301 -257.097)"/><path class="n" d="M1316.783,398.657s3.232,9.788,16.9,14.378,26.459,9.336,29.171,21.065c2.314,10-4.326,20.876-4.326,20.876s-.6-13.155-6.478-20.358-19.748-12.442-26.891-16.813C1317.482,413.108,1316.488,407.478,1316.783,398.657Z" transform="translate(-1194.326 -231.594)"/><path class="ax" d="M1318.065,401.709s1.081,4.834,12.208,8.857,12.7,3.119,21.273,9.063c-5.954-3.114-12.413-4.018-19.161-6.017C1325.445,411.555,1317.926,407.745,1318.065,401.709Z" transform="translate(-1192.165 -226.62)"/></g><path class="f" d="M1119.659,274.24h-15.3V685.568l15.3-.461Z" transform="translate(102.44 118.623)"/><path class="g" d="M1112.36,280.253l-12.9,4.441V655.659l12.9,4.573Z" transform="translate(94.443 128.422)"/><path class="ay" d="M1162.284,249.028l1.654,8.508,7.945,3.458a2.244,2.244,0,0,1,.192,4.021l-7.577,4.2-.833,8.626a2.247,2.247,0,0,1-3.769,1.425l-6.338-5.907-8.46,1.87a2.245,2.245,0,0,1-2.519-3.14l3.661-7.855-4.394-7.466a2.245,2.245,0,0,1,2.206-3.369l8.6,1.055,5.744-6.488A2.246,2.246,0,0,1,1162.284,249.028Z" transform="translate(163.018 74.566)"/><path class="ay" d="M1316.325,236.664l5.47,6.722,8.639-.7a2.246,2.246,0,0,1,2.067,3.456l-4.7,7.28,3.332,8a2.244,2.244,0,0,1-2.648,3.032l-8.376-2.22-6.577,5.641a2.248,2.248,0,0,1-3.706-1.583l-.476-8.652-7.395-4.513a2.244,2.244,0,0,1,.358-4.011l8.082-3.127,2.006-8.429A2.247,2.247,0,0,1,1316.325,236.664Z" transform="translate(422.733 56.028)"/><path class="ay" d="M1344.81,329.64l5.47,6.719,8.639-.7a2.246,2.246,0,0,1,2.067,3.456l-4.7,7.28,3.332,8a2.246,2.246,0,0,1-2.648,3.035l-8.376-2.222-6.577,5.641a2.247,2.247,0,0,1-3.705-1.581l-.476-8.652-7.4-4.513a2.246,2.246,0,0,1,.358-4.013l8.082-3.124,2.006-8.431A2.246,2.246,0,0,1,1344.81,329.64Z" transform="translate(469.162 207.567)"/><path class="ay" d="M1086.481,327.532l5.47,6.719,8.637-.7a2.246,2.246,0,0,1,2.067,3.456l-4.7,7.28,3.33,8a2.246,2.246,0,0,1-2.649,3.035l-8.376-2.222-6.577,5.641a2.246,2.246,0,0,1-3.7-1.583l-.476-8.652-7.4-4.513a2.245,2.245,0,0,1,.361-4.011l8.082-3.127,2.006-8.429A2.245,2.245,0,0,1,1086.481,327.532Z" transform="translate(48.114 204.131)"/><path class="ay" d="M1203.815,450.2l5.47,6.722,8.637-.7a2.244,2.244,0,0,1,2.067,3.456l-4.7,7.28,3.332,8a2.244,2.244,0,0,1-2.648,3.032l-8.376-2.22-6.58,5.639a2.244,2.244,0,0,1-3.7-1.581l-.476-8.652-7.4-4.513a2.245,2.245,0,0,1,.36-4.011l8.082-3.127,2.007-8.429A2.246,2.246,0,0,1,1203.815,450.2Z" transform="translate(239.354 404.063)"/><g transform="translate(1041.512 364.027)"><path class="az" d="M1045.448,305.865a38.216,38.216,0,1,1,42.333,33.6A38.219,38.219,0,0,1,1045.448,305.865Z" transform="translate(-1035.509 -263.275)"/><path class="ba" d="M1053.552,274.116a5.051,5.051,0,0,0,1.3,2.306c3.577,3.6,9.8,2.159,14.322,2.98,4.155.757,9.289,1.341,13.344,2.477,3.061.855,7.992,2.948,8.016-2.017.018-3.748-1.546-6.562-4.147-9.26-3.939-4.084-11.2-5.912-16.823-6.1-5.278-.176-13.044,1.851-15.748,6.943A3.727,3.727,0,0,0,1053.552,274.116Z" transform="translate(-1022.102 -261.294)"/><path class="ba" d="M1074.623,281.364a2.706,2.706,0,0,0,1.786-1.967,5.884,5.884,0,0,0-.06-2.756c-.681-3.214-2.462-7.111-5.8-8.226a2.018,2.018,0,0,0-2.012.171,2.041,2.041,0,0,0-.46,1.531,30.078,30.078,0,0,0,.65,6.312,5.709,5.709,0,0,0,1.757,3.453C1071.433,280.63,1073.382,281.7,1074.623,281.364Z" transform="translate(-998.208 -255.195)"/><path class="bb" d="M1121.494,302.687c-3.561,13.036-24.592,27.29-47.159,16.721-24.008-11.245-19.737-45.008-6.322-54.9a38.22,38.22,0,1,0,53.481,38.181Z" transform="translate(-1035.509 -261.27)"/><g transform="translate(0 13.091)"><path class="ay" d="M1058.828,317.571c-8.763,1.007-14.5-.631-16.621-4.981-2.28-4.681,1.194-10.859,8.263-14.685l.942-.521a43.944,43.944,0,0,0,1,5.544c-4.2,2.467-6.193,5.717-5.41,7.33,1.128,2.317,11.524,5.817,43.425-8.034,36.742-15.953,41.865-26.133,41.165-27.8-.339-.8-3.463-1.736-8.744.418a37.627,37.627,0,0,0-2.961-4.537l.552-.242c7.593-3.1,14.2-2.146,16.066,2.293,3.542,8.424-12.479,21.092-43.954,34.759C1078.812,313.079,1067.38,316.585,1058.828,317.571Z" transform="translate(-1041.511 -268.253)"/></g></g></g></g></svg>